<svg width="42" height="41" viewBox="0 0 42 41" fill="none" xmlns="http://www.w3.org/2000/svg">
    <path d="M32.6076 10.633C32.2532 10.9874 32.2532 11.5191 32.6076 11.7849C32.9621 12.1393 33.4937 12.1393 33.7595 11.7849C34.1139 11.4305 34.1139 10.8988 33.7595 10.633C33.4051 10.2786 32.8734 10.2786 32.6076 10.633Z"
          fill="#FEFEFE"/>
    <path d="M40.7596 10.1013H37.2153L36.3292 11.1646C36.152 11.3418 36.2406 11.4304 36.4178 11.519L37.5697 12.0507L40.8482 10.5444C41.114 10.4557 41.0254 10.1013 40.7596 10.1013ZM27.5571 27.4684H23.2153C22.0634 28.1773 21.709 28.3545 20.2026 28.9747C20.114 28.9747 20.0254 29.152 20.114 29.2406L24.0128 40.1393H26.228L22.6837 30.1266C24.9875 30.1266 30.5697 29.5064 33.5824 24.633C32.6077 26.0507 30.3925 27.4684 27.5571 27.4684ZM33.7596 11.7849C33.4052 12.1393 32.8735 12.1393 32.6077 11.7849C32.2533 11.4304 32.2533 10.8988 32.6077 10.633C32.9621 10.2785 33.4938 10.2785 33.7596 10.633C33.0507 9.9241 31.8988 9.9241 31.2786 10.633C30.6583 11.3418 30.5697 12.4051 31.2786 13.114C31.9874 13.8228 33.1393 13.8228 33.7596 13.114C34.3799 12.4051 34.4685 11.3418 33.7596 10.633C34.0254 10.9874 34.0254 11.4304 33.7596 11.7849ZM25.1647 31.633L28.1773 40.1393H30.3925L27.2026 31.1899C26.671 31.3671 25.9621 31.4557 25.1647 31.633ZM28.1773 21.0001C28.4431 20.6456 28.6204 20.2912 28.8862 19.8482C28.7976 19.7595 28.709 19.8482 28.6204 19.9368C24.1014 24.7216 19.7596 25.3418 16.3925 25.3418H11.2533C11.0761 25.3418 10.9875 25.1646 11.0761 24.9874C15.0634 19.4937 19.4052 15.152 22.6837 12.4051L14.0887 19.5823C13.3799 20.114 12.5824 20.4684 11.5191 20.4684H0.708971C0.443148 20.4684 0.531755 20.7342 0.531755 20.9114C1.24062 23.2152 3.3672 25.3418 6.9115 25.3418L4.34188 27.9114C4.25327 28.0001 4.25327 28.2659 4.5191 28.2659H14.1773C21.0887 28.2659 25.4305 25.2532 28.1773 21.0001Z"
          fill="#00985F"/>
    <path d="M31.2785 13.1139C30.5696 12.4051 30.5696 11.3418 31.2785 10.6329C31.9873 9.92405 33.1392 9.92405 33.7595 10.6329C34.3797 11.3418 34.4684 12.4051 33.7595 13.1139C33.0506 13.8228 31.8987 13.8228 31.2785 13.1139ZM33.4937 24.6329C36.5063 19.7595 37.5696 12.0506 37.5696 12.0506L36.4177 11.519C36.2405 11.4304 36.2405 11.3418 36.3291 11.1646L37.2152 10.1013C36.6835 9.03797 34.7342 7.26582 31.8987 7.26582C30.2152 7.26582 28.7089 7.70886 27.3797 8.59494C27.3797 8.59494 25.4304 9.92405 22.6835 12.3165C19.4051 15.1519 15.0633 19.4051 11.0759 24.8987C10.9873 25.076 11.0759 25.2532 11.2532 25.2532H16.3924C19.7595 25.2532 24.1013 24.6329 28.6203 19.8481C28.7089 19.7595 28.7975 19.7595 28.8861 19.7595C28.9747 19.8481 28.9747 19.9367 28.9747 20.0253C28.2658 21.7975 26.4937 25.2532 23.2152 27.3797H27.557C30.481 27.3797 32.6076 26.0506 33.4937 24.6329ZM29.0633 30.481L32.4304 40.0506H42C40.0506 34.1139 37.924 28.6203 35.8861 23.5696C34.2911 27.0253 32.7848 28.7089 29.0633 30.481ZM0 40.1392H9.65823L12.9367 29.9494H3.5443C2.39241 32.962 1.24051 36.3291 0 40.1392ZM13.0253 18.2532L17.8987 14.2658C18.962 11.4304 20.0253 8.59494 21.0886 6.20253C21.6203 7.44304 22.1519 8.77215 22.6835 10.1013C25.3418 7.88608 27.0253 6.55696 29.2405 5.93671C27.9114 3.01266 26.9367 0.886076 26.4937 0H15.6835C14.7975 1.94937 11.3418 9.12658 7.26582 18.7848H11.1646C11.962 18.7848 12.5823 18.6962 13.0253 18.2532Z"
          fill="#DC000F"/>
</svg>
