<svg width="51" height="41" viewBox="0 0 51 41" fill="none" xmlns="http://www.w3.org/2000/svg">
    <g clip-path="url(#clip0_485_650)">
        <path d="M31.58 30.5427C31.58 28.8544 33.7564 26.7634 38.3023 26.7634C38.5745 26.7634 38.8467 26.7634 39.1148 26.791C38.7661 30.0365 36.1509 32.2585 33.5953 32.2585C32.3689 32.2585 31.58 31.6944 31.58 30.5427ZM22.7606 12.7992H22.8161L21.3967 25.6116C19.8624 25.1601 18.2972 24.8195 16.7134 24.5923L22.7606 12.7992ZM12.9092 24.3248C9.53559 24.3248 5.99809 25.1565 4.17309 27.1385C3.15522 25.2434 2.64041 23.122 2.67726 20.9744C2.67726 15.2641 6.46059 9.95924 13.7273 6.59096L12.8023 4.65992C4.2842 8.45993 0.445312 14.7289 0.445312 20.9744C0.445312 23.9234 1.15365 26.7675 3.02865 29.4696C2.97587 29.7703 2.94809 30.0765 2.94809 30.3827C2.94809 32.6585 4.39115 34.2944 7.38559 34.2944C10.5161 34.2944 13.1814 32.1758 14.7884 27.9965H12.4467C11.2773 30.7827 9.3717 32.2337 7.38559 32.2337C5.8342 32.2337 5.15365 31.5372 5.15365 30.3854C5.15365 28.402 7.60226 26.391 12.9384 26.391C15.737 26.3992 18.5175 26.8337 21.1828 27.6779L20.8036 31.1868H22.98L25.0217 12.2916C26.2745 12.0296 27.5495 11.8972 28.8314 11.8916C33.6217 11.8916 34.9286 13.5551 34.9286 15.351C34.9286 17.7372 32.9425 19.3965 28.1786 19.933L28.887 13.4751L26.7092 13.5551L24.8036 31.1896H26.9814L27.9328 22.2654C29.5557 21.8332 31.2252 21.5975 32.905 21.5634C36.1161 21.5634 38.2953 22.8503 38.9481 24.7606C38.7312 24.739 38.5132 24.7303 38.2953 24.7344C32.1148 24.7344 29.3689 27.8434 29.3689 30.5785C29.3689 32.9896 31.1953 34.3303 33.5606 34.3303C37.0092 34.3303 40.7467 31.5951 41.2689 27.1192C42.8439 27.482 44.3523 28.0889 45.7328 28.9179C42.0036 34.3579 34.4648 37.922 25.4286 37.922C20.9925 37.922 15.4425 36.9841 11.7675 34.4916L10.6231 36.2903C14.2453 38.8627 20.0398 40.0696 25.4328 40.0696C40.1023 40.0696 50.4453 31.5454 50.4453 21.013C50.4453 9.94406 39.2036 1.95786 25.462 1.95786C24.6175 1.95786 24.0189 1.98406 23.2009 2.03786L23.4189 4.1551C24.0717 4.12889 24.78 4.09993 25.4328 4.09993C37.7064 4.09993 48.2134 11.391 48.2134 21.013C48.2182 23.131 47.7326 25.2216 46.7939 27.1234C45.405 26.2392 43.3911 25.4351 41.2411 25.0337C40.7786 22.4613 38.63 20.2627 34.4648 19.8392C35.2795 19.3977 35.9605 18.7476 36.437 17.9565C36.9115 17.1674 37.1629 16.2659 37.1648 15.3468C37.1648 12.0503 34.7981 9.82544 28.837 9.82544C27.6425 9.8282 26.4509 9.92613 25.2731 10.1206L25.5092 7.8613L23.3064 7.27234L21.4023 10.9772C18.3259 11.8572 15.3328 13.1496 13.5634 14.1399L14.5425 15.9896C16.331 15.0858 18.1766 14.298 20.0675 13.631L14.5717 24.3785C13.9995 24.351 13.4536 24.3248 12.9092 24.3248ZM21.4314 5.16199C21.4314 2.83096 18.737 0.738546 15.7509 0.0695801C15.4515 1.27189 15.2857 2.50314 15.2564 3.7413C15.2564 7.01165 16.9703 7.97579 18.5773 7.97579C20.2884 7.97579 21.4314 6.85027 21.4314 5.16199Z" fill="#63C634"/>
    </g>
    <defs>
        <clipPath id="clip0_485_650">
            <rect width="50" height="40" fill="white" transform="translate(0.445312 0.0695801)"/>
        </clipPath>
    </defs>
</svg>
