<svg width="40" height="41" viewBox="0 0 40 41" fill="none" xmlns="http://www.w3.org/2000/svg">
    <path fill-rule="evenodd" clip-rule="evenodd" d="M31.535 3.71509C29.479 9.89595 21.3463 9.06316 15.2695 9.09244C17.8297 2.5635 25.9169 4.14775 31.535 3.71509Z" fill="#008F32"/>
    <path fill-rule="evenodd" clip-rule="evenodd" d="M33.3149 5.14605C30.745 10.7446 25.0163 11.3074 20.1042 11.3074C19.0241 11.3074 17.9929 11.2814 17.0365 11.2749L15.8036 16.1122C22.1373 10.9463 30.514 16.0667 29.6194 23.861C29.391 26.1288 28.4721 28.2719 26.9869 30.0009C25.5017 31.7298 23.5217 32.9614 21.3143 33.5292C17.0007 34.606 12.2252 32.9957 10.0782 28.6008C9.78035 27.9858 9.51964 27.3536 9.29742 26.7075L13.8517 25.5461C13.9402 25.8097 14.0615 26.0611 14.2128 26.2944C17.2577 31.2033 23.4288 28.7472 24.125 23.6528C24.8342 18.4707 17.5603 15.7121 14.2486 21.7693L10.2148 20.0484L10.1432 20.0159C10.1432 20.0159 12.6156 10.1005 12.6839 9.84676C14.883 1.75959 21.9844 1.63272 27.6969 1.60995C23.0672 -0.320442 17.8811 -0.440683 13.1669 1.27307C8.45272 2.98682 4.5546 6.40942 2.24541 10.8623C-0.0637881 15.3152 -0.615443 20.4732 0.699815 25.3138C2.01507 30.1543 5.1012 34.3238 9.34635 36.9958C13.5915 39.6678 18.6857 40.647 23.6189 39.7394C28.5521 38.8317 32.9642 36.1035 35.9804 32.0956C38.9965 28.0877 40.3965 23.0927 39.9028 18.1011C39.4091 13.1094 37.0578 8.48547 33.3149 5.14605Z" fill="#EB2316"/>
</svg>
