<svg width="40" height="41" viewBox="0 0 40 41" fill="none" xmlns="http://www.w3.org/2000/svg">
    <path d="M0 12.1798C0.00666742 8.96942 1.26478 5.89252 3.49886 3.62278C5.73294 1.35302 8.76096 0.0753853 11.9199 0.0695801H39.439V6.22538H11.9272C10.3749 6.23212 8.88814 6.86151 7.7902 7.97662C6.69229 9.09171 6.07206 10.6023 6.06448 12.1798L6.02843 22.514C5.90283 23.838 5.34928 25.0824 4.4542 26.0531C3.55915 27.0236 2.37301 27.6655 1.08101 27.8788L0 28.0472V12.1798Z" fill="#E30613"/>
    <path d="M0.00195312 40.0695V33.9135H27.5209C29.0735 33.9059 30.5602 33.2756 31.6581 32.16C32.7558 31.0443 33.376 29.5333 33.3836 27.9556V18.1487C33.3912 16.726 33.8962 15.3522 34.8084 14.2729C35.7207 13.1936 36.9807 12.4789 38.3634 12.2566L39.4444 12.0918V27.9556C39.4377 31.1664 38.1798 34.2436 35.9457 36.5139C33.7118 38.7842 30.6838 40.0626 27.5245 40.0695H0.00195312Z" fill="#E30613"/>
    <path d="M23.3159 28.069V20.1116L19.7269 24.4657L16.1415 20.1116V28.069H11.3887V12.4104H15.8893L19.7269 17.4456L23.5645 12.4104H28.0651V28.069H23.3159Z" fill="#E30613"/>
</svg>
