<svg width="81" height="14" viewBox="0 0 81 14" fill="none" xmlns="http://www.w3.org/2000/svg">
    <path d="M0.958594 10.2096C0.785261 10.2096 0.631927 10.1762 0.498594 10.1096C0.378594 10.0429 0.285261 9.93625 0.218594 9.78958C0.151927 9.64291 0.118594 9.45625 0.118594 9.22958V1.06958C0.118594 0.78958 0.191927 0.576246 0.338594 0.42958C0.48526 0.26958 0.691927 0.18958 0.958594 0.18958C1.21193 0.18958 1.41193 0.26958 1.55859 0.42958C1.70526 0.576246 1.77859 0.78958 1.77859 1.06958V8.28958H1.25859L6.89859 0.769579C7.00526 0.622913 7.13859 0.48958 7.29859 0.36958C7.45859 0.24958 7.67193 0.18958 7.93859 0.18958C8.12526 0.18958 8.27859 0.222913 8.39859 0.28958C8.51859 0.356246 8.60526 0.462913 8.65859 0.60958C8.72526 0.742913 8.75859 0.922913 8.75859 1.14958V9.32958C8.75859 9.59625 8.68526 9.80958 8.53859 9.96958C8.40526 10.1296 8.21193 10.2096 7.95859 10.2096C7.67859 10.2096 7.46526 10.1296 7.31859 9.96958C7.18526 9.80958 7.11859 9.59625 7.11859 9.32958V2.08958H7.63859L1.99859 9.62958C1.89193 9.77625 1.75859 9.90958 1.59859 10.0296C1.43859 10.1496 1.22526 10.2096 0.958594 10.2096ZM16.8512 12.8096C16.6113 12.8096 16.4179 12.7362 16.2713 12.5896C16.1246 12.4429 16.0513 12.2362 16.0513 11.9696V9.50958C16.0513 8.90958 16.3513 8.60958 16.9513 8.60958H17.9513L16.8512 8.98958C17.2246 8.52291 17.5179 8.01625 17.7313 7.46958C17.9446 6.90958 18.0979 6.28291 18.1913 5.58958C18.2979 4.88291 18.3513 4.08291 18.3513 3.18958V1.36958C18.3513 1.03625 18.4379 0.782913 18.6113 0.60958C18.7979 0.422913 19.0579 0.32958 19.3913 0.32958H24.3713C24.7046 0.32958 24.9579 0.422913 25.1313 0.60958C25.3179 0.782913 25.4113 1.03625 25.4113 1.36958V9.44958L24.5713 8.60958H26.0713C26.3646 8.60958 26.5846 8.68958 26.7313 8.84958C26.8913 8.99625 26.9713 9.21625 26.9713 9.50958V11.9696C26.9713 12.5296 26.7113 12.8096 26.1913 12.8096C25.9246 12.8096 25.7246 12.7362 25.5913 12.5896C25.4579 12.4429 25.3913 12.2362 25.3913 11.9696V10.0696H17.6313V11.9696C17.6313 12.5296 17.3713 12.8096 16.8512 12.8096ZM18.8313 8.60958H23.6913V1.74958H19.9513V3.52958C19.9513 4.48958 19.8513 5.42291 19.6513 6.32958C19.4646 7.22291 19.1913 7.98291 18.8313 8.60958ZM29.9444 13.8096C29.6644 13.8096 29.4444 13.7296 29.2844 13.5696C29.1244 13.4096 29.0444 13.1829 29.0444 12.8896V1.10958C29.0444 0.802913 29.1244 0.576246 29.2844 0.42958C29.4444 0.26958 29.6644 0.18958 29.9444 0.18958C30.2377 0.18958 30.4577 0.26958 30.6044 0.42958C30.7644 0.576246 30.8444 0.802913 30.8444 1.10958V2.92958L30.6244 2.56958C30.8377 1.83625 31.2577 1.24958 31.8844 0.809579C32.511 0.36958 33.2644 0.14958 34.1444 0.14958C35.011 0.14958 35.7644 0.356246 36.4044 0.769579C37.0444 1.16958 37.5444 1.74958 37.9044 2.50958C38.2644 3.25625 38.4444 4.14958 38.4444 5.18958C38.4444 6.21625 38.2644 7.11625 37.9044 7.88958C37.5577 8.64958 37.0577 9.23625 36.4044 9.64958C35.7644 10.0496 35.011 10.2496 34.1444 10.2496C33.2777 10.2496 32.531 10.0296 31.9044 9.58958C31.2777 9.14958 30.8577 8.56958 30.6444 7.84958H30.8644V12.8896C30.8644 13.1829 30.7844 13.4096 30.6244 13.5696C30.4644 13.7296 30.2377 13.8096 29.9444 13.8096ZM33.7244 8.80958C34.2977 8.80958 34.7977 8.66958 35.2244 8.38958C35.6644 8.10958 36.0044 7.70291 36.2444 7.16958C36.4844 6.63625 36.6044 5.97625 36.6044 5.18958C36.6044 4.01625 36.3444 3.12291 35.8244 2.50958C35.3044 1.89625 34.6044 1.58958 33.7244 1.58958C33.1377 1.58958 32.6244 1.72958 32.1844 2.00958C31.7577 2.27625 31.4244 2.67625 31.1844 3.20958C30.9577 3.74291 30.8444 4.40291 30.8444 5.18958C30.8444 6.36291 31.1044 7.26291 31.6244 7.88958C32.1444 8.50291 32.8444 8.80958 33.7244 8.80958ZM43.1008 13.8096C42.8874 13.8096 42.7074 13.7496 42.5608 13.6296C42.4274 13.5229 42.3474 13.3696 42.3208 13.1696C42.3074 12.9829 42.3474 12.7829 42.4408 12.5696L43.8008 9.48958V10.2496L40.0208 1.44958C39.9274 1.22291 39.8941 1.01625 39.9208 0.82958C39.9474 0.642913 40.0341 0.48958 40.1808 0.36958C40.3408 0.24958 40.5541 0.18958 40.8208 0.18958C41.0474 0.18958 41.2274 0.242913 41.3608 0.349579C41.4941 0.456246 41.6208 0.642913 41.7408 0.909579L44.8808 8.64958H44.3208L47.5208 0.909579C47.6274 0.642913 47.7541 0.456246 47.9008 0.349579C48.0474 0.242913 48.2474 0.18958 48.5008 0.18958C48.7274 0.18958 48.9008 0.24958 49.0208 0.36958C49.1541 0.48958 49.2341 0.642913 49.2608 0.82958C49.2874 1.01625 49.2474 1.21625 49.1408 1.42958L44.1008 13.0896C43.9674 13.3696 43.8274 13.5562 43.6808 13.6496C43.5474 13.7562 43.3541 13.8096 43.1008 13.8096ZM52.3472 10.2096C52.0539 10.2096 51.8272 10.1296 51.6672 9.96958C51.5072 9.79625 51.4272 9.55625 51.4272 9.24958V1.36958C51.4272 1.03625 51.5139 0.782913 51.6872 0.60958C51.8739 0.422913 52.1339 0.32958 52.4672 0.32958H57.7072C57.9872 0.32958 58.1939 0.38958 58.3272 0.50958C58.4605 0.62958 58.5272 0.80958 58.5272 1.04958C58.5272 1.28958 58.4605 1.47625 58.3272 1.60958C58.1939 1.72958 57.9872 1.78958 57.7072 1.78958H53.2472V9.24958C53.2472 9.88958 52.9472 10.2096 52.3472 10.2096ZM61.0758 10.2096C60.9024 10.2096 60.7491 10.1762 60.6158 10.1096C60.4958 10.0429 60.4024 9.93625 60.3358 9.78958C60.2691 9.64291 60.2358 9.45625 60.2358 9.22958V1.06958C60.2358 0.78958 60.3091 0.576246 60.4558 0.42958C60.6024 0.26958 60.8091 0.18958 61.0758 0.18958C61.3291 0.18958 61.5291 0.26958 61.6758 0.42958C61.8224 0.576246 61.8958 0.78958 61.8958 1.06958V8.28958H61.3758L67.0158 0.769579C67.1224 0.622913 67.2558 0.48958 67.4158 0.36958C67.5758 0.24958 67.7891 0.18958 68.0558 0.18958C68.2424 0.18958 68.3958 0.222913 68.5158 0.28958C68.6358 0.356246 68.7224 0.462913 68.7758 0.60958C68.8424 0.742913 68.8758 0.922913 68.8758 1.14958V9.32958C68.8758 9.59625 68.8024 9.80958 68.6558 9.96958C68.5224 10.1296 68.3291 10.2096 68.0758 10.2096C67.7958 10.2096 67.5824 10.1296 67.4358 9.96958C67.3024 9.80958 67.2358 9.59625 67.2358 9.32958V2.08958H67.7558L62.1158 9.62958C62.0091 9.77625 61.8758 9.90958 61.7158 10.0296C61.5558 10.1496 61.3424 10.2096 61.0758 10.2096ZM76.4936 10.2496C75.4403 10.2496 74.5336 10.0496 73.7736 9.64958C73.0269 9.23625 72.4469 8.65625 72.0336 7.90958C71.6203 7.14958 71.4136 6.25625 71.4136 5.22958C71.4136 4.21625 71.6136 3.32958 72.0136 2.56958C72.4269 1.80958 72.9869 1.21625 73.6936 0.78958C74.4136 0.362913 75.2336 0.14958 76.1536 0.14958C76.8069 0.14958 77.3936 0.262913 77.9136 0.489579C78.4469 0.702913 78.9003 1.01625 79.2736 1.42958C79.6469 1.84291 79.9269 2.34958 80.1136 2.94958C80.3136 3.53625 80.4136 4.20291 80.4136 4.94958C80.4136 5.16291 80.3469 5.32958 80.2136 5.44958C80.0936 5.55625 79.9136 5.60958 79.6736 5.60958H72.8336V4.44958H79.2136L78.8736 4.72958C78.8736 4.03625 78.7669 3.44958 78.5536 2.96958C78.3536 2.47625 78.0536 2.10291 77.6536 1.84958C77.2669 1.59625 76.7803 1.46958 76.1936 1.46958C75.5536 1.46958 75.0069 1.62291 74.5536 1.92958C74.1003 2.22291 73.7536 2.64291 73.5136 3.18958C73.2736 3.72291 73.1536 4.34291 73.1536 5.04958V5.16958C73.1536 6.36958 73.4403 7.27625 74.0136 7.88958C74.5869 8.50291 75.4136 8.80958 76.4936 8.80958C76.9203 8.80958 77.3536 8.75625 77.7936 8.64958C78.2469 8.54291 78.6803 8.34958 79.0936 8.06958C79.2936 7.94958 79.4736 7.89625 79.6336 7.90958C79.8069 7.90958 79.9469 7.96291 80.0536 8.06958C80.1603 8.16291 80.2269 8.28291 80.2536 8.42958C80.2803 8.56291 80.2603 8.70958 80.1936 8.86958C80.1269 9.02958 80.0003 9.16958 79.8136 9.28958C79.3736 9.59625 78.8469 9.83625 78.2336 10.0096C77.6336 10.1696 77.0536 10.2496 76.4936 10.2496Z" fill="#1A3B69" fill-opacity="0.6"/>
</svg>
