<svg width="40" height="41" viewBox="0 0 40 41" fill="none" xmlns="http://www.w3.org/2000/svg">
    <path d="M32.5496 12.4382C29.9893 12.4382 28.2685 13.4879 26.8624 14.8735L21.8047 20.08L26.8624 25.2864C28.2685 26.672 29.9893 27.7217 32.5496 27.7217C36.7679 27.7217 39.9998 24.2997 39.9998 20.08C39.9998 15.8602 36.7889 12.4382 32.5496 12.4382Z" fill="#1E8637"/>
    <path d="M7.45012 12.4382C3.2109 12.4382 0 15.8602 0 20.08C0 24.2997 3.2109 27.7217 7.42913 27.7217C9.98946 27.7217 11.7103 26.672 13.1164 25.2864L18.1741 20.08L13.1374 14.8735C11.7313 13.4879 9.98946 12.4382 7.45012 12.4382Z" fill="#A9E641"/>
    <path d="M20.0003 21.8855C19.5596 21.8855 14.7957 26.945 14.7957 26.945C13.4106 28.3516 12.3613 30.0731 12.3613 32.6343C12.3613 36.854 15.7821 40.0661 20.0003 40.0661C24.2186 40.0661 27.6393 36.854 27.6393 32.6343C27.6393 30.0731 26.59 28.3516 25.2049 26.945L20.0003 21.8855Z" fill="#005A27"/>
    <path d="M20.0003 0.072998C15.7821 0.072998 12.3613 3.28504 12.3613 7.50478C12.3613 10.066 13.4106 11.7875 14.7957 13.1941L20.0003 18.2536L25.2049 13.1941C26.59 11.7875 27.6393 10.066 27.6393 7.50478C27.6393 3.28504 24.2186 0.072998 20.0003 0.072998Z" fill="#5FAF2C"/>
</svg>
