<svg width="56" height="50" viewBox="0 0 56 50" fill="none" xmlns="http://www.w3.org/2000/svg">
    <g clip-path="url(#clip0_485_671)">
        <mask id="path-1-outside-1_485_671" maskUnits="userSpaceOnUse" x="0.455078" y="0.126465" width="55" height="50" fill="black">
            <rect fill="white" x="0.455078" y="0.126465" width="55" height="50"/>
            <path fill-rule="evenodd" clip-rule="evenodd" d="M54.4798 15.0927C54.0461 11.5404 52.7724 8.14271 50.7643 5.18103C49.8084 4.07166 48.7413 3.0634 47.5795 2.17213C45.6333 0.756175 16.5282 0.866796 9.4731 1.97301C9.29017 2.01687 9.13033 2.12773 9.0251 2.2837C8.91987 2.43968 8.8769 2.62944 8.90467 2.81555C8.93243 3.00167 9.02892 3.17061 9.17509 3.28905C9.32127 3.40748 9.5065 3.46682 9.69426 3.45534C11.3751 3.23409 13.8521 3.07922 16.7051 2.99073C15.5515 6.3094 14.8088 9.75698 14.4935 13.2564L11.1539 14.0307C8.61056 14.252 6.24411 13.6325 3.61227 14.1856C4.56312 10.8656 5.79121 7.63149 7.28358 4.5173C7.32034 4.35915 7.29788 4.19301 7.22044 4.05032C7.14301 3.90762 7.01597 3.79827 6.86337 3.74295C6.31046 3.54383 5.91237 3.94207 5.1383 5.75626C3.34687 9.8935 1.20159 14.0307 1.6218 18.3007C2.24106 24.761 10.0924 26.177 13.9627 20.8008L14.4935 20.0043C14.5213 20.7901 14.7069 21.5623 15.0391 22.275C15.3713 22.9876 15.8435 23.6261 16.4274 24.1524C17.0114 24.6788 17.6952 25.0823 18.4382 25.3389C19.1812 25.5954 19.9682 25.6999 20.7524 25.646C22.3019 25.586 23.8064 25.1081 25.1067 24.263C26.407 23.4179 27.4548 22.2369 28.1393 20.845C30.7048 26.8186 38.7109 28.677 41.21 20.845C42.2111 22.186 43.6353 23.1498 45.2521 23.5804C46.8688 24.0111 48.5835 23.8833 50.1187 23.2178C51.6538 22.5524 52.9195 21.3881 53.711 19.9136C54.5025 18.439 54.7734 16.7404 54.4798 15.0927ZM38.2022 3.23409C38.244 6.6256 38.51 10.0106 38.9984 13.367C37.207 13.367 30.7711 13.2121 29.3557 13.1458C29.61 9.75077 29.61 6.34148 29.3557 2.94648C32.4962 2.9686 35.5482 3.10135 38.2022 3.23409ZM18.2975 2.9686H27.9402C27.3558 6.30048 27.0451 9.67465 27.0113 13.0573C21.3053 12.6812 19.5581 12.2608 16.9926 12.7697C17.3686 10.7785 18.2975 2.9686 18.2975 2.9686ZM13.8742 17.2609C12.503 19.3406 11.6626 21.1769 9.45098 21.9955C8.79089 22.2886 8.06908 22.4156 7.34861 22.3654C6.62814 22.3152 5.93093 22.0892 5.31788 21.7073C4.70483 21.3253 4.19459 20.7991 3.83173 20.1744C3.46888 19.5497 3.26444 18.8457 3.23629 18.1237C3.12639 17.2644 3.12639 16.3945 3.23629 15.5352C3.29477 15.546 3.35474 15.546 3.41322 15.5352C5.77967 15.1148 8.69902 15.9556 11.2866 15.8007L14.2945 15.4246C14.3281 16.047 14.2145 16.6686 13.9627 17.2388L13.8742 17.2609ZM25.7286 20.2255C23.8487 23.5221 19.0937 24.4955 17.3907 21.7742C16.4278 19.7035 16.1118 17.3903 16.484 15.137C20.4649 14.6281 21.1505 15.2697 27.0556 15.4688C27.1662 17.3494 27.4094 16.4423 25.7286 20.2255ZM35.9463 23.4557C34.8294 23.4914 33.7262 23.2007 32.7717 22.6191C31.8173 22.0376 31.0529 21.1905 30.5721 20.1813C30.0634 19.2742 29.8643 17.8361 28.9576 16.9733C28.7585 16.8626 28.7585 17.1281 28.9576 15.5794C32.3414 15.5794 34.8848 15.5794 39.308 15.3361C39.8167 17.991 38.4013 23.0796 35.9242 23.4557H35.9463ZM51.5826 18.4556C51.241 19.1392 50.7472 19.7354 50.1393 20.1983C49.5315 20.6612 48.8256 20.9786 48.0759 21.126C47.3263 21.2734 46.5528 21.247 45.815 21.0487C45.0772 20.8504 44.3946 20.4855 43.8198 19.9822C42.4088 18.7806 41.527 17.072 41.3648 15.2255L46.5843 15.0042C46.7837 15.0042 46.975 14.925 47.116 14.7839C47.257 14.6428 47.3362 14.4515 47.3362 14.252C47.3362 14.0525 47.257 13.8611 47.116 13.7201C46.975 13.579 46.7837 13.4998 46.5843 13.4998H41.3206C41.1228 10.0971 40.6119 6.71995 39.7946 3.41109C42.0062 3.54383 43.7092 3.67658 44.9477 3.83145C45.5891 3.83145 46.2083 4.31818 46.341 4.11906C48.4275 5.57412 49.9809 7.67197 50.7643 10.0926C51.6932 12.8139 52.7326 15.7564 51.5826 18.4556Z"/>
            <path fill-rule="evenodd" clip-rule="evenodd" d="M8.14445 30.5131C8.02545 30.4376 7.8894 30.3933 7.74881 30.3842C7.60821 30.3751 7.46758 30.4015 7.33985 30.461C7.21213 30.5205 7.1014 30.6111 7.01784 30.7246C6.93429 30.8381 6.8806 30.9708 6.86171 31.1105C6.86171 31.2874 6.24245 37.2168 6.33092 38.8318C6.33092 39.761 6.33092 40.7124 7.14922 41.1991C10.8648 43.2124 15.3323 41.9071 19.0036 42.3275C20.7065 42.4823 23.1393 42.9691 24.1567 41.4646C24.8644 40.4248 24.2894 38.6548 24.2673 37.7477C24.2673 34.1857 24.8644 28.6104 22.0556 28.2785C22.0556 28.2785 15.4207 28.4113 13.386 28.1237C11.7699 28.1026 10.1554 28.236 8.56466 28.5219C8.41511 28.5764 8.28918 28.6813 8.20847 28.8186C8.12776 28.9558 8.09731 29.1169 8.12234 29.2741C8.29927 30.7122 10.7763 29.2741 13.1206 29.8272C13.7178 29.8272 14.3149 30.0042 14.912 30.0706C14.7572 31.1105 14.5582 32.8804 14.514 34.1636C12.3415 34.1486 10.1723 34.3337 8.03387 34.7167V34.0087C8.2108 30.2919 8.27715 30.7122 8.14445 30.5131ZM22.1662 40.1372C22.0556 40.4469 19.6671 39.8495 19.2468 39.8053H16.5708C16.7401 38.7508 16.8436 37.6868 16.8804 36.6194C21.4585 36.3097 21.4364 36.4867 21.7681 36.4203C21.6347 37.6735 21.7705 38.9407 22.1662 40.1372ZM21.7018 30.5131C21.9155 31.9406 21.9748 33.3871 21.8787 34.8273C20.2387 34.4557 18.562 34.2702 16.8804 34.2742C16.7481 32.8984 16.5339 31.5316 16.239 30.1812C21.1267 30.5131 21.3037 30.9113 21.7018 30.5131ZM14.6688 36.6858C14.6688 37.1946 14.8015 37.7256 14.8457 38.2345C15.1111 39.9159 15.1111 39.7832 15.0669 39.9823C12.719 40.3895 10.3078 40.2302 8.03387 39.5177V36.0663C8.23292 36.1548 13.4966 36.6415 14.6688 36.6858Z"/>
            <path fill-rule="evenodd" clip-rule="evenodd" d="M33.9099 39.1636C31.9858 38.2565 31.6983 43.8097 33.357 43.8097C33.5564 43.8097 33.7477 43.7304 33.8887 43.5894C34.0297 43.4483 34.109 43.257 34.109 43.0575C34.9052 40.5795 34.0869 39.2521 33.9099 39.1636Z"/>
            <path fill-rule="evenodd" clip-rule="evenodd" d="M30.3043 44.6727C30.5034 42.4603 30.7245 39.6948 31.1005 37.4824C31.2945 36.1203 31.9792 34.8762 33.026 33.9838C34.0727 33.0915 35.4094 32.6126 36.7844 32.6371C41.8712 32.4823 42.026 38.1903 42.6674 42.7922C42.9549 45.1152 45.078 45.6462 44.879 42.7922C44.6799 39.9381 44.1934 38.1682 44.0828 37.7478C43.6723 35.5562 42.6791 33.5156 41.2077 31.8407C39.8129 30.6954 38.0521 30.0918 36.2483 30.1406C34.4446 30.1893 32.7189 30.8872 31.388 32.1062C28.8447 34.3186 28.5571 36.9071 28.2254 40.093C28.0485 41.7523 28.3802 41.9072 28.2254 43.1683C27.9379 45.4913 29.7293 46.5533 30.3043 44.6727Z"/>
            <path fill-rule="evenodd" clip-rule="evenodd" d="M53.571 34.6505C53.394 30.6018 52.7527 28.1902 52.7084 24.0972C52.7084 23.8977 52.6292 23.7064 52.4882 23.5653C52.3472 23.4243 52.1559 23.345 51.9565 23.345C51.757 23.345 51.5658 23.4243 51.4248 23.5653C51.2837 23.7064 51.2045 23.8977 51.2045 24.0972C51.2045 28.2566 52.7748 40.0488 51.3372 44.6728C51.3372 44.9825 50.6295 45.8896 50.8949 46.133C50.6737 46.133 18.5608 46.7525 14.226 46.7746C12.0144 46.7746 5.57854 46.7746 3.65442 46.5091C3.05728 36.6859 2.96882 42.925 3.05728 23.2344C3.05728 23.0584 2.98738 22.8895 2.86295 22.7651C2.73852 22.6406 2.56976 22.5707 2.39379 22.5707C2.21782 22.5707 2.04906 22.6406 1.92464 22.7651C1.80021 22.8895 1.7303 23.0584 1.7303 23.2344C1.7303 27.3495 1.11105 39.4072 1.7303 43.1462C1.7303 43.987 1.59761 47.0844 2.21686 47.9472C4.0304 50.4472 50.342 48.2569 50.6737 48.2348C53.1508 48.0136 52.8854 46.5976 53.3056 45.2923C53.7037 43.4781 53.8585 41.4648 53.571 34.6505Z"/>
        </mask>
        <path fill-rule="evenodd" clip-rule="evenodd" d="M54.4798 15.0927C54.0461 11.5404 52.7724 8.14271 50.7643 5.18103C49.8084 4.07166 48.7413 3.0634 47.5795 2.17213C45.6333 0.756175 16.5282 0.866796 9.4731 1.97301C9.29017 2.01687 9.13033 2.12773 9.0251 2.2837C8.91987 2.43968 8.8769 2.62944 8.90467 2.81555C8.93243 3.00167 9.02892 3.17061 9.17509 3.28905C9.32127 3.40748 9.5065 3.46682 9.69426 3.45534C11.3751 3.23409 13.8521 3.07922 16.7051 2.99073C15.5515 6.3094 14.8088 9.75698 14.4935 13.2564L11.1539 14.0307C8.61056 14.252 6.24411 13.6325 3.61227 14.1856C4.56312 10.8656 5.79121 7.63149 7.28358 4.5173C7.32034 4.35915 7.29788 4.19301 7.22044 4.05032C7.14301 3.90762 7.01597 3.79827 6.86337 3.74295C6.31046 3.54383 5.91237 3.94207 5.1383 5.75626C3.34687 9.8935 1.20159 14.0307 1.6218 18.3007C2.24106 24.761 10.0924 26.177 13.9627 20.8008L14.4935 20.0043C14.5213 20.7901 14.7069 21.5623 15.0391 22.275C15.3713 22.9876 15.8435 23.6261 16.4274 24.1524C17.0114 24.6788 17.6952 25.0823 18.4382 25.3389C19.1812 25.5954 19.9682 25.6999 20.7524 25.646C22.3019 25.586 23.8064 25.1081 25.1067 24.263C26.407 23.4179 27.4548 22.2369 28.1393 20.845C30.7048 26.8186 38.7109 28.677 41.21 20.845C42.2111 22.186 43.6353 23.1498 45.2521 23.5804C46.8688 24.0111 48.5835 23.8833 50.1187 23.2178C51.6538 22.5524 52.9195 21.3881 53.711 19.9136C54.5025 18.439 54.7734 16.7404 54.4798 15.0927ZM38.2022 3.23409C38.244 6.6256 38.51 10.0106 38.9984 13.367C37.207 13.367 30.7711 13.2121 29.3557 13.1458C29.61 9.75077 29.61 6.34148 29.3557 2.94648C32.4962 2.9686 35.5482 3.10135 38.2022 3.23409ZM18.2975 2.9686H27.9402C27.3558 6.30048 27.0451 9.67465 27.0113 13.0573C21.3053 12.6812 19.5581 12.2608 16.9926 12.7697C17.3686 10.7785 18.2975 2.9686 18.2975 2.9686ZM13.8742 17.2609C12.503 19.3406 11.6626 21.1769 9.45098 21.9955C8.79089 22.2886 8.06908 22.4156 7.34861 22.3654C6.62814 22.3152 5.93093 22.0892 5.31788 21.7073C4.70483 21.3253 4.19459 20.7991 3.83173 20.1744C3.46888 19.5497 3.26444 18.8457 3.23629 18.1237C3.12639 17.2644 3.12639 16.3945 3.23629 15.5352C3.29477 15.546 3.35474 15.546 3.41322 15.5352C5.77967 15.1148 8.69902 15.9556 11.2866 15.8007L14.2945 15.4246C14.3281 16.047 14.2145 16.6686 13.9627 17.2388L13.8742 17.2609ZM25.7286 20.2255C23.8487 23.5221 19.0937 24.4955 17.3907 21.7742C16.4278 19.7035 16.1118 17.3903 16.484 15.137C20.4649 14.6281 21.1505 15.2697 27.0556 15.4688C27.1662 17.3494 27.4094 16.4423 25.7286 20.2255ZM35.9463 23.4557C34.8294 23.4914 33.7262 23.2007 32.7717 22.6191C31.8173 22.0376 31.0529 21.1905 30.5721 20.1813C30.0634 19.2742 29.8643 17.8361 28.9576 16.9733C28.7585 16.8626 28.7585 17.1281 28.9576 15.5794C32.3414 15.5794 34.8848 15.5794 39.308 15.3361C39.8167 17.991 38.4013 23.0796 35.9242 23.4557H35.9463ZM51.5826 18.4556C51.241 19.1392 50.7472 19.7354 50.1393 20.1983C49.5315 20.6612 48.8256 20.9786 48.0759 21.126C47.3263 21.2734 46.5528 21.247 45.815 21.0487C45.0772 20.8504 44.3946 20.4855 43.8198 19.9822C42.4088 18.7806 41.527 17.072 41.3648 15.2255L46.5843 15.0042C46.7837 15.0042 46.975 14.925 47.116 14.7839C47.257 14.6428 47.3362 14.4515 47.3362 14.252C47.3362 14.0525 47.257 13.8611 47.116 13.7201C46.975 13.579 46.7837 13.4998 46.5843 13.4998H41.3206C41.1228 10.0971 40.6119 6.71995 39.7946 3.41109C42.0062 3.54383 43.7092 3.67658 44.9477 3.83145C45.5891 3.83145 46.2083 4.31818 46.341 4.11906C48.4275 5.57412 49.9809 7.67197 50.7643 10.0926C51.6932 12.8139 52.7326 15.7564 51.5826 18.4556Z" fill="#346EBD"/>
        <path fill-rule="evenodd" clip-rule="evenodd" d="M8.14445 30.5131C8.02545 30.4376 7.8894 30.3933 7.74881 30.3842C7.60821 30.3751 7.46758 30.4015 7.33985 30.461C7.21213 30.5205 7.1014 30.6111 7.01784 30.7246C6.93429 30.8381 6.8806 30.9708 6.86171 31.1105C6.86171 31.2874 6.24245 37.2168 6.33092 38.8318C6.33092 39.761 6.33092 40.7124 7.14922 41.1991C10.8648 43.2124 15.3323 41.9071 19.0036 42.3275C20.7065 42.4823 23.1393 42.9691 24.1567 41.4646C24.8644 40.4248 24.2894 38.6548 24.2673 37.7477C24.2673 34.1857 24.8644 28.6104 22.0556 28.2785C22.0556 28.2785 15.4207 28.4113 13.386 28.1237C11.7699 28.1026 10.1554 28.236 8.56466 28.5219C8.41511 28.5764 8.28918 28.6813 8.20847 28.8186C8.12776 28.9558 8.09731 29.1169 8.12234 29.2741C8.29927 30.7122 10.7763 29.2741 13.1206 29.8272C13.7178 29.8272 14.3149 30.0042 14.912 30.0706C14.7572 31.1105 14.5582 32.8804 14.514 34.1636C12.3415 34.1486 10.1723 34.3337 8.03387 34.7167V34.0087C8.2108 30.2919 8.27715 30.7122 8.14445 30.5131ZM22.1662 40.1372C22.0556 40.4469 19.6671 39.8495 19.2468 39.8053H16.5708C16.7401 38.7508 16.8436 37.6868 16.8804 36.6194C21.4585 36.3097 21.4364 36.4867 21.7681 36.4203C21.6347 37.6735 21.7705 38.9407 22.1662 40.1372ZM21.7018 30.5131C21.9155 31.9406 21.9748 33.3871 21.8787 34.8273C20.2387 34.4557 18.562 34.2702 16.8804 34.2742C16.7481 32.8984 16.5339 31.5316 16.239 30.1812C21.1267 30.5131 21.3037 30.9113 21.7018 30.5131ZM14.6688 36.6858C14.6688 37.1946 14.8015 37.7256 14.8457 38.2345C15.1111 39.9159 15.1111 39.7832 15.0669 39.9823C12.719 40.3895 10.3078 40.2302 8.03387 39.5177V36.0663C8.23292 36.1548 13.4966 36.6415 14.6688 36.6858Z" fill="#346EBD"/>
        <path fill-rule="evenodd" clip-rule="evenodd" d="M33.9099 39.1636C31.9858 38.2565 31.6983 43.8097 33.357 43.8097C33.5564 43.8097 33.7477 43.7304 33.8887 43.5894C34.0297 43.4483 34.109 43.257 34.109 43.0575C34.9052 40.5795 34.0869 39.2521 33.9099 39.1636Z" fill="#346EBD"/>
        <path fill-rule="evenodd" clip-rule="evenodd" d="M30.3043 44.6727C30.5034 42.4603 30.7245 39.6948 31.1005 37.4824C31.2945 36.1203 31.9792 34.8762 33.026 33.9838C34.0727 33.0915 35.4094 32.6126 36.7844 32.6371C41.8712 32.4823 42.026 38.1903 42.6674 42.7922C42.9549 45.1152 45.078 45.6462 44.879 42.7922C44.6799 39.9381 44.1934 38.1682 44.0828 37.7478C43.6723 35.5562 42.6791 33.5156 41.2077 31.8407C39.8129 30.6954 38.0521 30.0918 36.2483 30.1406C34.4446 30.1893 32.7189 30.8872 31.388 32.1062C28.8447 34.3186 28.5571 36.9071 28.2254 40.093C28.0485 41.7523 28.3802 41.9072 28.2254 43.1683C27.9379 45.4913 29.7293 46.5533 30.3043 44.6727Z" fill="#346EBD"/>
        <path fill-rule="evenodd" clip-rule="evenodd" d="M53.571 34.6505C53.394 30.6018 52.7527 28.1902 52.7084 24.0972C52.7084 23.8977 52.6292 23.7064 52.4882 23.5653C52.3472 23.4243 52.1559 23.345 51.9565 23.345C51.757 23.345 51.5658 23.4243 51.4248 23.5653C51.2837 23.7064 51.2045 23.8977 51.2045 24.0972C51.2045 28.2566 52.7748 40.0488 51.3372 44.6728C51.3372 44.9825 50.6295 45.8896 50.8949 46.133C50.6737 46.133 18.5608 46.7525 14.226 46.7746C12.0144 46.7746 5.57854 46.7746 3.65442 46.5091C3.05728 36.6859 2.96882 42.925 3.05728 23.2344C3.05728 23.0584 2.98738 22.8895 2.86295 22.7651C2.73852 22.6406 2.56976 22.5707 2.39379 22.5707C2.21782 22.5707 2.04906 22.6406 1.92464 22.7651C1.80021 22.8895 1.7303 23.0584 1.7303 23.2344C1.7303 27.3495 1.11105 39.4072 1.7303 43.1462C1.7303 43.987 1.59761 47.0844 2.21686 47.9472C4.0304 50.4472 50.342 48.2569 50.6737 48.2348C53.1508 48.0136 52.8854 46.5976 53.3056 45.2923C53.7037 43.4781 53.8585 41.4648 53.571 34.6505Z" fill="#346EBD"/>
        <path fill-rule="evenodd" clip-rule="evenodd" d="M54.4798 15.0927C54.0461 11.5404 52.7724 8.14271 50.7643 5.18103C49.8084 4.07166 48.7413 3.0634 47.5795 2.17213C45.6333 0.756175 16.5282 0.866796 9.4731 1.97301C9.29017 2.01687 9.13033 2.12773 9.0251 2.2837C8.91987 2.43968 8.8769 2.62944 8.90467 2.81555C8.93243 3.00167 9.02892 3.17061 9.17509 3.28905C9.32127 3.40748 9.5065 3.46682 9.69426 3.45534C11.3751 3.23409 13.8521 3.07922 16.7051 2.99073C15.5515 6.3094 14.8088 9.75698 14.4935 13.2564L11.1539 14.0307C8.61056 14.252 6.24411 13.6325 3.61227 14.1856C4.56312 10.8656 5.79121 7.63149 7.28358 4.5173C7.32034 4.35915 7.29788 4.19301 7.22044 4.05032C7.14301 3.90762 7.01597 3.79827 6.86337 3.74295C6.31046 3.54383 5.91237 3.94207 5.1383 5.75626C3.34687 9.8935 1.20159 14.0307 1.6218 18.3007C2.24106 24.761 10.0924 26.177 13.9627 20.8008L14.4935 20.0043C14.5213 20.7901 14.7069 21.5623 15.0391 22.275C15.3713 22.9876 15.8435 23.6261 16.4274 24.1524C17.0114 24.6788 17.6952 25.0823 18.4382 25.3389C19.1812 25.5954 19.9682 25.6999 20.7524 25.646C22.3019 25.586 23.8064 25.1081 25.1067 24.263C26.407 23.4179 27.4548 22.2369 28.1393 20.845C30.7048 26.8186 38.7109 28.677 41.21 20.845C42.2111 22.186 43.6353 23.1498 45.2521 23.5804C46.8688 24.0111 48.5835 23.8833 50.1187 23.2178C51.6538 22.5524 52.9195 21.3881 53.711 19.9136C54.5025 18.439 54.7734 16.7404 54.4798 15.0927ZM38.2022 3.23409C38.244 6.6256 38.51 10.0106 38.9984 13.367C37.207 13.367 30.7711 13.2121 29.3557 13.1458C29.61 9.75077 29.61 6.34148 29.3557 2.94648C32.4962 2.9686 35.5482 3.10135 38.2022 3.23409ZM18.2975 2.9686H27.9402C27.3558 6.30048 27.0451 9.67465 27.0113 13.0573C21.3053 12.6812 19.5581 12.2608 16.9926 12.7697C17.3686 10.7785 18.2975 2.9686 18.2975 2.9686ZM13.8742 17.2609C12.503 19.3406 11.6626 21.1769 9.45098 21.9955C8.79089 22.2886 8.06908 22.4156 7.34861 22.3654C6.62814 22.3152 5.93093 22.0892 5.31788 21.7073C4.70483 21.3253 4.19459 20.7991 3.83173 20.1744C3.46888 19.5497 3.26444 18.8457 3.23629 18.1237C3.12639 17.2644 3.12639 16.3945 3.23629 15.5352C3.29477 15.546 3.35474 15.546 3.41322 15.5352C5.77967 15.1148 8.69902 15.9556 11.2866 15.8007L14.2945 15.4246C14.3281 16.047 14.2145 16.6686 13.9627 17.2388L13.8742 17.2609ZM25.7286 20.2255C23.8487 23.5221 19.0937 24.4955 17.3907 21.7742C16.4278 19.7035 16.1118 17.3903 16.484 15.137C20.4649 14.6281 21.1505 15.2697 27.0556 15.4688C27.1662 17.3494 27.4094 16.4423 25.7286 20.2255ZM35.9463 23.4557C34.8294 23.4914 33.7262 23.2007 32.7717 22.6191C31.8173 22.0376 31.0529 21.1905 30.5721 20.1813C30.0634 19.2742 29.8643 17.8361 28.9576 16.9733C28.7585 16.8626 28.7585 17.1281 28.9576 15.5794C32.3414 15.5794 34.8848 15.5794 39.308 15.3361C39.8167 17.991 38.4013 23.0796 35.9242 23.4557H35.9463ZM51.5826 18.4556C51.241 19.1392 50.7472 19.7354 50.1393 20.1983C49.5315 20.6612 48.8256 20.9786 48.0759 21.126C47.3263 21.2734 46.5528 21.247 45.815 21.0487C45.0772 20.8504 44.3946 20.4855 43.8198 19.9822C42.4088 18.7806 41.527 17.072 41.3648 15.2255L46.5843 15.0042C46.7837 15.0042 46.975 14.925 47.116 14.7839C47.257 14.6428 47.3362 14.4515 47.3362 14.252C47.3362 14.0525 47.257 13.8611 47.116 13.7201C46.975 13.579 46.7837 13.4998 46.5843 13.4998H41.3206C41.1228 10.0971 40.6119 6.71995 39.7946 3.41109C42.0062 3.54383 43.7092 3.67658 44.9477 3.83145C45.5891 3.83145 46.2083 4.31818 46.341 4.11906C48.4275 5.57412 49.9809 7.67197 50.7643 10.0926C51.6932 12.8139 52.7326 15.7564 51.5826 18.4556Z" stroke="#346EBD" stroke-width="1.2" mask="url(#path-1-outside-1_485_671)"/>
        <path fill-rule="evenodd" clip-rule="evenodd" d="M8.14445 30.5131C8.02545 30.4376 7.8894 30.3933 7.74881 30.3842C7.60821 30.3751 7.46758 30.4015 7.33985 30.461C7.21213 30.5205 7.1014 30.6111 7.01784 30.7246C6.93429 30.8381 6.8806 30.9708 6.86171 31.1105C6.86171 31.2874 6.24245 37.2168 6.33092 38.8318C6.33092 39.761 6.33092 40.7124 7.14922 41.1991C10.8648 43.2124 15.3323 41.9071 19.0036 42.3275C20.7065 42.4823 23.1393 42.9691 24.1567 41.4646C24.8644 40.4248 24.2894 38.6548 24.2673 37.7477C24.2673 34.1857 24.8644 28.6104 22.0556 28.2785C22.0556 28.2785 15.4207 28.4113 13.386 28.1237C11.7699 28.1026 10.1554 28.236 8.56466 28.5219C8.41511 28.5764 8.28918 28.6813 8.20847 28.8186C8.12776 28.9558 8.09731 29.1169 8.12234 29.2741C8.29927 30.7122 10.7763 29.2741 13.1206 29.8272C13.7178 29.8272 14.3149 30.0042 14.912 30.0706C14.7572 31.1105 14.5582 32.8804 14.514 34.1636C12.3415 34.1486 10.1723 34.3337 8.03387 34.7167V34.0087C8.2108 30.2919 8.27715 30.7122 8.14445 30.5131ZM22.1662 40.1372C22.0556 40.4469 19.6671 39.8495 19.2468 39.8053H16.5708C16.7401 38.7508 16.8436 37.6868 16.8804 36.6194C21.4585 36.3097 21.4364 36.4867 21.7681 36.4203C21.6347 37.6735 21.7705 38.9407 22.1662 40.1372ZM21.7018 30.5131C21.9155 31.9406 21.9748 33.3871 21.8787 34.8273C20.2387 34.4557 18.562 34.2702 16.8804 34.2742C16.7481 32.8984 16.5339 31.5316 16.239 30.1812C21.1267 30.5131 21.3037 30.9113 21.7018 30.5131ZM14.6688 36.6858C14.6688 37.1946 14.8015 37.7256 14.8457 38.2345C15.1111 39.9159 15.1111 39.7832 15.0669 39.9823C12.719 40.3895 10.3078 40.2302 8.03387 39.5177V36.0663C8.23292 36.1548 13.4966 36.6415 14.6688 36.6858Z" stroke="#346EBD" stroke-width="1.2" mask="url(#path-1-outside-1_485_671)"/>
        <path fill-rule="evenodd" clip-rule="evenodd" d="M33.9099 39.1636C31.9858 38.2565 31.6983 43.8097 33.357 43.8097C33.5564 43.8097 33.7477 43.7304 33.8887 43.5894C34.0297 43.4483 34.109 43.257 34.109 43.0575C34.9052 40.5795 34.0869 39.2521 33.9099 39.1636Z" stroke="#346EBD" stroke-width="1.2" mask="url(#path-1-outside-1_485_671)"/>
        <path fill-rule="evenodd" clip-rule="evenodd" d="M30.3043 44.6727C30.5034 42.4603 30.7245 39.6948 31.1005 37.4824C31.2945 36.1203 31.9792 34.8762 33.026 33.9838C34.0727 33.0915 35.4094 32.6126 36.7844 32.6371C41.8712 32.4823 42.026 38.1903 42.6674 42.7922C42.9549 45.1152 45.078 45.6462 44.879 42.7922C44.6799 39.9381 44.1934 38.1682 44.0828 37.7478C43.6723 35.5562 42.6791 33.5156 41.2077 31.8407C39.8129 30.6954 38.0521 30.0918 36.2483 30.1406C34.4446 30.1893 32.7189 30.8872 31.388 32.1062C28.8447 34.3186 28.5571 36.9071 28.2254 40.093C28.0485 41.7523 28.3802 41.9072 28.2254 43.1683C27.9379 45.4913 29.7293 46.5533 30.3043 44.6727Z" stroke="#346EBD" stroke-width="1.2" mask="url(#path-1-outside-1_485_671)"/>
        <path fill-rule="evenodd" clip-rule="evenodd" d="M53.571 34.6505C53.394 30.6018 52.7527 28.1902 52.7084 24.0972C52.7084 23.8977 52.6292 23.7064 52.4882 23.5653C52.3472 23.4243 52.1559 23.345 51.9565 23.345C51.757 23.345 51.5658 23.4243 51.4248 23.5653C51.2837 23.7064 51.2045 23.8977 51.2045 24.0972C51.2045 28.2566 52.7748 40.0488 51.3372 44.6728C51.3372 44.9825 50.6295 45.8896 50.8949 46.133C50.6737 46.133 18.5608 46.7525 14.226 46.7746C12.0144 46.7746 5.57854 46.7746 3.65442 46.5091C3.05728 36.6859 2.96882 42.925 3.05728 23.2344C3.05728 23.0584 2.98738 22.8895 2.86295 22.7651C2.73852 22.6406 2.56976 22.5707 2.39379 22.5707C2.21782 22.5707 2.04906 22.6406 1.92464 22.7651C1.80021 22.8895 1.7303 23.0584 1.7303 23.2344C1.7303 27.3495 1.11105 39.4072 1.7303 43.1462C1.7303 43.987 1.59761 47.0844 2.21686 47.9472C4.0304 50.4472 50.342 48.2569 50.6737 48.2348C53.1508 48.0136 52.8854 46.5976 53.3056 45.2923C53.7037 43.4781 53.8585 41.4648 53.571 34.6505Z" stroke="#346EBD" stroke-width="1.2" mask="url(#path-1-outside-1_485_671)"/>
    </g>
    <defs>
        <clipPath id="clip0_485_671">
            <rect width="56" height="50" fill="white"/>
        </clipPath>
    </defs>
</svg>
