<svg width="40" height="41" viewBox="0 0 40 41" fill="none" xmlns="http://www.w3.org/2000/svg">
    <rect y="0.0695801" width="40" height="40" rx="20" fill="#2DBE64"/>
    <path d="M29.6788 26.7992H20.0059V13.1416H28.8146C31.6577 13.1416 33.2012 14.9134 33.2012 17.0103C33.2012 17.9512 32.7271 18.9131 31.9995 19.6406C33.0716 20.2068 33.9908 21.4824 33.9908 22.8125C33.9908 25.1522 32.1643 26.7992 29.6788 26.7992ZM23.3818 24.0518H29.2193C30.0372 24.0518 30.5757 23.447 30.5757 22.7033V22.6816C30.5757 21.9382 30.0372 21.3331 29.2193 21.3331H23.3818V24.0518ZM23.3818 18.5857H28.3757C29.2597 18.5857 29.786 17.9809 29.786 17.2372C29.786 16.4938 29.2924 15.8888 28.3757 15.8888H23.3818V18.5857Z" fill="white"/>
    <path d="M14.0694 26.7992H6.92188V13.1416H13.2053C16.0484 13.1416 17.5919 14.9134 17.5919 17.0103C17.5919 17.9512 17.1177 18.9131 16.3902 19.6406C17.4623 20.2068 18.3815 21.4824 18.3815 22.8125C18.3815 25.1522 16.555 26.7992 14.0694 26.7992ZM10.2975 24.0518H13.61C14.4279 24.0518 14.9664 23.447 14.9664 22.7033V22.6816C14.9664 21.9382 14.4279 21.3331 13.61 21.3331H10.2975V24.0518ZM10.2975 18.5857H12.7664C13.6503 18.5857 14.1767 17.9809 14.1767 17.2372C14.1767 16.4938 13.6831 15.8888 12.7664 15.8888H10.2975V18.5857Z" fill="white"/>
</svg>
