<svg width="40" height="40" viewBox="0 0 40 40" fill="none" xmlns="http://www.w3.org/2000/svg">
    <g clip-path="url(#clip0_485_267)">
        <path d="M38.5435 16.4466L34.9585 12.8566V9.99326C34.9585 7.24159 32.7218 5.0016 29.9735 5.0016H27.1135L23.5285 1.41326C21.6435 -0.471738 18.3602 -0.471738 16.4768 1.41326L12.8918 5.0016H10.0318C7.28182 5.0016 5.04682 7.23993 5.04682 9.99326V12.8566L1.46016 16.4466C-0.48151 18.3933 -0.48151 21.5583 1.46016 23.5049L5.04516 27.0949V29.9583C5.04516 32.7099 7.28182 34.9499 10.0302 34.9499H12.8902L16.4752 38.5383C17.4168 39.4799 18.6702 39.9999 20.0018 39.9999C21.3335 39.9999 22.5852 39.4799 23.5268 38.5383L27.1118 34.9499H29.9718C32.7218 34.9499 34.9568 32.7116 34.9568 29.9583V27.0949L38.5435 23.5049C40.4852 21.5583 40.4852 18.3933 38.5435 16.4466ZM30.3402 17.0183L21.9168 25.3433C20.8935 26.3599 19.5452 26.8699 18.1985 26.8699C16.8518 26.8699 15.5102 26.3616 14.4835 25.3483L10.1518 21.1833C9.49849 20.5349 9.49182 19.4816 10.1402 18.8266C10.7902 18.1749 11.8418 18.1666 12.4985 18.8149L16.8285 22.9783C17.5835 23.7266 18.8118 23.7283 19.5685 22.9783L27.9935 14.6516C28.6502 14.0016 29.7035 14.0083 30.3518 14.6633C31.0002 15.3183 30.9935 16.3699 30.3402 17.0183Z"
              fill="#346EBD"/>
    </g>
    <defs>
        <clipPath id="clip0_485_267">
            <rect width="40" height="40" fill="white"/>
        </clipPath>
    </defs>
</svg>
