<svg width="40" height="40" viewBox="0 0 40 40" fill="none" xmlns="http://www.w3.org/2000/svg">
    <path d="M29.9997 10C29.6872 9.68755 29.2633 9.51202 28.8214 9.51202C28.3794 9.51202 27.9556 9.68755 27.643 10L19.9997 17.6433L12.3564 10C12.0438 9.68755 11.62 9.51202 11.178 9.51202C10.7361 9.51202 10.3122 9.68755 9.9997 10C9.68724 10.3125 9.51172 10.7364 9.51172 11.1783C9.51172 11.6203 9.68724 12.0441 9.9997 12.3567L17.643 20L9.9997 27.6433C9.68724 27.9559 9.51172 28.3797 9.51172 28.8217C9.51172 29.2636 9.68724 29.6875 9.9997 30C10.3122 30.3125 10.7361 30.488 11.178 30.488C11.62 30.488 12.0438 30.3125 12.3564 30L19.9997 22.3567L27.643 30C27.9556 30.3125 28.3794 30.488 28.8214 30.488C29.2633 30.488 29.6872 30.3125 29.9997 30C30.3122 29.6875 30.4877 29.2636 30.4877 28.8217C30.4877 28.3797 30.3122 27.9559 29.9997 27.6433L22.3564 20L29.9997 12.3567C30.3122 12.0441 30.4877 11.6203 30.4877 11.1783C30.4877 10.7364 30.3122 10.3125 29.9997 10Z" fill="black"/>
</svg>
