<svg width="136" height="84" viewBox="0 0 136 84" fill="none" xmlns="http://www.w3.org/2000/svg">
    <rect x="2.06024" y="20.6253" width="124" height="62" rx="15" transform="rotate(-8.60487 2.06024 20.6253)"
          stroke="#346EBD" stroke-width="2"/>
    <rect x="11.1677" y="27.3381" width="108" height="46" rx="11" transform="rotate(-8.60487 11.1677 27.3381)"
          stroke="#346EBD" stroke-width="2"/>
    <path d="M43.6182 53.9585C43.1686 54.0265 42.8019 53.9559 42.5181 53.7467C42.2466 53.5208 42.0768 53.1831 42.0088 52.7335L40.0964 40.0954C40.0261 39.6313 40.0956 39.2574 40.3049 38.9736C40.5141 38.6897 40.8507 38.5127 41.3148 38.4425L48.9933 37.2805C49.3849 37.2213 49.6975 37.2778 49.9313 37.4501C50.1628 37.6079 50.3071 37.8753 50.3642 38.2524C50.419 38.6149 50.3614 38.9203 50.1913 39.1686C50.019 39.4023 49.7371 39.5488 49.3455 39.6081L43.0156 40.5659L44.7931 52.3122C44.8611 52.7617 44.7989 53.1346 44.6063 53.4307C44.4116 53.7124 44.0822 53.8883 43.6182 53.9585ZM61.0447 51.366C59.5655 51.5898 58.2182 51.4599 57.0029 50.9763C55.802 50.4905 54.8082 49.7064 54.0213 48.6239C53.2323 47.527 52.7171 46.1809 52.4758 44.5857C52.2936 43.3821 52.3042 42.2754 52.5074 41.2656C52.7084 40.2414 53.0763 39.3402 53.6113 38.562C54.1585 37.7672 54.8543 37.1205 55.6985 36.6219C56.555 36.1066 57.5416 35.7645 58.6582 35.5955C60.1519 35.3695 61.4992 35.4994 62.7 35.9852C63.8987 36.4565 64.8915 37.2334 65.6783 38.3158C66.4651 39.3983 66.9792 40.7371 67.2206 42.3323C67.4027 43.5359 67.3933 44.6498 67.1923 45.6741C66.9912 46.6984 66.6171 47.6079 66.0699 48.4028C65.5371 49.1954 64.8425 49.8494 63.986 50.3646C63.1417 50.8632 62.1613 51.197 61.0447 51.366ZM60.6826 48.9732C61.6252 48.8306 62.3899 48.4924 62.9766 47.9586C63.5778 47.4226 63.9899 46.715 64.2129 45.8357C64.4504 44.9543 64.4824 43.9407 64.309 42.7951C64.0457 41.0549 63.4501 39.7655 62.5222 38.9269C61.6088 38.0861 60.4415 37.7732 59.0203 37.9883C58.0922 38.1287 57.3275 38.4669 56.7263 39.0029C56.1229 39.5244 55.7024 40.2259 55.465 41.1073C55.2398 41.9721 55.215 42.9845 55.3906 44.1447C55.6517 45.8704 56.2473 47.1597 57.1774 48.0129C58.1076 48.866 59.2759 49.1861 60.6826 48.9732ZM78.3847 48.742C76.7895 48.9834 75.3708 48.8718 74.1287 48.4071C72.8988 47.9257 71.8905 47.1437 71.1036 46.0613C70.3146 44.9643 69.7983 43.611 69.5548 42.0013C69.3726 40.7977 69.3832 39.691 69.5864 38.6812C69.7874 37.6569 70.1626 36.7546 70.712 35.9743C71.2593 35.1795 71.9768 34.5295 72.8645 34.0243C73.7646 33.5024 74.8091 33.1515 75.9983 32.9716C76.7959 32.8509 77.5943 32.8339 78.3936 32.9206C79.1929 33.0073 79.9111 33.1953 80.5482 33.4846C80.8813 33.627 81.1194 33.8283 81.2626 34.0885C81.4037 34.3342 81.4649 34.5919 81.4464 34.8617C81.4257 35.117 81.3342 35.3459 81.1721 35.5485C81.0244 35.7488 80.815 35.8844 80.5438 35.9551C80.285 36.0091 79.9807 35.9587 79.6309 35.804C79.1375 35.5819 78.6199 35.4452 78.0781 35.3937C77.5363 35.3422 76.9971 35.357 76.4605 35.4382C75.4309 35.594 74.5926 35.9359 73.9457 36.464C73.2988 36.9921 72.8544 37.6823 72.6125 38.5348C72.3707 39.3872 72.3375 40.3935 72.5131 41.5536C72.6864 42.6993 73.0158 43.6507 73.5013 44.4079C73.9867 45.1651 74.6165 45.7003 75.3907 46.0133C76.1649 46.3263 77.0669 46.4049 78.0965 46.2491C78.6475 46.1657 79.1815 46.0182 79.6983 45.8065C80.2129 45.5803 80.6875 45.2859 81.1222 44.9235C81.4127 44.6867 81.6834 44.5641 81.9343 44.5558C82.1975 44.5308 82.4282 44.5849 82.6264 44.7181C82.8245 44.8513 82.9713 45.0368 83.0666 45.2745C83.1597 45.4978 83.1825 45.7465 83.135 46.0207C83.0853 46.2804 82.9442 46.5242 82.7117 46.7522C82.1953 47.2606 81.5486 47.6922 80.7716 48.0471C80.0069 48.3853 79.2113 48.617 78.3847 48.742ZM90.9058 46.8028C90.4562 46.8709 90.0895 46.8003 89.8057 46.591C89.5342 46.3651 89.3644 46.0274 89.2964 45.5778L87.5189 33.8316L83.2772 34.4734C82.9001 34.5305 82.5875 34.474 82.3393 34.3038C82.1033 34.117 81.9579 33.8424 81.9031 33.4798C81.846 33.1028 81.9047 32.8047 82.0792 32.5854C82.266 32.3495 82.5479 32.203 82.925 32.1459L94.1927 30.4409C94.5697 30.3838 94.8751 30.4414 95.1089 30.6137C95.3549 30.7693 95.5065 31.0357 95.5635 31.4127C95.6184 31.7752 95.5535 32.0817 95.3689 32.3322C95.1966 32.5659 94.922 32.7113 94.5449 32.7684L90.3032 33.4102L92.0807 45.1565C92.1487 45.6061 92.0865 45.9789 91.8939 46.275C91.6992 46.5567 91.3698 46.7326 90.9058 46.8028Z"
          fill="#346EBD"/>
</svg>
