<svg width="25" height="139" viewBox="0 0 25 139" fill="none" xmlns="http://www.w3.org/2000/svg">
    <path d="M20.4553 128.862C20.0493 128.978 19.6813 129.2 19.3885 129.506C19.0957 129.812 18.8885 130.191 18.7877 130.605C18.4936 130.297 18.1246 130.072 17.7181 129.954C17.3115 129.835 16.8819 129.827 16.4724 129.93C15.8301 130.133 15.2949 130.584 14.9835 131.187C14.6722 131.789 14.6101 132.493 14.8109 133.144C15.2572 134.81 17.4775 136.165 19.2613 137.009C19.6597 137.198 20.1105 137.24 20.5344 137.126C20.9583 137.013 21.328 136.751 21.5786 136.388C22.7015 134.765 23.947 132.481 23.5007 130.815C23.349 130.15 22.9436 129.572 22.3729 129.206C21.8023 128.84 21.1129 128.717 20.4553 128.862Z" fill="#F68BA9"/>
    <path d="M17.2273 100.095C16.8071 100.136 16.4053 100.288 16.0625 100.537C15.7196 100.785 15.4479 101.121 15.2746 101.511C15.0404 101.155 14.7176 100.868 14.3389 100.678C13.9602 100.489 13.5389 100.403 13.1177 100.431C12.4495 100.516 11.8419 100.864 11.4278 101.401C11.0137 101.938 10.8267 102.619 10.9076 103.296C11.0483 105.015 12.9901 106.746 14.594 107.896C14.9521 108.153 15.3882 108.275 15.8256 108.239C16.2629 108.203 16.6735 108.012 16.985 107.7C18.3804 106.304 20.0147 104.28 19.8739 102.561C19.8436 101.88 19.5483 101.238 19.0524 100.776C18.5565 100.314 17.9003 100.069 17.2273 100.095Z" fill="#DF134D"/>
    <path d="M21.1464 68.6673C20.733 68.5818 20.304 68.6082 19.9029 68.7439C19.5017 68.8796 19.1425 69.1197 18.8617 69.44C18.7435 69.0306 18.5204 68.6605 18.215 68.3672C17.9095 68.0738 17.5325 67.8674 17.122 67.769C16.4588 67.6513 15.7752 67.8039 15.2206 68.1935C14.6659 68.5832 14.2852 69.1781 14.1617 69.8484C13.7862 71.532 15.1271 73.7615 16.3175 75.3359C16.5832 75.6879 16.9637 75.9333 17.392 76.0289C17.8203 76.1245 18.2689 76.0642 18.659 75.8585C20.4056 74.9397 22.5667 73.4919 22.9422 71.8083C23.1152 71.1491 23.0235 70.4487 22.687 69.8602C22.3505 69.2716 21.7967 68.8427 21.1464 68.6673Z" fill="#F3CED8"/>
    <path d="M8.56566 83.1736C8.08151 83.3424 7.65092 83.6375 7.31739 84.0291C6.98385 84.4207 6.75917 84.8949 6.66604 85.4039C6.28776 85.051 5.82462 84.8044 5.32341 84.6892C4.82219 84.5739 4.30063 84.594 3.81142 84.7475C3.04687 85.0384 2.42954 85.6239 2.09429 86.376C1.75905 87.128 1.73314 87.9855 2.02222 88.7612C2.68017 90.75 5.46727 92.2374 7.68934 93.1358C8.18566 93.3369 8.73515 93.3554 9.24111 93.1879C9.74707 93.0204 10.1771 92.6777 10.4554 92.22C11.7031 90.173 13.0531 87.3161 12.3951 85.3272C12.1646 84.5322 11.6324 83.8594 10.9149 83.4559C10.1974 83.0523 9.35277 82.9508 8.56566 83.1736Z" fill="#DF134D"/>
    <path d="M16.5657 26.1531C16.0815 26.3218 15.6509 26.6169 15.3174 27.0086C14.9839 27.4002 14.7592 27.8744 14.666 28.3834C14.2878 28.0305 13.8246 27.7839 13.3234 27.6687C12.8222 27.5534 12.3006 27.5735 11.8114 27.727C11.0469 28.0179 10.4295 28.6034 10.0943 29.3555C9.75905 30.1075 9.73314 30.965 10.0222 31.7407C10.6802 33.7295 13.4673 35.2169 15.6893 36.1153C16.1857 36.3164 16.7352 36.3349 17.2411 36.1674C17.7471 35.9999 18.1771 35.6572 18.4554 35.1995C19.7031 33.1525 21.0531 30.2955 20.3951 28.3067C20.1646 27.5117 19.6324 26.8389 18.9149 26.4354C18.1974 26.0318 17.3528 25.9303 16.5657 26.1531Z" fill="#FDB9CD"/>
    <path d="M15.1559 47.2818C14.4172 47.097 13.6422 47.1128 12.9092 47.3274C12.1761 47.5421 11.511 47.9481 10.981 48.5044C10.7985 47.7579 10.424 47.0744 9.89534 46.523C9.36667 45.9715 8.70254 45.5717 7.97003 45.3637C6.78365 45.1023 5.54036 45.3265 4.51181 45.9875C3.48325 46.6484 2.75303 47.6923 2.48068 48.8912C1.67887 51.8972 3.92966 56.0148 5.9581 58.9407C6.41075 59.5949 7.07817 60.0654 7.8429 60.2695C8.60763 60.4737 9.42067 60.3983 10.1389 60.0567C13.3548 58.5306 17.357 56.0821 18.1588 53.076C18.5197 51.9008 18.4064 50.6318 17.8438 49.5461C17.2811 48.4604 16.3147 47.6464 15.1559 47.2818Z" fill="#F24D7C"/>
    <path d="M15.8307 0.334625C15.07 0.367577 14.3315 0.603093 13.6897 1.01739C13.048 1.43168 12.5257 2.01009 12.1757 2.69419C11.7885 2.0304 11.2352 1.48164 10.5717 1.10331C9.90808 0.724989 9.15771 0.530503 8.39633 0.539495C7.1846 0.626271 6.05636 1.19487 5.2581 2.12108C4.45984 3.04728 4.05645 4.2558 4.13606 5.48261C4.2217 8.59266 7.54988 11.9002 10.3262 14.1284C10.9461 14.6268 11.7197 14.8881 12.5109 14.8663C13.3021 14.8445 14.0601 14.541 14.6516 14.0092C17.3011 11.6315 20.4422 8.14568 20.3566 5.03562C20.3686 3.80629 19.8993 2.62182 19.0512 1.74098C18.2032 0.860143 17.0454 0.354537 15.8307 0.334625Z" fill="#DF134D"/>
    <path d="M14.8848 115.23C14.3986 114.959 13.8487 114.823 13.2907 114.835C12.7326 114.848 12.1862 115.008 11.7066 115.3C11.7195 114.738 11.585 114.185 11.3166 113.695C11.0481 113.206 10.6554 112.797 10.1779 112.511C9.39034 112.102 8.47041 112.024 7.61912 112.295C6.76782 112.566 6.05437 113.164 5.63463 113.958C4.49821 115.927 5.30499 119.26 6.18107 121.71C6.37633 122.258 6.758 122.717 7.25892 123.006C7.75983 123.295 8.34789 123.397 8.9196 123.292C11.4787 122.826 14.7677 121.858 15.9041 119.889C16.3819 119.128 16.5428 118.211 16.3518 117.338C16.1608 116.465 15.6334 115.707 14.8848 115.23Z" fill="#F5A9BF"/>
</svg>
