<svg width="18" height="19" viewBox="0 0 18 19" fill="none" xmlns="http://www.w3.org/2000/svg">
    <path d="M8.01674 1.40546C8.49443 0.722651 9.50557 0.72265 9.98326 1.40546L10.9121 2.73307C11.2015 3.14672 11.7188 3.33502 12.2064 3.20416L13.7712 2.78417C14.5761 2.56817 15.3507 3.21811 15.2777 4.04823L15.1358 5.66225C15.0916 6.16515 15.3669 6.64194 15.8245 6.8551L17.2932 7.53925C18.0486 7.89112 18.2242 8.88689 17.6347 9.4759L16.4886 10.6211C16.1314 10.9779 16.0358 11.5201 16.2494 11.9776L16.9347 13.4457C17.2872 14.2008 16.7816 15.0765 15.9515 15.1488L14.3373 15.2894C13.8344 15.3331 13.4126 15.687 13.2822 16.1747L12.8635 17.7399C12.6481 18.5449 11.698 18.8908 11.0155 18.4125L9.68869 17.4826C9.27527 17.1929 8.72473 17.1929 8.31131 17.4826L6.98446 18.4125C6.30204 18.8908 5.35188 18.5449 5.13653 17.7399L4.71782 16.1747C4.58735 15.687 4.16561 15.3331 3.66268 15.2894L2.04854 15.1488C1.21836 15.0765 0.712796 14.2008 1.06528 13.4457L1.75062 11.9776C1.96416 11.5201 1.86856 10.9779 1.51144 10.6211L0.365291 9.4759C-0.224196 8.88689 -0.0486152 7.89112 0.706774 7.53925L2.17549 6.8551C2.63312 6.64194 2.90839 6.16515 2.86419 5.66225L2.72231 4.04823C2.64935 3.21811 3.42392 2.56817 4.22876 2.78417L5.79363 3.20416C6.28121 3.33502 6.79855 3.14672 7.08794 2.73307L8.01674 1.40546Z" fill="white"/>
</svg>
