<svg xmlns="http://www.w3.org/2000/svg" width="63" height="70" viewBox="0 0 63 70" fill="none"><path d="M48.2398 64.1309L54.955 68.4958C55.6203 68.9282 56.5 68.4508 56.5 67.6573V64.3333C56.5 63.597 57.097 63 57.8333 63C60.4107 63 62.5 60.9107 62.5 58.3333V45C62.5 41.134 59.366 38 55.5 38H36C32.134 38 29 41.134 29 45V56C29 59.866 32.134 63 36 63H44.4249C45.7792 63 47.1044 63.3928 48.2398 64.1309Z" fill="#DEECFE" stroke="#2A5289"/><path d="M15.2602 46.1309L8.54499 50.4958C7.87974 50.9282 7 50.4508 7 49.6573V46.3333C7 45.597 6.40305 45 5.66667 45C3.08934 45 1 42.9107 1 40.3333V27C1 23.134 4.13401 20 8 20H27.5C31.366 20 34.5 23.134 34.5 27V38C34.5 41.866 31.366 45 27.5 45H19.0751C17.7208 45 16.3956 45.3928 15.2602 46.1309Z" fill="#346EBD" stroke="#2A5289"/><path d="M45.2398 27.1309L51.955 31.4958C52.6203 31.9282 53.5 31.4508 53.5 30.6573V27.3333C53.5 26.597 54.097 26 54.8333 26C57.4107 26 59.5 23.9107 59.5 21.3333V8C59.5 4.13401 56.366 1 52.5 1H33C29.134 1 26 4.13401 26 8V19C26 22.866 29.134 26 33 26H41.4249C42.7792 26 44.1044 26.3928 45.2398 27.1309Z" fill="white" stroke="#2A5289"/><g clip-path="url(#clip0_684_695)"><path d="M49.2073 45.1182C48.5504 45.1284 47.9079 45.3117 47.3445 45.6497C46.7812 45.9877 46.317 46.4684 45.9989 47.0432C45.6808 46.4684 45.2166 45.9877 44.6533 45.6497C44.09 45.3117 43.4474 45.1284 42.7906 45.1182C41.7435 45.1637 40.7569 45.6217 40.0465 46.3923C39.336 47.1629 38.9594 48.1833 38.9989 49.2307C38.9989 51.8831 41.7908 54.7799 44.1323 56.744C44.655 57.1833 45.316 57.4242 45.9989 57.4242C46.6818 57.4242 47.3428 57.1833 47.8656 56.744C50.2071 54.7799 52.9989 51.8831 52.9989 49.2307C53.0384 48.1833 52.6618 47.1629 51.9514 46.3923C51.2409 45.6217 50.2544 45.1637 49.2073 45.1182Z" fill="#346EBD"/></g><g clip-path="url(#clip1_684_695)"><path d="M24.0625 30.625C24.3111 30.625 24.5496 30.5263 24.7254 30.3504C24.9012 30.1746 25 29.9362 25 29.6875C25 29.4389 24.9012 29.2004 24.7254 29.0246C24.5496 28.8488 24.3111 28.75 24.0625 28.75H21.795L22.1781 26.07C22.1955 25.9482 22.1887 25.824 22.1582 25.7048C22.1276 25.5855 22.0739 25.4734 22 25.3749C21.9261 25.2765 21.8335 25.1935 21.7276 25.1308C21.6216 25.068 21.5044 25.0268 21.3825 25.0094C21.2606 24.992 21.1365 24.9988 21.0172 25.0294C20.898 25.0599 20.7859 25.1137 20.6874 25.1876C20.5889 25.2614 20.5059 25.354 20.4432 25.4599C20.3805 25.5659 20.3393 25.6832 20.3219 25.805L19.9013 28.75H16.17L16.5531 26.07C16.5705 25.9482 16.5637 25.824 16.5332 25.7048C16.5026 25.5855 16.4489 25.4734 16.375 25.3749C16.3011 25.2765 16.2085 25.1935 16.1026 25.1308C15.9966 25.068 15.8794 25.0268 15.7575 25.0094C15.6356 24.992 15.5115 24.9988 15.3922 25.0294C15.273 25.0599 15.1609 25.1137 15.0624 25.1876C14.9639 25.2614 14.8809 25.354 14.8182 25.4599C14.7555 25.5659 14.7143 25.6832 14.6969 25.805L14.2763 28.75H11.5625C11.3139 28.75 11.0754 28.8488 10.8996 29.0246C10.7238 29.2004 10.625 29.4389 10.625 29.6875C10.625 29.9362 10.7238 30.1746 10.8996 30.3504C11.0754 30.5263 11.3139 30.625 11.5625 30.625H14.0081L13.4725 34.375H10.9375C10.6889 34.375 10.4504 34.4738 10.2746 34.6496C10.0988 34.8254 10 35.0639 10 35.3125C10 35.5612 10.0988 35.7996 10.2746 35.9754C10.4504 36.1513 10.6889 36.25 10.9375 36.25H13.205L12.8219 38.93C12.8045 39.0519 12.8113 39.176 12.8418 39.2953C12.8724 39.4146 12.9261 39.5266 13 39.6251C13.1492 39.824 13.3713 39.9555 13.6175 39.9907C13.8637 40.0258 14.1137 39.9617 14.3126 39.8125C14.4111 39.7386 14.4941 39.6461 14.5568 39.5401C14.6195 39.4342 14.6607 39.3169 14.6781 39.195L15.0987 36.25H18.83L18.4469 38.93C18.4117 39.1762 18.4758 39.4262 18.625 39.6251C18.7742 39.824 18.9963 39.9555 19.2425 39.9907C19.4887 40.0258 19.7387 39.9617 19.9376 39.8125C20.1365 39.6633 20.268 39.4412 20.3031 39.195L20.7238 36.25H23.4375C23.6861 36.25 23.9246 36.1513 24.1004 35.9754C24.2762 35.7996 24.375 35.5612 24.375 35.3125C24.375 35.0639 24.2762 34.8254 24.1004 34.6496C23.9246 34.4738 23.6861 34.375 23.4375 34.375H20.9919L21.5275 30.625H24.0625ZM19.0975 34.375H15.3669L15.9025 30.625H19.6331L19.0975 34.375Z" fill="white"/></g><g clip-path="url(#clip2_684_695)"><path d="M39.1216 18.4037H38.7133C37.7368 18.4037 36.8997 17.6687 36.7661 16.6945C36.6908 16.1456 36.6523 15.5279 36.6523 14.8576C36.6523 14.1874 36.6932 13.6151 36.7737 13.0644C36.9131 12.1148 37.7478 11.3984 38.7162 11.3984H39.1216V18.4037Z" fill="#346EBD"/><path d="M47.2179 20.2021C46.1796 20.5515 44.0702 20.4092 42.567 20.2283C41.3472 20.0819 40.5177 19.4017 40.2891 18.4042V10.1057L40.3503 9.50198C40.4611 8.40882 41.3735 7.58398 42.4725 7.58398C43.078 7.58398 43.6566 7.8424 44.0609 8.29332C44.4646 8.74423 44.6582 9.34857 44.5917 9.94998L44.4751 11.0093C45.4405 10.9119 46.9939 10.8215 47.6781 11.1493C49.1516 11.8557 49.3506 13.8157 49.3506 15.6392C49.3506 18.2987 48.6926 19.7062 47.2179 20.2021Z" fill="#346EBD"/></g><defs><clipPath id="clip0_684_695"><rect width="14" height="14" fill="white" transform="translate(39 44)"/></clipPath><clipPath id="clip1_684_695"><rect width="15" height="15" fill="white" transform="translate(10 25)"/></clipPath><clipPath id="clip2_684_695"><rect width="14" height="14" fill="white" transform="translate(36 7)"/></clipPath></defs><script xmlns=""/></svg>