<svg width="364" height="350" viewBox="0 0 364 350" fill="none" xmlns="http://www.w3.org/2000/svg">
    <mask id="mask0_318_28" style="mask-type:alpha" maskUnits="userSpaceOnUse" x="44" y="74" width="245" height="250">
        <path d="M227.623 315.73C228.585 315.841 229.128 314.656 228.415 314L222.391 308.46C222.072 308.167 221.979 307.702 222.159 307.308L225.566 299.867C225.97 298.987 225.01 298.104 224.166 298.58L217.036 302.597C216.659 302.809 216.187 302.755 215.868 302.461L209.845 296.922C209.132 296.266 207.996 296.906 208.188 297.855L209.805 305.878C209.89 306.302 209.693 306.734 209.315 306.946L202.185 310.963C201.341 311.439 201.599 312.717 202.561 312.828L210.69 313.769C211.121 313.819 211.47 314.14 211.556 314.565L213.173 322.587C213.364 323.537 214.659 323.687 215.062 322.806L218.469 315.365C218.65 314.972 219.063 314.739 219.494 314.788L227.623 315.73Z" fill="#002E6D"/>
        <path d="M244.632 240.795C245.579 240.588 245.707 239.291 244.82 238.902L237.323 235.619C236.927 235.445 236.687 235.035 236.729 234.604L237.536 226.46C237.631 225.496 236.437 224.973 235.793 225.697L230.354 231.812C230.066 232.136 229.603 232.237 229.206 232.063L221.71 228.78C220.822 228.392 219.956 229.365 220.445 230.201L224.58 237.264C224.799 237.638 224.752 238.11 224.464 238.434L219.025 244.548C218.382 245.272 219.04 246.397 219.986 246.19L227.981 244.44C228.404 244.347 228.839 244.538 229.058 244.911L233.192 251.974C233.682 252.81 234.955 252.531 235.051 251.567L235.857 243.423C235.899 242.992 236.215 242.637 236.638 242.545L244.632 240.795Z" fill="#002E6D"/>
        <path d="M175.081 193.316C175.63 194.114 176.879 193.743 176.904 192.775L177.116 184.594C177.127 184.161 177.416 183.784 177.831 183.661L185.677 181.334C186.606 181.059 186.639 179.756 185.726 179.433L178.011 176.704C177.602 176.559 177.333 176.168 177.344 175.735L177.556 167.554C177.581 166.586 176.352 166.151 175.763 166.92L170.783 173.414C170.519 173.758 170.064 173.893 169.656 173.748L161.941 171.019C161.027 170.696 160.234 171.73 160.783 172.529L165.421 179.271C165.666 179.628 165.654 180.103 165.391 180.447L160.411 186.941C159.821 187.71 160.56 188.784 161.489 188.508L169.335 186.181C169.75 186.058 170.197 186.216 170.443 186.573L175.081 193.316Z" fill="#002E6D"/>
        <path d="M205.656 108.963C206.467 109.492 207.481 108.673 207.136 107.769L204.215 100.124C204.061 99.719 204.184 99.2608 204.521 98.9887L210.889 93.8487C211.643 93.2402 211.178 92.0227 210.211 92.0718L202.037 92.487C201.605 92.509 201.207 92.2499 201.052 91.8452L198.132 84.2004C197.786 83.2954 196.484 83.3616 196.232 84.2969L194.102 92.1983C193.989 92.6166 193.619 92.9147 193.187 92.9367L185.014 93.3519C184.046 93.4011 183.707 94.6595 184.518 95.1884L191.375 99.6566C191.738 99.8931 191.907 100.336 191.794 100.755L189.663 108.656C189.411 109.592 190.503 110.303 191.257 109.695L197.625 104.555C197.962 104.283 198.436 104.259 198.799 104.495L205.656 108.963Z" fill="#002E6D"/>
        <path d="M58.1507 139.822C58.5419 140.708 59.8385 140.576 60.043 139.629L61.7699 131.63C61.8613 131.206 62.215 130.89 62.646 130.846L70.7876 130.016C71.7513 129.918 72.0263 128.644 71.1889 128.157L64.1147 124.043C63.7402 123.825 63.5485 123.391 63.6399 122.967L65.3668 114.968C65.5712 114.021 64.4445 113.366 63.7226 114.011L57.6235 119.468C57.3007 119.757 56.8285 119.805 56.454 119.587L49.3797 115.473C48.5423 114.986 47.5709 115.855 47.9622 116.741L51.267 124.228C51.442 124.624 51.3418 125.088 51.0189 125.377L44.9199 130.834C44.1979 131.48 44.7243 132.672 45.688 132.574L53.8296 131.744C54.2606 131.7 54.6708 131.939 54.8458 132.335L58.1507 139.822Z" fill="#002E6D"/>
        <path d="M203.981 146.328C204.793 146.857 205.807 146.039 205.461 145.134L204.666 143.053C204.512 142.648 204.635 142.19 204.972 141.918L206.706 140.519C207.459 139.911 206.994 138.693 206.027 138.742L203.802 138.855C203.37 138.877 202.972 138.618 202.817 138.213L202.023 136.133C201.677 135.228 200.375 135.294 200.123 136.229L199.543 138.38C199.43 138.798 199.061 139.096 198.628 139.118L196.404 139.231C195.436 139.28 195.097 140.539 195.909 141.068L197.775 142.284C198.138 142.52 198.307 142.964 198.194 143.382L197.614 145.532C197.362 146.468 198.454 147.179 199.208 146.571L200.941 145.172C201.278 144.9 201.752 144.876 202.115 145.112L203.981 146.328Z" fill="#002E6D"/>
        <path d="M53.819 192.387C54.6306 192.916 55.6449 192.098 55.2992 191.193L54.5043 189.112C54.3497 188.707 54.4732 188.249 54.8104 187.977L56.5435 186.578C57.2974 185.97 56.8322 184.752 55.8647 184.801L53.6403 184.914C53.2076 184.936 52.81 184.677 52.6554 184.272L51.8605 182.192C51.5148 181.287 50.2131 181.353 49.9608 182.288L49.3809 184.439C49.2681 184.857 48.8988 185.155 48.4662 185.177L46.2417 185.29C45.2742 185.339 44.9349 186.598 45.7465 187.127L47.6125 188.343C47.9755 188.579 48.1448 189.022 48.032 189.441L47.4521 191.591C47.1999 192.527 48.2919 193.238 49.0457 192.63L50.7789 191.231C51.116 190.959 51.59 190.935 51.953 191.171L53.819 192.387Z" fill="#002E6D"/>
        <path d="M286.544 164.574C288.469 164.358 288.993 161.805 287.308 160.848L276.403 154.653C275.649 154.225 275.257 153.36 275.431 152.512L277.953 140.225C278.343 138.327 276.076 137.04 274.645 138.346L265.383 146.804C264.743 147.388 263.8 147.494 263.047 147.066L252.141 140.871C250.456 139.914 248.531 141.672 249.332 143.436L254.513 154.858C254.871 155.647 254.68 156.577 254.041 157.161L244.779 165.619C243.348 166.926 244.425 169.3 246.35 169.084L258.815 167.685C259.676 167.589 260.501 168.057 260.859 168.846L266.041 180.269C266.841 182.033 269.432 181.743 269.821 179.845L272.343 167.558C272.517 166.709 273.218 166.069 274.079 165.973L286.544 164.574Z" fill="#002E6D"/>
        <path d="M191.893 226.466C192.862 226.439 193.23 225.189 192.43 224.642L190.592 223.383C190.235 223.139 190.075 222.692 190.198 222.276L190.826 220.139C191.1 219.21 190.024 218.474 189.257 219.065L187.492 220.424C187.149 220.688 186.675 220.702 186.317 220.457L184.479 219.199C183.68 218.652 182.647 219.447 182.972 220.36L183.72 222.458C183.865 222.866 183.731 223.321 183.388 223.586L181.623 224.945C180.856 225.536 181.293 226.764 182.262 226.737L184.488 226.674C184.921 226.662 185.313 226.93 185.458 227.338L186.206 229.436C186.531 230.349 187.834 230.312 188.107 229.383L188.736 227.246C188.858 226.831 189.234 226.541 189.667 226.529L191.893 226.466Z" fill="#002E6D"/>
        <path d="M272.509 292.172C273.477 292.145 273.845 290.895 273.045 290.347L271.207 289.089C270.85 288.844 270.691 288.397 270.813 287.982L271.442 285.845C271.715 284.916 270.639 284.179 269.872 284.771L268.107 286.13C267.764 286.394 267.29 286.407 266.932 286.163L265.094 284.905C264.295 284.357 263.262 285.153 263.588 286.065L264.335 288.164C264.48 288.572 264.346 289.027 264.003 289.291L262.239 290.651C261.471 291.242 261.909 292.47 262.877 292.442L265.103 292.38C265.536 292.368 265.928 292.636 266.073 293.044L266.821 295.142C267.146 296.055 268.449 296.018 268.722 295.089L269.351 292.952C269.473 292.536 269.849 292.247 270.282 292.235L272.509 292.172Z" fill="#002E6D"/>
        <path d="M110.431 170.723C111.139 171.384 112.28 170.753 112.096 169.802L111.054 164.413C110.971 163.987 111.172 163.557 111.551 163.348L116.355 160.691C117.203 160.222 116.955 158.942 115.994 158.823L110.546 158.149C110.116 158.096 109.769 157.772 109.687 157.347L108.645 151.957C108.461 151.006 107.167 150.846 106.757 151.723L104.432 156.696C104.249 157.089 103.834 157.318 103.404 157.265L97.9556 156.591C96.9942 156.472 96.4423 157.653 97.1501 158.314L101.161 162.062C101.478 162.358 101.568 162.824 101.385 163.216L99.0598 168.189C98.6495 169.067 99.6019 169.956 100.45 169.488L105.253 166.831C105.633 166.621 106.104 166.679 106.42 166.975L110.431 170.723Z" fill="#002E6D"/>
        <path d="M104.843 87.7636C105.806 87.868 106.34 86.6789 105.622 86.0284L102.052 82.7931C101.73 82.5022 101.633 82.0376 101.811 81.6424L103.784 77.2471C104.181 76.3633 103.215 75.4881 102.375 75.9698L98.1947 78.3656C97.8188 78.5811 97.3469 78.5299 97.0259 78.239L93.4556 75.0037C92.7377 74.3532 91.6069 75.0013 91.8053 75.9495L92.7921 80.6656C92.8808 81.0896 92.6864 81.5226 92.3105 81.738L88.1302 84.1338C87.2897 84.6155 87.5567 85.8913 88.5198 85.9956L93.3099 86.5145C93.7406 86.5611 94.0923 86.8798 94.181 87.3038L95.1678 92.0199C95.3662 92.9681 96.6621 93.1084 97.0589 92.2247L99.0326 87.8293C99.21 87.4341 99.6218 87.1981 100.053 87.2448L104.843 87.7636Z" fill="#002E6D"/>
        <path d="M145.462 120.296C146.152 120.975 147.309 120.375 147.15 119.419L146.813 117.394C146.742 116.966 146.954 116.542 147.339 116.342L149.161 115.396C150.021 114.95 149.807 113.664 148.849 113.52L146.819 113.214C146.39 113.15 146.052 112.817 145.981 112.389L145.644 110.364C145.485 109.408 144.196 109.214 143.763 110.081L142.845 111.917C142.652 112.305 142.23 112.524 141.802 112.459L139.772 112.154C138.814 112.01 138.231 113.175 138.921 113.855L140.384 115.296C140.693 115.6 140.771 116.068 140.577 116.455L139.659 118.292C139.226 119.158 140.155 120.073 141.014 119.626L142.837 118.68C143.221 118.481 143.69 118.551 143.999 118.855L145.462 120.296Z" fill="#002E6D"/>
    </mask>
    <g mask="url(#mask0_318_28)">
        <rect width="248" height="346" transform="matrix(0.631786 -0.775143 -0.775143 -0.631786 233.371 364.272)" fill="url(#paint0_linear_318_28)" fill-opacity="0.3"/>
    </g>
    <defs>
        <linearGradient id="paint0_linear_318_28" x1="124" y1="0" x2="124" y2="346" gradientUnits="userSpaceOnUse">
            <stop stop-color="#0059D3"/>
            <stop offset="1" stop-color="white"/>
        </linearGradient>
    </defs>
</svg>
