<svg width="203" height="45" viewBox="0 0 203 45" fill="none" xmlns="http://www.w3.org/2000/svg">
    <path d="M36.05 10.887L38.7194 8.57749L34.9358 8.24757L33.5028 4.71527L32.3737 7.43638C31.5007 6.80377 30.5772 6.24079 29.6089 5.75952L31.1224 4.45193L28.6258 4.234L27.6784 1.89729L26.7042 4.24308L25.7062 4.32178C24.1987 3.94645 22.6257 3.74063 21.005 3.74063C10.1666 3.74063 1.38086 12.6667 1.38086 23.6783C1.38086 34.6899 10.1666 43.616 21.005 43.616C31.8434 43.616 40.6291 34.6899 40.6291 23.6783C40.6261 18.8112 38.9041 14.3496 36.05 10.887Z"
          fill="#002E6D"/>
    <path d="M40.903 17.7033L40.8017 17.3522C40.0956 15.073 39.0231 12.9542 37.6109 11.0413L40.1224 8.87102C40.6378 8.42608 40.3667 7.56948 39.6934 7.51197L35.7162 7.16692L34.2087 3.453C33.9495 2.81737 33.0647 2.81434 32.8025 3.44695V3.44998L29.4062 3.15032L28.3843 0.632004C28.1251 -0.00362903 27.2403 -0.00665589 26.9781 0.62595L25.9294 3.15335L25.7954 3.16243C24.2223 2.7871 22.6106 2.59641 21.0018 2.59641C9.15049 2.59641 -0.409823 12.7393 0.281355 24.9283C0.850386 34.932 8.43249 43.2588 18.2103 44.5815C29.7667 46.1464 40.1165 37.8135 41.5763 26.4326L41.5882 26.3782C41.6806 25.9605 41.758 24.1565 41.758 23.6843C41.755 21.6593 41.469 19.6465 40.903 17.7033ZM25.703 4.32473L26.7011 4.24603L27.6753 1.90024L28.6226 4.23695L31.1192 4.45488L29.6058 5.76247C30.577 6.24374 31.4976 6.80673 32.3705 7.43933L33.4996 4.71822L34.9326 8.25052L38.7162 8.58044L36.0469 10.8899C38.9039 14.3526 40.6259 18.8141 40.6259 23.6873C40.6259 24.1413 40.6051 24.5863 40.5753 25.0312C39.7173 25.5095 38.9009 26.0543 38.1621 26.7898C37.5782 27.371 37.2266 27.9945 36.5176 28.96C36.1154 29.5079 35.6536 29.965 35.162 30.3524L35.1561 30.3584C35.1233 30.3827 35.0935 30.4069 35.0607 30.4311L35.0429 30.4432C35.0131 30.4674 34.9803 30.4886 34.9505 30.5128L34.9416 30.5189C34.3457 30.9547 33.7141 31.2907 33.1064 31.551L33.1034 31.554C32.8561 31.66 32.6118 31.7538 32.3765 31.8355L32.3616 31.8416C32.296 31.8658 32.2305 31.887 32.1649 31.9082L32.159 31.9112L32.0666 31.9415L32.0547 31.9445C31.8283 32.0171 31.6108 32.0777 31.4052 32.1322L31.3844 32.1382L31.3218 32.1564L31.2861 32.1655L31.2265 32.1806L31.2027 32.1866L31.1341 32.2018L31.0537 32.2199H31.0507L30.9703 32.2381H30.9643L30.8898 32.2563L30.8124 32.2744L30.7856 32.2805L30.7349 32.2926L30.723 32.2956C30.6277 32.3168 30.5383 32.335 30.4519 32.3531L30.3893 32.3652H30.3863L30.3238 32.3773H30.3178L30.2642 32.3864L30.2523 32.3894L30.2106 32.3985L30.1897 32.4015L30.1569 32.4076L30.1331 32.4137L30.1063 32.4197L30.0765 32.4258L30.0586 32.4288L30.0259 32.4348L30.0139 32.4379L29.9782 32.4469H29.9722L29.9335 32.456L29.9216 32.4591L29.9097 32.4621L29.8978 32.4651L29.8858 32.4681L29.859 32.4742L29.8322 32.4802L29.8173 32.4833L29.7756 32.4893L29.7607 32.4924L29.7458 32.4954L29.7309 32.4984L29.6892 32.5045L29.6445 32.5105L29.6147 32.5135L29.5998 32.5166L29.5849 32.5196L29.5551 32.5226L29.5402 32.5256L29.5254 32.5287L29.5105 32.5317H29.4956H29.4807L29.4658 32.5347H29.4509L29.4211 32.5378H29.4181H29.4032H29.3853H29.3675H29.3526H29.3347H29.3168H29.3019H29.284H29.2662H29.2513H29.2334H29.2155H29.2006H29.1827H29.1649H29.147H29.1291H29.1112H29.0934H29.0755H29.0576H29.0397L29.004 32.5408H28.9682H28.9504H28.9474H28.9295C28.149 32.568 27.2582 32.5287 26.847 32.4893C27.2254 31.6448 28.2979 30.8821 29.6356 30.5068C30.1212 28.7391 30.4132 26.6354 30.011 25.234C29.5313 23.5662 28.1192 22.1557 27.6782 19.8433C27.0496 16.5501 28.0864 14.9065 26.3167 11.4257C23.269 5.4719 17.9362 4.4458 12.2936 5.81393C14.9182 4.4912 17.8736 3.74358 20.9988 3.74358C22.6225 3.74358 24.1955 3.94638 25.703 4.32473ZM8.84065 29.7289C8.34014 30.201 6.78499 30.2343 6.07295 29.6835C6.82967 29.7682 7.29145 29.7924 7.62215 29.6138C6.82968 29.3172 5.24175 28.2548 5.32815 27.0955C6.22787 27.4709 9.09388 27.8492 9.45139 27.3104C6.91309 27.3891 3.75512 24.5984 4.80679 22.0135C4.79487 23.3786 6.29937 27.0077 10.655 26.696C10.1068 28.3638 7.94092 28.4636 6.60028 28.1277C7.1276 29.0145 8.23884 29.4474 8.84065 29.7289ZM17.4268 7.52106C17.5936 7.94481 17.5549 8.72876 17.4565 9.10711C17.7843 8.96788 18.6304 8.35949 19.1428 7.53922C19.1309 9.03447 17.8677 10.3663 16.4704 10.5116C16.7266 10.0999 16.8905 9.70642 16.8041 9.3311C15.7048 10.5085 14.2181 11.3288 11.9599 11.3591C13.3244 10.0545 13.9887 8.82259 13.8994 7.61186C14.519 8.20209 14.1168 9.80933 13.6372 10.4389C15.0046 10.4783 17.2003 8.63795 17.4268 7.52106ZM22.7447 19.4195C22.8936 21.9166 24.0376 22.298 25.0923 23.6419C25.4468 24.0929 25.6583 24.7437 25.6405 25.3188C25.6375 25.4187 25.569 25.5458 25.4915 25.6063C25.4111 25.6669 25.277 25.6911 25.1757 25.6759C25.1072 25.6638 25.0565 25.5549 24.9582 25.4429C24.5798 25.8 24.267 26.2026 23.698 26.2056C23.695 25.8091 23.9065 25.5155 24.1866 25.3006C24.6573 24.9404 24.8867 24.2987 24.5799 23.7509C24.2492 23.1637 23.5044 22.5432 23.1915 22.2344C22.7804 21.8288 22.5838 21.3143 22.4914 20.7664C22.405 20.261 22.3663 19.7434 22.4586 19.2288C22.4944 19.0381 22.4914 19.0351 22.7089 18.7929C22.7774 19.0109 22.7327 19.2197 22.7447 19.4195ZM25.6494 18.4358C26.1559 18.3268 26.4836 18.4358 26.847 18.799C27.0824 19.0351 27.2671 19.3226 27.3684 19.6465C27.5054 20.0884 27.4399 20.3094 27.0973 20.1308C26.9692 20.0642 26.996 19.9643 26.8887 19.698C26.7457 19.3469 26.4597 19.138 26.1112 18.9957C25.8728 18.8989 25.6196 19.0502 25.9205 19.1652C26.2899 19.3075 26.8143 19.7282 26.9066 20.1369C27.0347 20.6968 26.4508 20.3457 26.2959 20.2156C26.415 20.4789 26.2989 20.712 26.2303 20.942C26.4597 20.9571 26.6534 20.9662 26.8381 21.0328C27.2284 21.1781 27.0735 21.2628 26.7964 21.3385C26.1618 21.511 25.4826 21.6503 24.8897 21.9075C24.5113 22.071 24.1747 22.0347 24.4935 21.7259C24.699 21.5231 24.9374 21.4172 25.1489 21.284C24.6275 21.2598 24.3475 20.7907 24.2015 20.4668C24.0257 20.5273 23.9781 20.833 23.8797 20.9753C23.6563 21.2961 23.5222 21.0661 23.5341 20.7725C23.5729 19.6586 24.7109 18.6356 25.6494 18.4358ZM24.0793 15.9175C24.3624 15.5815 24.41 15.5724 24.8212 15.6027C25.2323 15.6299 25.6375 15.6935 26.0307 15.8327C26.4806 15.9901 26.0695 16.1778 25.7686 16.208C25.3366 16.2474 24.7824 16.2262 24.2462 16.4653C23.3822 16.8497 23.7218 16.3382 24.0793 15.9175ZM22.5302 25.6578C22.5302 25.6941 22.545 25.7425 22.5272 25.7668C22.3395 26.0028 22.1488 26.2389 21.9522 26.4659C21.8926 26.5356 21.8122 26.5961 21.7287 26.6354C21.6692 26.6657 21.5649 26.6869 21.5262 26.6536C21.4636 26.5991 21.3891 26.4902 21.404 26.4236C21.4338 26.2783 21.5053 26.139 21.5768 26.0059C21.8211 25.5397 21.976 25.4853 22.5302 25.6578ZM23.3971 29.29C24.276 29.0115 25.5392 29.3445 26.0903 28.9146C26.4091 28.6664 26.8232 28.0005 27.0496 28.6725C27.3207 29.4837 26.993 29.5684 26.6564 30.1435C26.3942 30.5885 26.0009 31.324 25.6375 31.9384C24.9076 33.1764 24.553 33.2521 23.9244 33.5396C23.2452 33.8514 22.6374 34.1783 21.8717 33.8332C21.1537 33.5094 20.2868 32.683 19.6969 32.4742C19.4824 32.3985 19.3364 32.5105 19.2173 32.674C18.9313 33.0644 18.3444 33.8726 18.5916 32.6286C18.7346 31.8991 18.7942 31.1424 18.7287 30.6702C18.6304 29.974 19.0325 29.9105 19.2053 30.4038C19.3066 30.6944 19.7059 30.8669 20.0216 30.8579C21.4249 30.8094 22.1339 29.6895 23.3971 29.29ZM24.2641 34.9471C23.8857 35.1771 21.1567 35.8763 22.7208 34.8745C23.2035 34.5657 23.844 34.2661 24.3236 34.2691C25.0565 34.2752 24.6216 34.7292 24.2641 34.9471ZM15.4813 17.9061C15.0166 18.1785 14.4416 18.4085 13.9351 18.6628C13.6729 18.7929 12.5438 19.0109 13.086 18.4146C13.6372 17.8092 14.519 17.446 15.3204 17.3946C15.9014 17.3582 16.1427 17.5187 15.4813 17.9061ZM12.6481 23.9204C12.9609 22.9972 13.7236 21.8379 15.0642 21.1448C16.3304 20.488 17.2122 21.0086 17.8736 21.847C18.7734 22.9881 18.0434 23.2878 17.7396 22.8459C17.394 23.1364 17.397 22.743 16.9799 22.5644C16.8369 22.9488 16.3989 23.2787 15.9461 23.3907C15.5022 23.4997 14.9629 23.3544 14.7008 22.9094C14.5131 22.5946 14.3552 22.6582 14.1228 22.8549C13.7593 23.1637 13.3214 23.8266 13.1546 24.0626C12.8209 24.5318 12.4246 24.5802 12.6481 23.9204ZM14.5488 24.0687C15.0404 23.654 16.0533 23.4633 16.667 23.4845C17.1854 23.5027 17.2361 23.6601 16.7534 23.8023C16.1844 23.9718 15.6064 24.1595 15.0285 24.3381C14.7276 24.4319 13.9202 24.6014 14.5488 24.0687ZM19.6939 40.3046C19.825 40.2894 19.9859 40.2773 20.1766 40.2743C21.0197 40.2501 22.7417 39.669 22.3991 39.6447C22.0147 39.6175 21.0554 39.5479 20.1825 39.2997C19.0653 38.9849 19.6641 38.7458 20.552 38.994C22.557 39.5509 25.1876 38.4703 26.5193 36.9509C27.3744 35.9762 27.9791 34.817 28.3664 33.9361C29.4747 34.369 30.9822 34.5415 32.6267 33.7545C35.591 32.338 36.0588 30.4886 36.9436 29.2052C37.6973 28.1095 37.9089 27.153 40.5246 25.6881C40.1909 29.0751 39.0231 32.2109 37.2356 34.8835C31.8134 40.4287 23.3137 42.3658 16.1785 39.4389C17.3106 39.8324 18.4814 40.129 19.6939 40.3046ZM27.5978 32.904C28.0387 32.9948 28.6644 32.9888 29.8858 32.8495C31.1073 32.7073 32.9932 32.0323 34.0299 31.4693C35.0667 30.9063 35.4302 30.537 35.4242 30.6823C35.4212 30.8276 35.3199 31.2998 34.5096 32.0807C33.6992 32.8586 32.3318 33.6153 31.006 33.8605C29.6833 34.1056 28.2294 33.5971 27.714 33.2702C27.7199 33.2672 27.1599 32.8132 27.5978 32.904ZM21.0018 43.622C10.1634 43.622 1.37771 34.6959 1.37771 23.6843C1.37771 17.67 4.0024 12.2822 8.14649 8.62585C7.22889 9.5914 6.39769 10.6447 5.68863 11.7889C1.05297 19.2167 2.11357 29.3959 8.08095 35.7583C15.6958 44.185 29.1738 44.2062 36.5772 35.8067C32.9902 40.5558 27.3475 43.622 21.0018 43.622Z"
          fill="white"/>
    <path d="M16.2794 22.2103C16.5088 22.1891 16.5863 22.059 16.5297 21.9803C16.482 21.9137 16.3569 21.7684 16.1305 21.6867C15.6329 21.5081 15.91 22.2436 16.2794 22.2103Z"
          fill="white"/>
    <path d="M27.4688 32.2563C27.9842 32.2806 29.4052 32.2684 30.0756 32.1111C30.7489 31.9537 33.2455 31.5238 35.0628 29.8924C34.7172 29.6593 34.169 29.1115 32.7986 29.2174C31.4311 29.3233 30.5076 30.7338 30.5076 30.7338C29.1282 31.0063 27.868 31.4906 27.4688 32.2563Z"
          fill="white"/>
    <path d="M25.7748 20.0734C25.9237 20.1521 25.9505 19.9886 25.9416 19.8978C25.9178 19.6738 25.6973 19.5255 25.5305 19.5558C25.3338 19.5921 25.2862 19.6072 25.4262 19.7525C25.5662 19.9009 25.6913 20.028 25.7748 20.0734Z"
          fill="white"/>
    <path d="M23.8772 32.6075C22.7302 33.0554 23.3052 33.4247 23.9755 33.0161C24.2556 32.8435 24.5058 32.3623 23.8772 32.6075Z"
          fill="white"/>
    <path d="M19.9498 31.8417C20.0005 31.9204 21.2398 32.7073 21.9519 33.0584C22.4613 33.3097 22.4941 33.2461 22.7324 32.8678C22.8873 32.6196 23.0572 32.4834 23.2151 32.3925C23.4176 32.2775 23.6381 32.1837 23.9956 32.0747C24.4574 31.9355 24.6927 32.5348 25.2707 31.6358C25.6133 31.1031 26.0781 30.2193 26.2836 29.9166C26.6858 29.3143 26.3045 29.3385 26.0304 29.4717C25.5716 29.6956 24.9311 29.8288 24.3382 29.8894C23.7305 29.9529 23.2121 30.1709 22.6103 30.4463C21.8148 30.8095 20.8585 31.315 20.2865 31.3634C20.0988 31.3816 19.6132 31.3029 19.9498 31.8417Z"
          fill="white"/>
    <path fill-rule="evenodd" clip-rule="evenodd"
          d="M35.7839 16.081L36.5763 18.0333L38.6767 18.2149L37.0947 19.583L37.5744 21.6685L35.8047 20.5607L33.9993 21.6685L34.4879 19.6163L32.894 18.2149L34.9676 18.0545L35.7839 16.081ZM32.4352 8.84991L29.7539 9.05876L31.8156 10.8718L31.184 13.5264L33.5197 12.0947L35.8107 13.5264L35.191 10.8295L37.2377 9.05876L34.5207 8.82267L33.4958 6.29527L32.4352 8.84991ZM27.1114 4.82423L25.6992 4.9332L26.7837 5.88967L26.45 7.28807L27.6804 6.53439L28.887 7.28807L28.5622 5.86546L29.6407 4.9332L28.2107 4.8091L27.6715 3.47729L27.1114 4.82423Z"
          fill="white"/>
    <path d="M54.344 32C53.772 32 53.332 31.846 53.024 31.538C52.716 31.23 52.562 30.79 52.562 30.218V18.272C52.562 17.7 52.716 17.26 53.024 16.952C53.332 16.644 53.772 16.49 54.344 16.49H59.668C60.768 16.49 61.7067 16.6513 62.484 16.974C63.2613 17.2967 63.848 17.7587 64.244 18.36C64.6547 18.9613 64.86 19.68 64.86 20.516C64.86 21.44 64.596 22.2247 64.068 22.87C63.54 23.5153 62.814 23.948 61.89 24.168V23.816C62.9607 24.0067 63.7893 24.432 64.376 25.092C64.9773 25.7373 65.278 26.5807 65.278 27.622C65.278 29.0007 64.8013 30.0787 63.848 30.856C62.8947 31.6187 61.582 32 59.91 32H54.344ZM55.818 29.47H59.448C60.328 29.47 60.9733 29.3013 61.384 28.964C61.7947 28.612 62 28.0987 62 27.424C62 26.7493 61.7947 26.2433 61.384 25.906C60.9733 25.5687 60.328 25.4 59.448 25.4H55.818V29.47ZM55.818 22.87H59.074C59.9247 22.87 60.5553 22.7087 60.966 22.386C61.3767 22.0633 61.582 21.5793 61.582 20.934C61.582 20.3033 61.3767 19.8267 60.966 19.504C60.5553 19.1813 59.9247 19.02 59.074 19.02H55.818V22.87ZM69.0285 32.11C68.4418 32.11 67.9725 31.934 67.6205 31.582C67.2832 31.23 67.1145 30.7753 67.1145 30.218C67.1145 29.6753 67.2832 29.2353 67.6205 28.898C67.9725 28.546 68.4418 28.37 69.0285 28.37C69.6152 28.37 70.0698 28.546 70.3925 28.898C70.7298 29.2353 70.8985 29.6753 70.8985 30.218C70.8985 30.7753 70.7298 31.23 70.3925 31.582C70.0698 31.934 69.6152 32.11 69.0285 32.11ZM75.1393 32.198C74.582 32.198 74.1567 32.044 73.8633 31.736C73.57 31.428 73.4233 30.9953 73.4233 30.438V18.272C73.4233 17.7 73.5773 17.26 73.8853 16.952C74.1933 16.644 74.6333 16.49 75.2053 16.49H85.5233C86.0953 16.49 86.5353 16.644 86.8433 16.952C87.1513 17.26 87.3053 17.7 87.3053 18.272V30.438C87.3053 30.9953 87.1587 31.428 86.8653 31.736C86.572 32.044 86.154 32.198 85.6113 32.198C85.054 32.198 84.6287 32.044 84.3353 31.736C84.042 31.428 83.8953 30.9953 83.8953 30.438V19.306H76.8333V30.438C76.8333 30.9953 76.6867 31.428 76.3933 31.736C76.1147 32.044 75.6967 32.198 75.1393 32.198ZM91.7375 32.11C91.1508 32.11 90.6815 31.934 90.3295 31.582C89.9921 31.23 89.8235 30.7753 89.8235 30.218C89.8235 29.6753 89.9921 29.2353 90.3295 28.898C90.6815 28.546 91.1508 28.37 91.7375 28.37C92.3241 28.37 92.7788 28.546 93.1015 28.898C93.4388 29.2353 93.6075 29.6753 93.6075 30.218C93.6075 30.7753 93.4388 31.23 93.1015 31.582C92.7788 31.934 92.3241 32.11 91.7375 32.11ZM103.993 32.198C103.436 32.198 103.01 32.044 102.717 31.736C102.424 31.428 102.277 30.9953 102.277 30.438V18.272C102.277 17.7 102.431 17.26 102.739 16.952C103.047 16.644 103.487 16.49 104.059 16.49H114.377C114.949 16.49 115.389 16.644 115.697 16.952C116.005 17.26 116.159 17.7 116.159 18.272V30.438C116.159 30.9953 116.012 31.428 115.719 31.736C115.426 32.044 115.008 32.198 114.465 32.198C113.908 32.198 113.482 32.044 113.189 31.736C112.896 31.428 112.749 30.9953 112.749 30.438V19.306H105.687V30.438C105.687 30.9953 105.54 31.428 105.247 31.736C104.968 32.044 104.55 32.198 103.993 32.198ZM122.813 32.242C122.021 32.242 121.31 32.088 120.679 31.78C120.048 31.472 119.557 31.054 119.205 30.526C118.853 29.998 118.677 29.404 118.677 28.744C118.677 27.952 118.882 27.3287 119.293 26.874C119.704 26.4047 120.371 26.0747 121.295 25.884C122.219 25.6787 123.444 25.576 124.969 25.576H126.135V27.292H124.991C124.243 27.292 123.634 27.336 123.165 27.424C122.71 27.4973 122.38 27.6293 122.175 27.82C121.984 28.0107 121.889 28.2747 121.889 28.612C121.889 29.0227 122.028 29.36 122.307 29.624C122.6 29.888 123.018 30.02 123.561 30.02C123.986 30.02 124.36 29.9247 124.683 29.734C125.02 29.5287 125.284 29.2573 125.475 28.92C125.666 28.568 125.761 28.172 125.761 27.732V25.202C125.761 24.5567 125.614 24.102 125.321 23.838C125.028 23.5593 124.529 23.42 123.825 23.42C123.429 23.42 122.996 23.4713 122.527 23.574C122.072 23.662 121.566 23.816 121.009 24.036C120.686 24.1827 120.4 24.2193 120.151 24.146C119.902 24.058 119.711 23.9113 119.579 23.706C119.447 23.486 119.381 23.2513 119.381 23.002C119.381 22.738 119.454 22.4887 119.601 22.254C119.748 22.0047 119.99 21.8213 120.327 21.704C121.016 21.4253 121.662 21.2347 122.263 21.132C122.879 21.0293 123.444 20.978 123.957 20.978C125.086 20.978 126.01 21.1467 126.729 21.484C127.462 21.8067 128.012 22.3127 128.379 23.002C128.746 23.6767 128.929 24.5493 128.929 25.62V30.504C128.929 31.0467 128.797 31.4647 128.533 31.758C128.269 32.0513 127.888 32.198 127.389 32.198C126.89 32.198 126.502 32.0513 126.223 31.758C125.959 31.4647 125.827 31.0467 125.827 30.504V29.69L125.981 29.822C125.893 30.3207 125.702 30.7533 125.409 31.12C125.13 31.472 124.771 31.7507 124.331 31.956C123.891 32.1467 123.385 32.242 122.813 32.242ZM137.03 32.242C135.857 32.242 134.83 32.0147 133.95 31.56C133.085 31.0907 132.418 30.4307 131.948 29.58C131.479 28.7293 131.244 27.7247 131.244 26.566C131.244 25.7007 131.376 24.9233 131.64 24.234C131.904 23.5447 132.286 22.958 132.784 22.474C133.298 21.99 133.914 21.6233 134.632 21.374C135.351 21.11 136.15 20.978 137.03 20.978C137.485 20.978 137.969 21.0367 138.482 21.154C138.996 21.2567 139.502 21.44 140 21.704C140.294 21.836 140.492 22.0267 140.594 22.276C140.712 22.5107 140.756 22.76 140.726 23.024C140.697 23.2733 140.602 23.5007 140.44 23.706C140.294 23.8967 140.103 24.0287 139.868 24.102C139.634 24.1607 139.37 24.1167 139.076 23.97C138.798 23.8087 138.504 23.6913 138.196 23.618C137.903 23.5447 137.624 23.508 137.36 23.508C136.92 23.508 136.532 23.5813 136.194 23.728C135.857 23.86 135.571 24.058 135.336 24.322C135.116 24.5713 134.94 24.8867 134.808 25.268C134.691 25.6493 134.632 26.0893 134.632 26.588C134.632 27.556 134.867 28.3187 135.336 28.876C135.82 29.4187 136.495 29.69 137.36 29.69C137.624 29.69 137.903 29.6607 138.196 29.602C138.49 29.5287 138.783 29.4113 139.076 29.25C139.37 29.1033 139.634 29.0667 139.868 29.14C140.103 29.2133 140.286 29.3527 140.418 29.558C140.565 29.7487 140.646 29.976 140.66 30.24C140.69 30.4893 140.646 30.7387 140.528 30.988C140.426 31.2227 140.235 31.406 139.956 31.538C139.458 31.7873 138.959 31.9633 138.46 32.066C137.962 32.1833 137.485 32.242 137.03 32.242ZM146.581 32.198C146.053 32.198 145.643 32.0513 145.349 31.758C145.071 31.4647 144.931 31.0467 144.931 30.504V23.794H142.555C141.631 23.794 141.169 23.3613 141.169 22.496C141.169 22.0853 141.287 21.77 141.521 21.55C141.771 21.3153 142.115 21.198 142.555 21.198H150.607C151.546 21.198 152.015 21.6307 152.015 22.496C152.015 22.9213 151.891 23.244 151.641 23.464C151.407 23.684 151.062 23.794 150.607 23.794H148.253V30.504C148.253 31.0467 148.114 31.4647 147.835 31.758C147.557 32.0513 147.139 32.198 146.581 32.198ZM156.527 36.158C156.146 36.158 155.83 36.0553 155.581 35.85C155.332 35.6447 155.185 35.3733 155.141 35.036C155.097 34.7133 155.156 34.3687 155.317 34.002L156.791 30.746V32.11L152.897 23.178C152.75 22.7967 152.699 22.4447 152.743 22.122C152.802 21.7847 152.963 21.5207 153.227 21.33C153.506 21.1247 153.887 21.022 154.371 21.022C154.767 21.022 155.082 21.1173 155.317 21.308C155.566 21.484 155.794 21.8287 155.999 22.342L158.595 28.942H157.891L160.575 22.32C160.78 21.8213 161.008 21.484 161.257 21.308C161.521 21.1173 161.873 21.022 162.313 21.022C162.694 21.022 162.995 21.1247 163.215 21.33C163.45 21.5207 163.589 21.7773 163.633 22.1C163.692 22.4227 163.633 22.7747 163.457 23.156L158.287 34.882C158.067 35.3807 157.818 35.718 157.539 35.894C157.275 36.07 156.938 36.158 156.527 36.158ZM166.604 32.154C166.193 32.154 165.863 32.044 165.614 31.824C165.364 31.5893 165.232 31.296 165.218 30.944C165.218 30.592 165.364 30.2327 165.658 29.866L169.068 25.686V27.182L165.9 23.31C165.592 22.9287 165.445 22.562 165.46 22.21C165.474 21.858 165.606 21.572 165.856 21.352C166.105 21.132 166.435 21.022 166.846 21.022C167.242 21.022 167.572 21.088 167.836 21.22C168.1 21.352 168.349 21.572 168.584 21.88L170.938 24.894H169.772L172.126 21.88C172.375 21.572 172.632 21.352 172.896 21.22C173.16 21.088 173.482 21.022 173.864 21.022C174.274 21.022 174.604 21.1393 174.854 21.374C175.103 21.594 175.228 21.88 175.228 22.232C175.242 22.584 175.096 22.9433 174.788 23.31L171.62 27.182V25.686L175.052 29.866C175.36 30.218 175.506 30.57 175.492 30.922C175.477 31.274 175.338 31.5673 175.074 31.802C174.824 32.0367 174.494 32.154 174.084 32.154C173.688 32.154 173.358 32.088 173.094 31.956C172.844 31.8093 172.595 31.5893 172.346 31.296L169.772 28.018H170.894L168.32 31.296C168.085 31.5747 167.836 31.7873 167.572 31.934C167.322 32.0807 167 32.154 166.604 32.154ZM183.091 32.242C181.933 32.242 180.921 32.0147 180.055 31.56C179.205 31.1053 178.545 30.4527 178.075 29.602C177.606 28.7513 177.371 27.7467 177.371 26.588C177.371 25.7227 177.503 24.9453 177.767 24.256C178.031 23.5667 178.413 22.98 178.911 22.496C179.425 21.9973 180.033 21.6233 180.737 21.374C181.441 21.11 182.226 20.978 183.091 20.978C184.25 20.978 185.255 21.2053 186.105 21.66C186.971 22.1147 187.638 22.76 188.107 23.596C188.591 24.432 188.833 25.4293 188.833 26.588C188.833 27.468 188.694 28.2527 188.415 28.942C188.151 29.6313 187.77 30.2253 187.271 30.724C186.773 31.2227 186.164 31.604 185.445 31.868C184.741 32.1173 183.957 32.242 183.091 32.242ZM183.091 29.756C183.575 29.756 183.993 29.6387 184.345 29.404C184.697 29.1693 184.976 28.8247 185.181 28.37C185.387 27.9007 185.489 27.3067 185.489 26.588C185.489 25.5173 185.269 24.7327 184.829 24.234C184.389 23.7207 183.81 23.464 183.091 23.464C182.622 23.464 182.204 23.574 181.837 23.794C181.485 24.014 181.207 24.3587 181.001 24.828C180.811 25.2827 180.715 25.8693 180.715 26.588C180.715 27.6587 180.935 28.458 181.375 28.986C181.815 29.4993 182.387 29.756 183.091 29.756ZM192.783 32C192.269 32 191.873 31.8607 191.595 31.582C191.316 31.3033 191.177 30.9 191.177 30.372V22.826C191.177 22.298 191.316 21.8947 191.595 21.616C191.873 21.3373 192.269 21.198 192.783 21.198H197.315C198.297 21.198 199.082 21.3153 199.669 21.55C200.27 21.77 200.703 22.0927 200.967 22.518C201.231 22.9287 201.363 23.4347 201.363 24.036C201.363 24.696 201.135 25.2607 200.681 25.73C200.226 26.1847 199.625 26.4707 198.877 26.588V26.258C199.859 26.3313 200.585 26.61 201.055 27.094C201.524 27.578 201.759 28.2013 201.759 28.964C201.759 29.888 201.392 30.6287 200.659 31.186C199.94 31.7287 198.884 32 197.491 32H192.783ZM194.235 30.02H197.161C197.689 30.02 198.085 29.9173 198.349 29.712C198.627 29.492 198.767 29.1693 198.767 28.744C198.767 28.3187 198.627 28.0033 198.349 27.798C198.085 27.578 197.689 27.468 197.161 27.468H194.235V30.02ZM194.235 25.51H196.963C197.403 25.51 197.747 25.4073 197.997 25.202C198.246 24.982 198.371 24.6887 198.371 24.322C198.371 23.9407 198.246 23.6547 197.997 23.464C197.747 23.2733 197.403 23.178 196.963 23.178H194.235V25.51Z"
          fill="#002E6D"/>
</svg>
