<svg width="206" height="301" viewBox="0 0 206 301" fill="none" xmlns="http://www.w3.org/2000/svg">
    <mask id="mask0_228_438" style="mask-type:alpha" maskUnits="userSpaceOnUse" x="14" y="5" width="188" height="286">
        <path d="M183.372 25.4554C182.85 24.6391 181.589 24.9672 181.531 25.9342L181.043 34.1033C181.017 34.5357 180.715 34.9024 180.296 35.0114L172.376 37.0712C171.438 37.315 171.36 38.6161 172.262 38.9699L179.881 41.9589C180.284 42.1171 180.539 42.5171 180.514 42.9495L180.025 51.1187C179.967 52.0857 181.181 52.5617 181.796 51.8134L186.993 45.4915C187.268 45.1569 187.727 45.0374 188.13 45.1957L195.749 48.1847C196.651 48.5385 197.478 47.5316 196.957 46.7153L192.55 39.8192C192.317 39.4541 192.345 38.9804 192.62 38.6457L197.817 32.3239C198.432 31.5756 197.731 30.4772 196.793 30.7211L188.873 32.7809C188.454 32.8899 188.012 32.7166 187.778 32.3515L183.372 25.4554Z"
              fill="#002E6D"/>
        <path d="M114.54 59.6127C113.782 59.01 112.695 59.73 112.954 60.6634L115.145 68.5483C115.261 68.9657 115.095 69.4104 114.734 69.6497L107.912 74.1701C107.105 74.7052 107.454 75.961 108.422 76.0028L116.598 76.3555C117.031 76.3742 117.402 76.6694 117.518 77.0868L119.709 84.9718C119.969 85.9052 121.271 85.9613 121.61 85.0538L124.472 77.3868C124.623 76.981 125.019 76.7188 125.452 76.7375L133.628 77.0902C134.595 77.132 135.051 75.9109 134.293 75.3082L127.886 70.2171C127.546 69.9475 127.419 69.4903 127.571 69.0844L130.433 61.4175C130.772 60.5099 129.751 59.699 128.944 60.2341L122.122 64.7546C121.761 64.9939 121.286 64.9734 120.947 64.7039L114.54 59.6127Z"
              fill="#002E6D"/>
        <path d="M121.679 143.522C121.951 142.592 120.874 141.858 120.108 142.45L113.633 147.455C113.29 147.72 112.816 147.734 112.458 147.49L105.697 142.879C104.897 142.333 103.866 143.13 104.192 144.042L106.951 151.747C107.097 152.154 106.964 152.61 106.621 152.875L100.146 157.88C99.3797 158.472 99.8192 159.699 100.787 159.67L108.968 159.427C109.401 159.415 109.793 159.682 109.939 160.09L112.698 167.794C113.024 168.706 114.327 168.668 114.599 167.738L116.896 159.883C117.017 159.467 117.393 159.177 117.826 159.164L126.006 158.921C126.974 158.892 127.34 157.641 126.54 157.095L119.779 152.484C119.421 152.24 119.261 151.793 119.383 151.377L121.679 143.522Z"
              fill="#002E6D"/>
        <path d="M36.9766 173.115C36.8739 172.151 35.5985 171.882 35.1155 172.722L31.0348 179.816C30.8188 180.191 30.3855 180.385 29.9616 180.296L21.954 178.607C21.0062 178.407 20.3562 179.537 21.0056 180.256L26.4911 186.329C26.7815 186.65 26.8319 187.122 26.6159 187.498L22.5352 194.591C22.0521 195.431 22.9258 196.398 23.8102 196.003L31.2811 192.663C31.6766 192.486 32.141 192.584 32.4314 192.905L37.9169 198.978C38.5663 199.697 39.7562 199.165 39.6534 198.202L38.7851 190.064C38.7392 189.633 38.9758 189.222 39.3713 189.045L46.8422 185.705C47.7266 185.309 47.5883 184.013 46.6404 183.813L38.6329 182.125C38.209 182.035 37.8909 181.683 37.8449 181.252L36.9766 173.115Z"
              fill="#002E6D"/>
        <path d="M154.088 267.956C154.528 267.092 153.606 266.171 152.743 266.611L145.451 270.326C145.065 270.523 144.596 270.448 144.29 270.142L138.503 264.355C137.818 263.67 136.657 264.262 136.808 265.219L138.089 273.302C138.156 273.73 137.941 274.153 137.555 274.349L130.263 278.065C129.4 278.504 129.604 279.792 130.561 279.943L138.644 281.223C139.072 281.291 139.407 281.627 139.475 282.055L140.755 290.138C140.907 291.094 142.194 291.298 142.634 290.435L146.349 283.143C146.546 282.757 146.969 282.542 147.397 282.61L155.48 283.89C156.436 284.042 157.028 282.88 156.343 282.195L150.556 276.408C150.25 276.102 150.176 275.633 150.373 275.247L154.088 267.956Z"
              fill="#002E6D"/>
        <path d="M66.9984 150.807C66.8957 149.843 65.6203 149.574 65.1373 150.414L64.0266 152.345C63.8106 152.72 63.3774 152.914 62.9535 152.825L60.7741 152.365C59.8262 152.165 59.1763 153.295 59.8256 154.014L61.3186 155.667C61.609 155.988 61.6593 156.46 61.4433 156.835L60.3327 158.766C59.8497 159.606 60.7233 160.573 61.6077 160.178L63.641 159.269C64.0365 159.092 64.5009 159.19 64.7913 159.511L66.2843 161.164C66.9336 161.883 68.1235 161.351 68.0207 160.388L67.7844 158.173C67.7384 157.742 67.9751 157.331 68.3706 157.154L70.4039 156.245C71.2883 155.849 71.15 154.553 70.2021 154.353L68.0227 153.894C67.5988 153.804 67.2807 153.452 67.2347 153.021L66.9984 150.807Z"
              fill="#002E6D"/>
        <path d="M197.571 238.104C197.468 237.141 196.193 236.872 195.71 237.712L194.599 239.642C194.383 240.018 193.95 240.212 193.526 240.122L191.346 239.662C190.398 239.463 189.749 240.592 190.398 241.311L191.891 242.964C192.181 243.286 192.232 243.758 192.016 244.133L190.905 246.064C190.422 246.903 191.296 247.871 192.18 247.475L194.213 246.566C194.609 246.389 195.073 246.487 195.364 246.809L196.857 248.462C197.506 249.181 198.696 248.648 198.593 247.685L198.357 245.47C198.311 245.04 198.547 244.628 198.943 244.451L200.976 243.542C201.861 243.147 201.722 241.851 200.774 241.651L198.595 241.191C198.171 241.102 197.853 240.75 197.807 240.319L197.571 238.104Z"
              fill="#002E6D"/>
        <path d="M28.9794 75.2806C27.5955 73.9246 25.285 75.1317 25.6075 77.0421L27.6956 89.4097C27.8398 90.2641 27.4175 91.1142 26.6495 91.5154L15.5325 97.323C13.8152 98.2201 14.2492 100.791 16.1658 101.074L28.5733 102.91C29.4305 103.037 30.1084 103.701 30.2527 104.556L32.3407 116.923C32.6633 118.834 35.242 119.215 36.104 117.48L41.6842 106.247C42.0697 105.471 42.911 105.032 43.7681 105.158L56.1757 106.994C58.0923 107.278 59.252 104.943 57.8682 103.587L48.9094 94.8092C48.2905 94.2028 48.1325 93.2668 48.518 92.4908L54.0982 81.2579C54.9602 79.5227 53.0983 77.6983 51.381 78.5954L40.264 84.4031C39.496 84.8043 38.557 84.6653 37.9381 84.0589L28.9794 75.2806Z"
              fill="#002E6D"/>
        <path d="M136.753 109.546C136.121 108.812 134.919 109.317 135 110.283L135.186 112.502C135.222 112.934 134.976 113.34 134.577 113.508L132.523 114.37C131.63 114.745 131.739 116.044 132.682 116.266L134.85 116.775C135.272 116.874 135.582 117.233 135.618 117.665L135.804 119.884C135.885 120.85 137.154 121.148 137.656 120.319L138.81 118.414C139.035 118.044 139.472 117.86 139.894 117.959L142.062 118.468C143.005 118.689 143.681 117.574 143.048 116.841L141.593 115.155C141.31 114.827 141.27 114.354 141.495 113.983L142.649 112.078C143.151 111.25 142.299 110.263 141.406 110.638L139.353 111.501C138.954 111.669 138.491 111.56 138.208 111.232L136.753 109.546Z"
              fill="#002E6D"/>
        <path d="M136.753 5.54578C136.121 4.81234 134.919 5.31721 135 6.28255L135.186 8.5021C135.222 8.93381 134.976 9.33972 134.577 9.50752L132.523 10.3703C131.63 10.7455 131.739 12.0443 132.682 12.2657L134.85 12.7748C135.272 12.8738 135.582 13.2331 135.618 13.6648L135.804 15.8843C135.885 16.8497 137.154 17.1476 137.656 16.319L138.81 14.4141C139.035 14.0436 139.472 13.8597 139.894 13.9587L142.062 14.4678C143.005 14.6891 143.681 13.5744 143.048 12.8409L141.593 11.1546C141.31 10.8266 141.27 10.3537 141.495 9.98313L142.649 8.07817C143.151 7.24965 142.299 6.26282 141.406 6.63804L139.353 7.50078C138.954 7.66859 138.491 7.56013 138.208 7.23213L136.753 5.54578Z"
              fill="#002E6D"/>
        <path d="M145.011 207.909C145.076 206.942 143.867 206.457 143.246 207.2L139.727 211.413C139.449 211.746 138.989 211.861 138.587 211.7L133.492 209.655C132.593 209.294 131.758 210.294 132.273 211.115L135.192 215.764C135.422 216.13 135.39 216.604 135.113 216.936L131.593 221.15C130.972 221.893 131.666 222.997 132.605 222.76L137.928 221.421C138.349 221.315 138.789 221.492 139.019 221.858L141.939 226.507C142.454 227.328 143.718 227.01 143.783 226.043L144.154 220.566C144.183 220.134 144.488 219.77 144.908 219.664L150.231 218.324C151.171 218.088 151.259 216.787 150.36 216.426L145.265 214.381C144.863 214.22 144.611 213.818 144.64 213.386L145.011 207.909Z"
              fill="#002E6D"/>
        <path d="M84.2363 264.653C83.7087 263.841 82.4497 264.178 82.399 265.145L82.1469 269.957C82.1242 270.39 81.8255 270.758 81.407 270.87L76.753 272.118C75.8173 272.368 75.7491 273.67 76.6535 274.017L81.1517 275.744C81.5561 275.899 81.8146 276.297 81.7919 276.73L81.5397 281.541C81.489 282.509 82.7059 282.976 83.3155 282.223L86.3477 278.478C86.6203 278.142 87.0788 278.019 87.4832 278.174L91.9814 279.901C92.8858 280.248 93.706 279.235 93.1784 278.423L90.5542 274.382C90.3183 274.018 90.3431 273.544 90.6158 273.208L93.648 269.463C94.2576 268.711 93.5477 267.617 92.612 267.868L87.958 269.115C87.5395 269.227 87.0964 269.057 86.8605 268.694L84.2363 264.653Z"
              fill="#002E6D"/>
        <path d="M83.7899 212.613C83.8807 211.649 82.6843 211.132 82.0439 211.858L80.6868 213.399C80.4004 213.724 79.9373 213.828 79.5396 213.656L77.655 212.841C76.7658 212.457 75.9043 213.435 76.3977 214.269L77.4436 216.035C77.6642 216.408 77.6198 216.881 77.3334 217.206L75.9763 218.746C75.3359 219.473 75.9999 220.595 76.9452 220.383L78.9487 219.935C79.3715 219.84 79.8071 220.028 80.0278 220.401L81.0736 222.168C81.5671 223.001 82.839 222.717 82.9298 221.752L83.1221 219.708C83.1627 219.277 83.4765 218.921 83.8992 218.826L85.9027 218.377C86.848 218.166 86.9702 216.868 86.081 216.484L84.1963 215.669C83.7987 215.497 83.5569 215.089 83.5975 214.657L83.7899 212.613Z"
              fill="#002E6D"/>
    </mask>
    <g mask="url(#mask0_228_438)">
        <rect width="248" height="346" transform="matrix(-1 0 0 1 217.367 -9.66931)" fill="url(#paint0_linear_228_438)"
              fill-opacity="0.3"/>
    </g>
    <defs>
        <linearGradient id="paint0_linear_228_438" x1="124" y1="0" x2="124" y2="346" gradientUnits="userSpaceOnUse">
            <stop stop-color="#0059D3"/>
            <stop offset="1" stop-color="white"/>
        </linearGradient>
    </defs>
</svg>
