<svg width="60" height="47" viewBox="0 0 60 47" fill="none" xmlns="http://www.w3.org/2000/svg">
    <path d="M51.7889 11.121L51.791 11.1192C54.3255 8.96627 56.7014 6.73382 58.9982 4.34205C59.2462 4.05476 59.4877 3.59161 59.6282 3.11062C59.7714 2.6206 59.7916 2.17477 59.6715 1.89683C59.4993 1.55396 59.1437 1.20602 58.708 0.920005C58.2755 0.636016 57.7935 0.432342 57.3975 0.358417C57.3018 0.347991 57.1782 0.371051 57.0233 0.440475C56.8665 0.510749 56.6951 0.620708 56.5147 0.759288C56.1535 1.03685 55.7885 1.40364 55.4684 1.72587C54.1212 3.12216 52.833 4.53882 51.542 5.95862L51.5408 5.9599C50.2505 7.37888 48.9574 8.80101 47.6041 10.2035L47.604 10.2037C41.8643 16.1428 35.0918 20.9548 28.4192 25.5933L28.4174 25.5946C24.3682 28.3562 14.2228 33.0532 10.6719 34.6682C10.4652 34.7623 10.2683 34.8096 10.0971 34.8155C9.9363 34.821 9.75831 34.7905 9.63307 34.6805C9.56508 34.6207 9.51225 34.5356 9.50145 34.4305C9.49093 34.3282 9.52315 34.2359 9.56937 34.1624C9.65467 34.0267 9.80977 33.9169 10.0011 33.8279L10.0024 33.8271L10.0487 33.7974L10.2259 33.6837C10.3794 33.5851 10.6004 33.4427 10.8704 33.2677C11.4104 32.9177 12.1461 32.4377 12.9291 31.9171C14.5015 30.8718 16.2452 29.6758 16.9908 29.0376L16.9908 29.0376L16.9951 29.0341C17.83 28.3511 19.1261 27.0644 19.9048 26.2746C20.291 25.8828 20.543 25.3793 20.6333 24.8336L20.6447 24.7646C20.7737 23.9851 20.4595 23.1984 19.829 22.7222C19.2573 22.2906 18.4816 22.2465 17.8647 22.6106L17.4403 22.8611C16.9861 23.1291 16.5803 23.4581 16.2732 23.865C16.1905 23.9746 16.1114 24.0827 16.032 24.1911C15.77 24.5488 15.5063 24.9089 15.1087 25.3324C14.5887 25.8864 13.8403 26.5498 12.5506 27.4966C9.72918 29.5679 5.48959 33.113 3.4855 34.8081C2.7483 35.4317 2.07597 36.1244 1.46773 36.8761L1.11943 37.3065C0.0639643 38.6108 0.955429 40.5471 2.66617 40.6796L2.66619 40.6794L2.67556 40.6805L2.90976 40.7075C7.60326 41.2496 10.4079 41.5735 13.9412 42.5831C14.2889 42.6302 14.8101 42.7869 15.3973 42.995C16.0024 43.2094 16.6982 43.486 17.3869 43.7768C18.7594 44.3563 20.1222 44.9999 20.6931 45.3281C21.3909 45.7182 21.9932 45.9103 22.5256 45.8664C23.0441 45.8236 23.5407 45.5526 24.0254 44.9145L24.0253 44.9144L24.0305 44.908C24.1659 44.7414 24.2557 44.4821 24.2819 44.151C24.3079 43.8233 24.2698 43.4466 24.1713 43.069C23.9719 42.3044 23.5439 41.5992 22.9914 41.285C21.3782 40.4194 19.3875 39.899 17.3288 39.5298C15.975 39.287 14.6083 39.112 13.307 38.9454C12.628 38.8584 11.9668 38.7738 11.3346 38.6829C11.0401 38.6646 10.8084 38.6545 10.6355 38.647C10.598 38.6454 10.5632 38.6439 10.5312 38.6424C10.4428 38.6384 10.3694 38.6347 10.3178 38.6296C10.2943 38.6273 10.2619 38.6236 10.2316 38.6159C10.2196 38.6128 10.1847 38.6037 10.1482 38.5807C10.1172 38.5611 10.0004 38.4718 10.0341 38.3126C10.0469 38.252 10.0783 38.2117 10.0972 38.1913C10.1169 38.1701 10.1364 38.1563 10.1482 38.1487C10.1715 38.1336 10.1935 38.1243 10.2053 38.1196C10.231 38.1094 10.2599 38.1009 10.2849 38.0941C10.3373 38.0798 10.4113 38.0626 10.5007 38.0422C10.5213 38.0375 10.5429 38.0325 10.5657 38.0274C10.7442 37.9867 10.9895 37.9308 11.3023 37.8519C20.9309 35.4233 29.6616 28.8102 37.8658 22.5959C38.3816 22.2051 38.8954 21.816 39.4071 21.4296C43.6901 18.1556 47.7361 14.6413 51.7889 11.121Z"
          fill="#7689A5" fill-opacity="0.2" stroke="white" stroke-width="0.5"/>
</svg>
