<svg width="27" height="26" viewBox="0 0 27 26" fill="none" xmlns="http://www.w3.org/2000/svg">
    <g clip-path="url(#clip0_228_918)">
        <mask id="mask0_228_918" style="mask-type:luminance" maskUnits="userSpaceOnUse" x="0" y="0" width="27" height="26">
            <path d="M26.1433 0H0.291016V25.8523H26.1433V0Z" fill="white"/>
        </mask>
        <g mask="url(#mask0_228_918)">
            <path d="M13.1626 25.8477H13.2656C18.3986 25.8477 21.378 25.3309 23.4884 23.282C25.6403 21.1086 26.1372 18.1091 26.1372 12.9961V12.8516C26.1372 7.74015 25.6403 4.76069 23.4884 2.56569C21.3795 0.516831 18.3786 0 13.2672 0H13.1641C8.03118 0 5.05016 0.516831 2.93978 2.56569C0.787851 4.73915 0.291016 7.74015 0.291016 12.8516V12.9961C0.291016 18.1075 0.787851 21.0871 2.93978 23.282C5.03018 25.3309 8.03118 25.8477 13.1626 25.8477Z" fill="#346EBD"/>
            <path d="M23.0615 12.7278C23.0615 12.6293 22.9815 12.5478 22.883 12.5432C19.3503 12.4094 17.2003 11.9588 15.6961 10.4546C14.1888 8.94741 13.7397 6.79577 13.6059 3.25533C13.6029 3.1569 13.5213 3.07693 13.4214 3.07693H13.0092C12.9108 3.07693 12.8292 3.1569 12.8246 3.25533C12.6908 6.79423 12.2417 8.94741 10.7345 10.4546C9.22885 11.9603 7.08028 12.4094 3.54754 12.5432C3.44911 12.5463 3.36914 12.6278 3.36914 12.7278V13.1399C3.36914 13.2384 3.44911 13.3199 3.54754 13.3245C7.08028 13.4583 9.23037 13.9089 10.7345 15.4131C12.2387 16.9172 12.6878 19.0628 12.8231 22.5892C12.8262 22.6877 12.9077 22.7677 13.0077 22.7677H13.4214C13.5198 22.7677 13.6013 22.6877 13.6059 22.5892C13.7413 19.0628 14.1904 16.9172 15.6946 15.4131C17.2003 13.9074 19.3487 13.4583 22.8815 13.3245C22.98 13.3214 23.06 13.2399 23.06 13.1399V12.7278H23.0615Z" fill="white"/>
        </g>
    </g>
    <defs>
        <clipPath id="clip0_228_918">
            <rect width="26" height="26" fill="white" transform="translate(0.234375)"/>
        </clipPath>
    </defs>
</svg>
