<svg width="27" height="26" viewBox="0 0 27 26" fill="none" xmlns="http://www.w3.org/2000/svg">
    <g clip-path="url(#clip0_228_914)">
        <path d="M13.2409 0.196976C7.89488 0.196976 6.33138 0.202491 6.02747 0.227703C4.93038 0.3189 4.2477 0.491642 3.50397 0.861945C2.9308 1.14657 2.47877 1.47649 2.03265 1.93898C1.22017 2.7824 0.727765 3.82004 0.549512 5.05346C0.462848 5.65225 0.437637 5.77437 0.432516 8.83291C0.430546 9.85243 0.432516 11.1942 0.432516 12.9939C0.432516 18.3357 0.438425 19.8977 0.46403 20.201C0.552664 21.2686 0.720083 21.9403 1.07462 22.675C1.75217 24.0813 3.04622 25.1371 4.57072 25.531C5.09859 25.6669 5.6816 25.7418 6.43006 25.7772C6.74717 25.791 9.97935 25.8009 13.2135 25.8009C16.4476 25.8009 19.6818 25.7969 19.991 25.7812C20.8577 25.7404 21.3609 25.6728 21.9173 25.529C23.4517 25.1331 24.7221 24.0931 25.4134 22.6671C25.7611 21.9501 25.9373 21.2528 26.0171 20.241C26.0344 20.0204 26.0417 16.5031 26.0417 12.9906C26.0417 9.4774 26.0339 5.96661 26.0165 5.74601C25.9358 4.71782 25.7595 4.02646 25.4006 3.2957C25.1062 2.69751 24.7792 2.25078 24.3045 1.79401C23.4574 0.984854 22.4213 0.49243 21.1868 0.31437C20.5886 0.2279 20.4694 0.202294 17.4086 0.196976H13.2409Z" fill="url(#paint0_radial_228_914)"/>
        <path d="M13.2409 0.196976C7.89488 0.196976 6.33138 0.202491 6.02747 0.227703C4.93038 0.3189 4.2477 0.491642 3.50397 0.861945C2.9308 1.14657 2.47877 1.47649 2.03265 1.93898C1.22017 2.7824 0.727765 3.82004 0.549512 5.05346C0.462848 5.65225 0.437637 5.77437 0.432516 8.83291C0.430546 9.85243 0.432516 11.1942 0.432516 12.9939C0.432516 18.3357 0.438425 19.8977 0.46403 20.201C0.552664 21.2686 0.720083 21.9403 1.07462 22.675C1.75217 24.0813 3.04622 25.1371 4.57072 25.531C5.09859 25.6669 5.6816 25.7418 6.43006 25.7772C6.74717 25.791 9.97935 25.8009 13.2135 25.8009C16.4476 25.8009 19.6818 25.7969 19.991 25.7812C20.8577 25.7404 21.3609 25.6728 21.9173 25.529C23.4517 25.1331 24.7221 24.0931 25.4134 22.6671C25.7611 21.9501 25.9373 21.2528 26.0171 20.241C26.0344 20.0204 26.0417 16.5031 26.0417 12.9906C26.0417 9.4774 26.0339 5.96661 26.0165 5.74601C25.9358 4.71782 25.7595 4.02646 25.4006 3.2957C25.1062 2.69751 24.7792 2.25078 24.3045 1.79401C23.4574 0.984854 22.4213 0.49243 21.1868 0.31437C20.5886 0.2279 20.4694 0.202294 17.4086 0.196976H13.2409Z" fill="#346EBD"/>
        <path d="M13.2343 3.54546C10.6667 3.54546 10.3445 3.55668 9.33604 3.60258C8.32955 3.64867 7.64254 3.80802 7.04141 4.04182C6.4196 4.2833 5.89213 4.60634 5.36663 5.13205C4.84073 5.65756 4.51771 6.18505 4.27545 6.80668C4.04106 7.40803 3.88152 8.09526 3.83622 9.10138C3.79111 10.1099 3.7793 10.4323 3.7793 13C3.7793 15.5677 3.79072 15.889 3.83642 16.8974C3.8827 17.904 4.04205 18.591 4.27565 19.1921C4.51732 19.814 4.84034 20.3415 5.36604 20.867C5.89134 21.3929 6.41881 21.7167 7.04023 21.9582C7.64176 22.192 8.32896 22.3513 9.33525 22.3974C10.3437 22.4433 10.6657 22.4546 13.2332 22.4546C15.801 22.4546 16.1222 22.4433 17.1307 22.3974C18.1372 22.3513 18.825 22.192 19.4265 21.9582C20.0481 21.7167 20.5748 21.3929 21.1001 20.867C21.626 20.3415 21.949 19.814 22.1913 19.1923C22.4237 18.591 22.5832 17.9038 22.6305 16.8976C22.6758 15.8892 22.6876 15.5677 22.6876 13C22.6876 10.4323 22.6758 10.1101 22.6305 9.10158C22.5832 8.09506 22.4237 7.40803 22.1913 6.80688C21.949 6.18505 21.626 5.65756 21.1001 5.13205C20.5742 4.60614 20.0483 4.28311 19.4259 4.04182C18.8232 3.80802 18.1358 3.64867 17.1293 3.60258C16.1208 3.55668 15.7998 3.54546 13.2314 3.54546H13.2343ZM12.3862 5.24924C12.6379 5.24885 12.9188 5.24924 13.2343 5.24924C15.7586 5.24924 16.0578 5.2583 17.0547 5.30361C17.9764 5.34576 18.4767 5.49979 18.81 5.6292C19.2512 5.80056 19.5657 6.00541 19.8964 6.33632C20.2273 6.66723 20.4322 6.98238 20.6039 7.42359C20.7333 7.75647 20.8876 8.25678 20.9295 9.17859C20.9748 10.1753 20.9847 10.4747 20.9847 12.9978C20.9847 15.521 20.9748 15.8204 20.9295 16.8171C20.8874 17.7389 20.7333 18.2392 20.6039 18.5721C20.4326 19.0133 20.2273 19.3275 19.8964 19.6582C19.5655 19.9891 19.2514 20.1939 18.81 20.3653C18.4771 20.4953 17.9764 20.6489 17.0547 20.6911C16.058 20.7364 15.7586 20.7462 13.2343 20.7462C10.7099 20.7462 10.4107 20.7364 9.41404 20.6911C8.49225 20.6485 7.99196 20.4945 7.6585 20.3651C7.2173 20.1937 6.90216 19.9889 6.57126 19.658C6.24036 19.3271 6.03552 19.0127 5.86376 18.5713C5.73436 18.2384 5.58014 17.7381 5.53818 16.8163C5.49288 15.8196 5.48382 15.5202 5.48382 12.9955C5.48382 10.4707 5.49288 10.1729 5.53818 9.17623C5.58033 8.25441 5.73436 7.75411 5.86376 7.42084C6.03512 6.97962 6.24036 6.66447 6.57126 6.33356C6.90216 6.00265 7.2173 5.7978 7.6585 5.62605C7.99176 5.49605 8.49225 5.34241 9.41404 5.30006C10.2862 5.26067 10.6242 5.24885 12.3862 5.24688V5.24924ZM18.2809 6.81909C17.6546 6.81909 17.1464 7.32668 17.1464 7.95324C17.1464 8.57961 17.6546 9.08779 18.2809 9.08779C18.9073 9.08779 19.4155 8.57961 19.4155 7.95324C19.4155 7.32688 18.9073 6.81909 18.2809 6.81909ZM13.2343 8.1447C10.5531 8.1447 8.37919 10.3187 8.37919 13C8.37919 15.6814 10.5531 17.8543 13.2343 17.8543C15.9156 17.8543 18.0887 15.6814 18.0887 13C18.0887 10.3187 15.9156 8.1447 13.2343 8.1447ZM13.2343 9.84849C14.9747 9.84849 16.3858 11.2594 16.3858 13C16.3858 14.7404 14.9747 16.1515 13.2343 16.1515C11.4938 16.1515 10.0829 14.7404 10.0829 13C10.0829 11.2594 11.4938 9.84849 13.2343 9.84849Z" fill="white"/>
    </g>
    <defs>
        <radialGradient id="paint0_radial_228_914" cx="0" cy="0" r="1" gradientUnits="userSpaceOnUse" gradientTransform="translate(7.23435 27.7729) rotate(-90) scale(25.3753 23.6068)">
            <stop stop-color="#FFDD55"/>
            <stop offset="0.1" stop-color="#FFDD55"/>
            <stop offset="0.5" stop-color="#FF543E"/>
            <stop offset="1" stop-color="#C837AB"/>
        </radialGradient>
        <clipPath id="clip0_228_914">
            <rect width="26" height="26" fill="white" transform="translate(0.234375)"/>
        </clipPath>
    </defs>
</svg>
