<svg width="27" height="26" viewBox="0 0 27 26" fill="none" xmlns="http://www.w3.org/2000/svg">
    <rect x="0.234375" width="26" height="26" rx="8" fill="#346EBD"/>
    <path fill-rule="evenodd" clip-rule="evenodd" d="M6.11536 12.8646C9.90544 11.2187 12.4286 10.1249 13.6955 9.59433C17.3015 8.08913 18.0595 7.82923 18.5468 7.81841C18.6551 7.81841 18.8934 7.84006 19.0558 7.97001C19.1857 8.0783 19.2182 8.21907 19.2399 8.32736C19.2615 8.43565 19.2832 8.66305 19.2615 8.83631C19.0666 10.8938 18.222 15.8859 17.7888 18.1816C17.6047 19.1562 17.2474 19.481 16.9009 19.5135C16.1428 19.5785 15.5689 19.0154 14.8434 18.5389C13.6955 17.7917 13.0566 17.3261 11.9413 16.5898C10.6526 15.7451 11.4865 15.2795 12.2228 14.5214C12.4177 14.3265 15.7422 11.2945 15.8072 11.0237C15.818 10.9913 15.818 10.8613 15.7422 10.7963C15.6664 10.7314 15.5581 10.753 15.4715 10.7747C15.3523 10.7963 13.5331 12.0092 9.99207 14.4023C9.47229 14.7597 9.00665 14.9329 8.58433 14.9221C8.11869 14.9113 7.23073 14.6622 6.55934 14.4456C5.74718 14.1858 5.09745 14.045 5.15159 13.5902C5.18408 13.3519 5.50894 13.1137 6.11536 12.8646Z" fill="white"/>
</svg>
