<svg width="27" height="26" viewBox="0 0 27 26" fill="none" xmlns="http://www.w3.org/2000/svg">
    <g clip-path="url(#clip0_764_66)">
        <path d="M0.234375 12.48C0.234375 6.59685 0.234375 3.65531 2.06203 1.82765C3.88968 0 6.83123 0 12.7144 0H13.7544C19.6375 0 22.579 0 24.4067 1.82765C26.2344 3.65531 26.2344 6.59685 26.2344 12.48V13.52C26.2344 19.4032 26.2344 22.3447 24.4067 24.1724C22.579 26 19.6375 26 13.7544 26H12.7144C6.83123 26 3.88968 26 2.06203 24.1724C0.234375 22.3447 0.234375 19.4032 0.234375 13.52V12.48Z" fill="#346EBD"/>
        <path d="M14.0677 18.7309C8.14187 18.7309 4.76193 14.6684 4.62109 7.90839H7.58943C7.68693 12.8701 9.87521 14.9717 11.6085 15.4051V7.90839H14.4036V12.1876C16.1153 12.0034 17.9134 10.0534 18.5201 7.90839H21.3152C20.8493 10.5517 18.8993 12.5017 17.5127 13.3034C18.8993 13.9534 21.1203 15.6542 21.9653 18.7309H18.8885C18.2277 16.6726 16.5811 15.0801 14.4036 14.8634V18.7309H14.0677Z" fill="white"/>
    </g>
    <defs>
        <clipPath id="clip0_764_66">
            <rect width="26" height="26" fill="white" transform="translate(0.234375)"/>
        </clipPath>
    </defs>
</svg>
