<svg width="26" height="26" viewBox="0 0 26 26" fill="none" xmlns="http://www.w3.org/2000/svg">
    <path d="M13.1052 0C13.1052 0 7.18744 1.01216e-05 4.27306 0.757298C2.7126 1.19331 1.42768 2.47824 0.991673 4.06165C0.234392 6.97603 0.234375 13.0115 0.234375 13.0115C0.234375 13.0115 0.234392 19.0698 0.991673 21.9384C1.42768 23.5217 2.68965 24.7837 4.27306 25.2197C7.21039 26 13.1052 26 13.1052 26C13.1052 26 19.046 26 21.9604 25.2427C23.5438 24.8067 24.8057 23.5677 25.2188 21.9613C25.999 19.0698 25.999 13.0344 25.999 13.0344C25.999 13.0344 26.022 6.97603 25.2188 4.06165C24.8057 2.47824 23.5438 1.21628 21.9604 0.803217C19.046 3.63216e-05 13.1052 0 13.1052 0ZM9.41057 10.1409C9.41057 8.96288 10.7062 8.24459 11.7053 8.8687L16.2964 11.7367C17.2378 12.3248 17.2365 13.6962 16.294 14.2825L11.7029 17.1387C10.7037 17.7603 9.41057 17.0418 9.41057 15.865V13.0344V10.1409Z"
          fill="#346EBD"/>
</svg>
