<svg width="51" height="50" viewBox="0 0 51 50" fill="none" xmlns="http://www.w3.org/2000/svg">
    <g clip-path="url(#clip0_485_673)">
        <mask id="path-1-outside-1_485_673" maskUnits="userSpaceOnUse" x="-0.353516" y="0.126465" width="51" height="50"
              fill="black">
            <rect fill="white" x="-0.353516" y="0.126465" width="51" height="50"/>
            <path d="M16.8613 23.9826H16.6762C13.8593 14.3153 14.4145 15.0558 13.8799 14.5416C13.7835 14.4474 13.6589 14.3873 13.5252 14.3707C13.3915 14.354 13.256 14.3816 13.1394 14.4492C13.0228 14.5168 12.9316 14.6208 12.8797 14.7452C12.8277 14.8696 12.818 15.0076 12.8518 15.1381C15.6276 27.0473 14.7435 23.5095 14.908 24.1677C15.0083 24.6355 15.2685 25.0537 15.6438 25.3503C16.019 25.6468 16.4859 25.8033 16.9641 25.7926C20.9246 25.9815 24.8928 25.9403 28.8485 25.6692C29.8971 25.5664 32.6523 26.2246 33.3925 24.5585C34.2238 22.291 34.803 19.9389 35.1197 17.5446C35.3392 16.7081 35.4905 15.8551 35.572 14.9941C35.6462 14.5442 35.584 14.0823 35.3935 13.6681C35.2029 13.2538 34.8927 12.9061 34.5029 12.6698C33.7317 12.475 32.9487 12.3308 32.1589 12.2379H29.9999V10.8392C29.8275 9.64919 29.2764 8.5464 28.4283 7.69428C27.5802 6.84217 26.4802 6.28607 25.2914 6.10841C24.0931 5.98961 22.8842 6.17349 21.7754 6.6432C20.6869 7.13117 19.7806 7.951 19.186 8.98542C18.5914 10.0198 18.3391 11.2159 18.4651 12.4024C17.2314 12.4024 15.9977 12.5464 14.8052 12.567C14.6197 12.567 14.4419 12.6407 14.3108 12.7718C14.1797 12.903 14.1061 13.0808 14.1061 13.2663C14.1061 14.6033 16.1622 13.7188 25.0447 13.8628C27.3681 13.8628 31.7682 14.2947 31.9327 14.3153C32.4236 14.368 32.9028 14.5 33.3514 14.7061C33.2419 15.5037 33.056 16.2889 32.7963 17.0509C32.4538 19.1393 31.966 21.2012 31.3364 23.2215C31.1308 23.2215 30.699 23.3861 30.3495 23.3861H28.5401C27.0802 23.5506 17.8482 24.1883 16.8613 23.9826ZM25.0858 12.0528C19.3903 12.1967 19.8015 12.5875 19.8427 12.0528C20.0072 10.2427 21.8988 8.24756 25.2708 8.45324C25.9904 8.56812 26.6638 8.88099 27.2157 9.35685C27.7677 9.83271 28.1764 10.4528 28.3962 11.1477L28.5401 12.135C27.3475 12.0322 26.1961 12.0116 25.0447 12.0528H25.0858Z"/>
            <path d="M21.5942 16.9276C21.568 16.7858 21.493 16.6577 21.3822 16.5655C21.2714 16.4732 21.1318 16.4227 20.9877 16.4227C20.8435 16.4227 20.7039 16.4732 20.5931 16.5655C20.4823 16.6577 20.4073 16.7858 20.3811 16.9276C20.0959 17.698 20.0198 18.5302 20.1607 19.3395C20.3015 20.1489 20.6543 20.9064 21.183 21.535C21.2488 21.6918 21.3696 21.8191 21.5225 21.8933C21.6755 21.9675 21.8502 21.9834 22.014 21.938C22.1779 21.8926 22.3195 21.7891 22.4126 21.6468C22.5056 21.5044 22.5436 21.3331 22.5195 21.1648C22.355 17.051 22.0466 18.244 21.5942 16.9276Z"/>
            <path d="M26.6708 22.0904C27.4318 21.4082 27.9857 20.5258 28.2693 19.5438C28.5529 18.5618 28.5547 17.5198 28.2746 16.5368C28.24 16.3797 28.1454 16.2422 28.011 16.1539C27.8765 16.0655 27.7129 16.0331 27.555 16.0637C26.9489 16.8004 26.4981 17.6522 26.2295 18.5677C25.961 19.4832 25.8803 20.4435 25.9923 21.391C25.9922 21.573 26.0631 21.7478 26.1898 21.8784C26.3165 22.009 26.489 22.085 26.6708 22.0904Z"/>
            <path d="M49.2061 12.2176C48.9593 9.85219 49.0416 4.99799 47.335 3.68159C43.3872 0.616858 34.7309 1.43961 29.2205 1.21335C21.9829 0.90482 14.5603 1.50131 7.40497 1.707C7.2427 1.73515 7.09557 1.81971 6.98953 1.94577C6.88349 2.07183 6.82534 2.23129 6.82534 2.39605C6.82534 2.5608 6.88349 2.72027 6.98953 2.84633C7.09557 2.97239 7.2427 3.05695 7.40497 3.0851C14.5397 2.98226 21.9212 2.50918 29.1177 2.92055C34.1758 3.20851 42.8321 2.65316 46.0807 5.24481C46.9032 5.90301 46.9238 10.7366 47.0882 12.4233C47.7801 18.4204 47.8352 24.4739 47.2527 30.4826C47.1558 32.4912 46.8457 34.4839 46.3275 36.4269C41.475 39.0803 5.98625 41.3634 3.76563 37.5376C3.15352 35.5185 2.78762 33.4328 2.67588 31.3259H2.81981C3.70577 31.192 4.60682 31.192 5.49277 31.3259H17.0688C22.353 31.3259 30.1046 30.8528 34.3402 30.9557C37.2612 30.864 40.1849 30.9258 43.0994 31.1408C43.2638 31.1408 44.9293 29.6187 40.3441 29.4953C30.4542 28.7959 25.9512 28.1789 5.57502 29.9067C4.59022 29.8204 3.59798 29.8898 2.63476 30.1123C2.01792 23.3041 2.03848 19.828 3.37496 5.30652C3.35947 4.86372 3.45863 4.42443 3.66282 4.03126C3.75191 3.91243 3.79516 3.76544 3.78464 3.61728C3.77411 3.46912 3.71051 3.32973 3.60552 3.22469C3.50053 3.11966 3.36119 3.05604 3.21308 3.04551C3.06497 3.03498 2.91803 3.07825 2.79925 3.16737C1.91511 4.01069 2.0796 6.76689 1.93567 7.73362C1.79174 8.70035 1.64782 9.87276 1.52445 10.9629C0.708145 16.725 0.460217 22.5534 0.784242 28.364C0.83693 31.7735 1.29946 35.1643 2.16185 38.4632C3.78619 41.4457 14.0257 41.6719 17.5828 41.7336C16.5667 43.3371 16.1112 45.2324 16.2874 47.1226L11.8668 47.4517C11.7778 47.4353 11.6862 47.4386 11.5987 47.4615C11.5111 47.4844 11.4297 47.5263 11.3601 47.5842C11.2905 47.6421 11.2345 47.7146 11.1961 47.7966C11.1577 47.8785 11.1378 47.968 11.1378 48.0585C11.1378 48.149 11.1577 48.2385 11.1961 48.3204C11.2345 48.4024 11.2905 48.4749 11.3601 48.5328C11.4297 48.5907 11.5111 48.6326 11.5987 48.6555C11.6862 48.6784 11.7778 48.6817 11.8668 48.6653C17.242 49.1035 22.6374 49.2408 28.0279 49.0767C30.8654 48.9532 33.7851 48.6241 36.7254 48.3979C36.8258 48.4153 36.9288 48.4106 37.0272 48.384C37.1256 48.3574 37.2169 48.3096 37.2949 48.2439C37.3729 48.1783 37.4356 48.0964 37.4786 48.0039C37.5216 47.9115 37.5439 47.8108 37.5439 47.7088C37.5439 47.6069 37.5216 47.5062 37.4786 47.4137C37.4356 47.3213 37.3729 47.2394 37.2949 47.1737C37.2169 47.1081 37.1256 47.0603 37.0272 47.0337C36.9288 47.0071 36.8258 47.0024 36.7254 47.0198H32.9421C32.6606 45.0601 32.1069 43.1493 31.2972 41.3428C34.1552 41.1371 46.8209 40.1704 48.3425 37.7639C48.7145 37.0379 48.9514 36.2504 49.0416 35.4396C50.218 27.7476 50.2734 19.9255 49.2061 12.2176ZM31.2972 46.9375C24.9232 46.7935 22.2091 46.7935 17.8501 46.9375C18.7011 45.2992 19.2249 43.5107 19.3922 41.6719C22.8259 41.6719 26.1157 41.5691 29.2616 41.3634C29.494 43.3554 30.1913 45.2648 31.2972 46.9375Z"/>
            <path d="M25.1509 33.1769C23.4031 32.2513 21.2648 34.0408 22.8274 35.6245C23.0187 35.8051 23.2452 35.9443 23.4928 36.0333C23.7403 36.1223 24.0035 36.1593 24.2659 36.1419C24.5284 36.1245 24.7844 36.0532 25.0181 35.9323C25.2517 35.8114 25.4579 35.6436 25.6238 35.4394C25.8095 35.0638 25.8639 34.6366 25.7781 34.2264C25.6924 33.8162 25.4715 33.4466 25.1509 33.1769Z"/>
        </mask>
        <path d="M16.8613 23.9826H16.6762C13.8593 14.3153 14.4145 15.0558 13.8799 14.5416C13.7835 14.4474 13.6589 14.3873 13.5252 14.3707C13.3915 14.354 13.256 14.3816 13.1394 14.4492C13.0228 14.5168 12.9316 14.6208 12.8797 14.7452C12.8277 14.8696 12.818 15.0076 12.8518 15.1381C15.6276 27.0473 14.7435 23.5095 14.908 24.1677C15.0083 24.6355 15.2685 25.0537 15.6438 25.3503C16.019 25.6468 16.4859 25.8033 16.9641 25.7926C20.9246 25.9815 24.8928 25.9403 28.8485 25.6692C29.8971 25.5664 32.6523 26.2246 33.3925 24.5585C34.2238 22.291 34.803 19.9389 35.1197 17.5446C35.3392 16.7081 35.4905 15.8551 35.572 14.9941C35.6462 14.5442 35.584 14.0823 35.3935 13.6681C35.2029 13.2538 34.8927 12.9061 34.5029 12.6698C33.7317 12.475 32.9487 12.3308 32.1589 12.2379H29.9999V10.8392C29.8275 9.64919 29.2764 8.5464 28.4283 7.69428C27.5802 6.84217 26.4802 6.28607 25.2914 6.10841C24.0931 5.98961 22.8842 6.17349 21.7754 6.6432C20.6869 7.13117 19.7806 7.951 19.186 8.98542C18.5914 10.0198 18.3391 11.2159 18.4651 12.4024C17.2314 12.4024 15.9977 12.5464 14.8052 12.567C14.6197 12.567 14.4419 12.6407 14.3108 12.7718C14.1797 12.903 14.1061 13.0808 14.1061 13.2663C14.1061 14.6033 16.1622 13.7188 25.0447 13.8628C27.3681 13.8628 31.7682 14.2947 31.9327 14.3153C32.4236 14.368 32.9028 14.5 33.3514 14.7061C33.2419 15.5037 33.056 16.2889 32.7963 17.0509C32.4538 19.1393 31.966 21.2012 31.3364 23.2215C31.1308 23.2215 30.699 23.3861 30.3495 23.3861H28.5401C27.0802 23.5506 17.8482 24.1883 16.8613 23.9826ZM25.0858 12.0528C19.3903 12.1967 19.8015 12.5875 19.8427 12.0528C20.0072 10.2427 21.8988 8.24756 25.2708 8.45324C25.9904 8.56812 26.6638 8.88099 27.2157 9.35685C27.7677 9.83271 28.1764 10.4528 28.3962 11.1477L28.5401 12.135C27.3475 12.0322 26.1961 12.0116 25.0447 12.0528H25.0858Z"
              fill="#346EBD"/>
        <path d="M21.5942 16.9276C21.568 16.7858 21.493 16.6577 21.3822 16.5655C21.2714 16.4732 21.1318 16.4227 20.9877 16.4227C20.8435 16.4227 20.7039 16.4732 20.5931 16.5655C20.4823 16.6577 20.4073 16.7858 20.3811 16.9276C20.0959 17.698 20.0198 18.5302 20.1607 19.3395C20.3015 20.1489 20.6543 20.9064 21.183 21.535C21.2488 21.6918 21.3696 21.8191 21.5225 21.8933C21.6755 21.9675 21.8502 21.9834 22.014 21.938C22.1779 21.8926 22.3195 21.7891 22.4126 21.6468C22.5056 21.5044 22.5436 21.3331 22.5195 21.1648C22.355 17.051 22.0466 18.244 21.5942 16.9276Z"
              fill="#346EBD"/>
        <path d="M26.6708 22.0904C27.4318 21.4082 27.9857 20.5258 28.2693 19.5438C28.5529 18.5618 28.5547 17.5198 28.2746 16.5368C28.24 16.3797 28.1454 16.2422 28.011 16.1539C27.8765 16.0655 27.7129 16.0331 27.555 16.0637C26.9489 16.8004 26.4981 17.6522 26.2295 18.5677C25.961 19.4832 25.8803 20.4435 25.9923 21.391C25.9922 21.573 26.0631 21.7478 26.1898 21.8784C26.3165 22.009 26.489 22.085 26.6708 22.0904Z"
              fill="#346EBD"/>
        <path d="M49.2061 12.2176C48.9593 9.85219 49.0416 4.99799 47.335 3.68159C43.3872 0.616858 34.7309 1.43961 29.2205 1.21335C21.9829 0.90482 14.5603 1.50131 7.40497 1.707C7.2427 1.73515 7.09557 1.81971 6.98953 1.94577C6.88349 2.07183 6.82534 2.23129 6.82534 2.39605C6.82534 2.5608 6.88349 2.72027 6.98953 2.84633C7.09557 2.97239 7.2427 3.05695 7.40497 3.0851C14.5397 2.98226 21.9212 2.50918 29.1177 2.92055C34.1758 3.20851 42.8321 2.65316 46.0807 5.24481C46.9032 5.90301 46.9238 10.7366 47.0882 12.4233C47.7801 18.4204 47.8352 24.4739 47.2527 30.4826C47.1558 32.4912 46.8457 34.4839 46.3275 36.4269C41.475 39.0803 5.98625 41.3634 3.76563 37.5376C3.15352 35.5185 2.78762 33.4328 2.67588 31.3259H2.81981C3.70577 31.192 4.60682 31.192 5.49277 31.3259H17.0688C22.353 31.3259 30.1046 30.8528 34.3402 30.9557C37.2612 30.864 40.1849 30.9258 43.0994 31.1408C43.2638 31.1408 44.9293 29.6187 40.3441 29.4953C30.4542 28.7959 25.9512 28.1789 5.57502 29.9067C4.59022 29.8204 3.59798 29.8898 2.63476 30.1123C2.01792 23.3041 2.03848 19.828 3.37496 5.30652C3.35947 4.86372 3.45863 4.42443 3.66282 4.03126C3.75191 3.91243 3.79516 3.76544 3.78464 3.61728C3.77411 3.46912 3.71051 3.32973 3.60552 3.22469C3.50053 3.11966 3.36119 3.05604 3.21308 3.04551C3.06497 3.03498 2.91803 3.07825 2.79925 3.16737C1.91511 4.01069 2.0796 6.76689 1.93567 7.73362C1.79174 8.70035 1.64782 9.87276 1.52445 10.9629C0.708145 16.725 0.460217 22.5534 0.784242 28.364C0.83693 31.7735 1.29946 35.1643 2.16185 38.4632C3.78619 41.4457 14.0257 41.6719 17.5828 41.7336C16.5667 43.3371 16.1112 45.2324 16.2874 47.1226L11.8668 47.4517C11.7778 47.4353 11.6862 47.4386 11.5987 47.4615C11.5111 47.4844 11.4297 47.5263 11.3601 47.5842C11.2905 47.6421 11.2345 47.7146 11.1961 47.7966C11.1577 47.8785 11.1378 47.968 11.1378 48.0585C11.1378 48.149 11.1577 48.2385 11.1961 48.3204C11.2345 48.4024 11.2905 48.4749 11.3601 48.5328C11.4297 48.5907 11.5111 48.6326 11.5987 48.6555C11.6862 48.6784 11.7778 48.6817 11.8668 48.6653C17.242 49.1035 22.6374 49.2408 28.0279 49.0767C30.8654 48.9532 33.7851 48.6241 36.7254 48.3979C36.8258 48.4153 36.9288 48.4106 37.0272 48.384C37.1256 48.3574 37.2169 48.3096 37.2949 48.2439C37.3729 48.1783 37.4356 48.0964 37.4786 48.0039C37.5216 47.9115 37.5439 47.8108 37.5439 47.7088C37.5439 47.6069 37.5216 47.5062 37.4786 47.4137C37.4356 47.3213 37.3729 47.2394 37.2949 47.1737C37.2169 47.1081 37.1256 47.0603 37.0272 47.0337C36.9288 47.0071 36.8258 47.0024 36.7254 47.0198H32.9421C32.6606 45.0601 32.1069 43.1493 31.2972 41.3428C34.1552 41.1371 46.8209 40.1704 48.3425 37.7639C48.7145 37.0379 48.9514 36.2504 49.0416 35.4396C50.218 27.7476 50.2734 19.9255 49.2061 12.2176ZM31.2972 46.9375C24.9232 46.7935 22.2091 46.7935 17.8501 46.9375C18.7011 45.2992 19.2249 43.5107 19.3922 41.6719C22.8259 41.6719 26.1157 41.5691 29.2616 41.3634C29.494 43.3554 30.1913 45.2648 31.2972 46.9375Z"
              fill="#346EBD"/>
        <path d="M25.1509 33.1769C23.4031 32.2513 21.2648 34.0408 22.8274 35.6245C23.0187 35.8051 23.2452 35.9443 23.4928 36.0333C23.7403 36.1223 24.0035 36.1593 24.2659 36.1419C24.5284 36.1245 24.7844 36.0532 25.0181 35.9323C25.2517 35.8114 25.4579 35.6436 25.6238 35.4394C25.8095 35.0638 25.8639 34.6366 25.7781 34.2264C25.6924 33.8162 25.4715 33.4466 25.1509 33.1769Z"
              fill="#346EBD"/>
        <path d="M16.8613 23.9826H16.6762C13.8593 14.3153 14.4145 15.0558 13.8799 14.5416C13.7835 14.4474 13.6589 14.3873 13.5252 14.3707C13.3915 14.354 13.256 14.3816 13.1394 14.4492C13.0228 14.5168 12.9316 14.6208 12.8797 14.7452C12.8277 14.8696 12.818 15.0076 12.8518 15.1381C15.6276 27.0473 14.7435 23.5095 14.908 24.1677C15.0083 24.6355 15.2685 25.0537 15.6438 25.3503C16.019 25.6468 16.4859 25.8033 16.9641 25.7926C20.9246 25.9815 24.8928 25.9403 28.8485 25.6692C29.8971 25.5664 32.6523 26.2246 33.3925 24.5585C34.2238 22.291 34.803 19.9389 35.1197 17.5446C35.3392 16.7081 35.4905 15.8551 35.572 14.9941C35.6462 14.5442 35.584 14.0823 35.3935 13.6681C35.2029 13.2538 34.8927 12.9061 34.5029 12.6698C33.7317 12.475 32.9487 12.3308 32.1589 12.2379H29.9999V10.8392C29.8275 9.64919 29.2764 8.5464 28.4283 7.69428C27.5802 6.84217 26.4802 6.28607 25.2914 6.10841C24.0931 5.98961 22.8842 6.17349 21.7754 6.6432C20.6869 7.13117 19.7806 7.951 19.186 8.98542C18.5914 10.0198 18.3391 11.2159 18.4651 12.4024C17.2314 12.4024 15.9977 12.5464 14.8052 12.567C14.6197 12.567 14.4419 12.6407 14.3108 12.7718C14.1797 12.903 14.1061 13.0808 14.1061 13.2663C14.1061 14.6033 16.1622 13.7188 25.0447 13.8628C27.3681 13.8628 31.7682 14.2947 31.9327 14.3153C32.4236 14.368 32.9028 14.5 33.3514 14.7061C33.2419 15.5037 33.056 16.2889 32.7963 17.0509C32.4538 19.1393 31.966 21.2012 31.3364 23.2215C31.1308 23.2215 30.699 23.3861 30.3495 23.3861H28.5401C27.0802 23.5506 17.8482 24.1883 16.8613 23.9826ZM25.0858 12.0528C19.3903 12.1967 19.8015 12.5875 19.8427 12.0528C20.0072 10.2427 21.8988 8.24756 25.2708 8.45324C25.9904 8.56812 26.6638 8.88099 27.2157 9.35685C27.7677 9.83271 28.1764 10.4528 28.3962 11.1477L28.5401 12.135C27.3475 12.0322 26.1961 12.0116 25.0447 12.0528H25.0858Z"
              stroke="#346EBD" stroke-width="1.2" mask="url(#path-1-outside-1_485_673)"/>
        <path d="M21.5942 16.9276C21.568 16.7858 21.493 16.6577 21.3822 16.5655C21.2714 16.4732 21.1318 16.4227 20.9877 16.4227C20.8435 16.4227 20.7039 16.4732 20.5931 16.5655C20.4823 16.6577 20.4073 16.7858 20.3811 16.9276C20.0959 17.698 20.0198 18.5302 20.1607 19.3395C20.3015 20.1489 20.6543 20.9064 21.183 21.535C21.2488 21.6918 21.3696 21.8191 21.5225 21.8933C21.6755 21.9675 21.8502 21.9834 22.014 21.938C22.1779 21.8926 22.3195 21.7891 22.4126 21.6468C22.5056 21.5044 22.5436 21.3331 22.5195 21.1648C22.355 17.051 22.0466 18.244 21.5942 16.9276Z"
              stroke="#346EBD" stroke-width="1.2" mask="url(#path-1-outside-1_485_673)"/>
        <path d="M26.6708 22.0904C27.4318 21.4082 27.9857 20.5258 28.2693 19.5438C28.5529 18.5618 28.5547 17.5198 28.2746 16.5368C28.24 16.3797 28.1454 16.2422 28.011 16.1539C27.8765 16.0655 27.7129 16.0331 27.555 16.0637C26.9489 16.8004 26.4981 17.6522 26.2295 18.5677C25.961 19.4832 25.8803 20.4435 25.9923 21.391C25.9922 21.573 26.0631 21.7478 26.1898 21.8784C26.3165 22.009 26.489 22.085 26.6708 22.0904Z"
              stroke="#346EBD" stroke-width="1.2" mask="url(#path-1-outside-1_485_673)"/>
        <path d="M49.2061 12.2176C48.9593 9.85219 49.0416 4.99799 47.335 3.68159C43.3872 0.616858 34.7309 1.43961 29.2205 1.21335C21.9829 0.90482 14.5603 1.50131 7.40497 1.707C7.2427 1.73515 7.09557 1.81971 6.98953 1.94577C6.88349 2.07183 6.82534 2.23129 6.82534 2.39605C6.82534 2.5608 6.88349 2.72027 6.98953 2.84633C7.09557 2.97239 7.2427 3.05695 7.40497 3.0851C14.5397 2.98226 21.9212 2.50918 29.1177 2.92055C34.1758 3.20851 42.8321 2.65316 46.0807 5.24481C46.9032 5.90301 46.9238 10.7366 47.0882 12.4233C47.7801 18.4204 47.8352 24.4739 47.2527 30.4826C47.1558 32.4912 46.8457 34.4839 46.3275 36.4269C41.475 39.0803 5.98625 41.3634 3.76563 37.5376C3.15352 35.5185 2.78762 33.4328 2.67588 31.3259H2.81981C3.70577 31.192 4.60682 31.192 5.49277 31.3259H17.0688C22.353 31.3259 30.1046 30.8528 34.3402 30.9557C37.2612 30.864 40.1849 30.9258 43.0994 31.1408C43.2638 31.1408 44.9293 29.6187 40.3441 29.4953C30.4542 28.7959 25.9512 28.1789 5.57502 29.9067C4.59022 29.8204 3.59798 29.8898 2.63476 30.1123C2.01792 23.3041 2.03848 19.828 3.37496 5.30652C3.35947 4.86372 3.45863 4.42443 3.66282 4.03126C3.75191 3.91243 3.79516 3.76544 3.78464 3.61728C3.77411 3.46912 3.71051 3.32973 3.60552 3.22469C3.50053 3.11966 3.36119 3.05604 3.21308 3.04551C3.06497 3.03498 2.91803 3.07825 2.79925 3.16737C1.91511 4.01069 2.0796 6.76689 1.93567 7.73362C1.79174 8.70035 1.64782 9.87276 1.52445 10.9629C0.708145 16.725 0.460217 22.5534 0.784242 28.364C0.83693 31.7735 1.29946 35.1643 2.16185 38.4632C3.78619 41.4457 14.0257 41.6719 17.5828 41.7336C16.5667 43.3371 16.1112 45.2324 16.2874 47.1226L11.8668 47.4517C11.7778 47.4353 11.6862 47.4386 11.5987 47.4615C11.5111 47.4844 11.4297 47.5263 11.3601 47.5842C11.2905 47.6421 11.2345 47.7146 11.1961 47.7966C11.1577 47.8785 11.1378 47.968 11.1378 48.0585C11.1378 48.149 11.1577 48.2385 11.1961 48.3204C11.2345 48.4024 11.2905 48.4749 11.3601 48.5328C11.4297 48.5907 11.5111 48.6326 11.5987 48.6555C11.6862 48.6784 11.7778 48.6817 11.8668 48.6653C17.242 49.1035 22.6374 49.2408 28.0279 49.0767C30.8654 48.9532 33.7851 48.6241 36.7254 48.3979C36.8258 48.4153 36.9288 48.4106 37.0272 48.384C37.1256 48.3574 37.2169 48.3096 37.2949 48.2439C37.3729 48.1783 37.4356 48.0964 37.4786 48.0039C37.5216 47.9115 37.5439 47.8108 37.5439 47.7088C37.5439 47.6069 37.5216 47.5062 37.4786 47.4137C37.4356 47.3213 37.3729 47.2394 37.2949 47.1737C37.2169 47.1081 37.1256 47.0603 37.0272 47.0337C36.9288 47.0071 36.8258 47.0024 36.7254 47.0198H32.9421C32.6606 45.0601 32.1069 43.1493 31.2972 41.3428C34.1552 41.1371 46.8209 40.1704 48.3425 37.7639C48.7145 37.0379 48.9514 36.2504 49.0416 35.4396C50.218 27.7476 50.2734 19.9255 49.2061 12.2176ZM31.2972 46.9375C24.9232 46.7935 22.2091 46.7935 17.8501 46.9375C18.7011 45.2992 19.2249 43.5107 19.3922 41.6719C22.8259 41.6719 26.1157 41.5691 29.2616 41.3634C29.494 43.3554 30.1913 45.2648 31.2972 46.9375Z"
              stroke="#346EBD" stroke-width="1.2" mask="url(#path-1-outside-1_485_673)"/>
        <path d="M25.1509 33.1769C23.4031 32.2513 21.2648 34.0408 22.8274 35.6245C23.0187 35.8051 23.2452 35.9443 23.4928 36.0333C23.7403 36.1223 24.0035 36.1593 24.2659 36.1419C24.5284 36.1245 24.7844 36.0532 25.0181 35.9323C25.2517 35.8114 25.4579 35.6436 25.6238 35.4394C25.8095 35.0638 25.8639 34.6366 25.7781 34.2264C25.6924 33.8162 25.4715 33.4466 25.1509 33.1769Z"
              stroke="#346EBD" stroke-width="1.2" mask="url(#path-1-outside-1_485_673)"/>
    </g>
    <defs>
        <clipPath id="clip0_485_673">
            <rect width="51" height="50" fill="white"/>
        </clipPath>
    </defs>
</svg>
