<svg width="99" height="40" viewBox="0 0 99 40" fill="none" xmlns="http://www.w3.org/2000/svg">
    <g clip-path="url(#clip0_485_658)">
        <path d="M39.041 15.9223H43.4279V4.28141H49.221V0.286865H39.041V15.9223Z" fill="#8755CE"/>
        <path d="M29.9786 12.4363C29.4993 12.4582 29.0204 12.3814 28.5729 12.211C28.1253 12.0406 27.719 11.7801 27.3796 11.4466C27.0402 11.1129 26.7753 10.7132 26.602 10.2731C26.4287 9.83294 26.3508 9.36234 26.3729 8.8908H37.1899C37.1899 8.8908 37.262 8.08716 37.262 7.25989C37.262 2.53262 34.4135 -0.0673828 29.9666 -0.0673828C25.2672 -0.0673828 21.998 3.3008 21.998 8.1108C21.998 12.9208 25.2191 16.3835 29.9185 16.3835C34.2813 16.3835 37.2139 13.9017 37.2981 10.2617H33.0073C32.8782 10.9349 32.4932 11.5343 31.9304 11.9382C31.368 12.3422 30.6699 12.5202 29.9786 12.4363ZM29.9786 3.52534C30.3401 3.47571 30.7079 3.49793 31.0605 3.59082C31.4131 3.68347 31.7432 3.84491 32.0312 4.0652C32.3191 4.28549 32.5593 4.56062 32.7374 4.8738C32.9153 5.18722 33.0275 5.53231 33.0674 5.88898H26.6133C26.8306 5.17587 27.2851 4.55518 27.9041 4.12642C28.5231 3.69789 29.2707 3.48611 30.0267 3.52534H29.9786Z" fill="#8755CE"/>
        <path d="M14.354 0.286865L11.3373 9.87141L8.40468 0.286865H3.56107L1.03711 15.9223H5.06343L6.58983 6.19596L9.55849 15.9223H13.0079L16.0847 6.01868L17.551 15.9223H21.6374L19.1255 0.286865H14.354Z" fill="#8755CE"/>
        <path d="M57.2607 -0.0910645C52.5854 -0.0910645 49.9292 2.16621 50.0494 6.00712H54.5926C54.5926 4.37621 55.4579 3.64348 57.2728 3.64348C58.5708 3.64348 59.3881 4.1753 59.3881 4.97893C59.3881 5.49893 59.1838 5.69984 58.3905 5.92439L54.7849 6.9053C51.2753 7.83894 49.7129 9.26894 49.7129 11.6326C49.7129 14.4335 51.7801 16.3008 54.8209 16.3008C55.7916 16.3962 56.768 16.1871 57.6102 15.703C58.4523 15.2189 59.1169 14.4848 59.5083 13.6062V15.9698H63.7029V5.53439C63.6428 1.76439 61.2149 -0.0910645 57.2607 -0.0910645ZM55.6983 12.6608C54.5805 12.6608 54.0397 12.1289 54.0397 11.3489C54.0397 10.5689 54.4243 10.1671 55.6262 9.80076L59.4241 8.74893V9.03257C59.4359 9.51523 59.3472 9.99504 59.1638 10.443C58.9802 10.8906 58.7054 11.2967 58.3566 11.6366C58.0078 11.9762 57.5922 12.2422 57.135 12.4185C56.6778 12.5946 56.1889 12.6771 55.6983 12.6608Z" fill="#8755CE"/>
        <path d="M85.207 20.094V24.0885H89.7502V35.7295H94.137V24.0885H98.6802V20.094H85.207Z" fill="#8755CE"/>
        <path d="M69.4117 20.094H64.5801L61.1667 25.8967H59.424V20.094H55.0371V35.7295H59.424V29.7376H61.1427L64.8084 35.7295H69.7602L64.9166 27.7522L69.4117 20.094Z" fill="#8755CE"/>
        <path d="M30.2549 19.7158C25.5795 19.7158 22.9114 21.9731 23.0436 25.814H27.5867C27.5867 24.1831 28.4521 23.4504 30.2669 23.4504C31.5649 23.4504 32.3822 23.994 32.3822 24.7976C32.3822 25.3058 32.1779 25.5067 31.3726 25.7313L27.767 26.7122C24.2695 27.6576 22.707 29.0758 22.707 31.4395C22.707 34.2285 24.7743 36.1076 27.815 36.1076C28.7869 36.2112 29.7664 36.0036 30.6087 35.516C31.451 35.0286 32.1108 34.2869 32.4904 33.4013V35.7649H36.697V25.294C36.6369 21.5713 34.2091 19.7158 30.2549 19.7158ZM28.6684 32.4676C27.5747 32.4676 27.0218 31.9358 27.0218 31.144C27.0218 30.3522 27.4184 29.9622 28.6203 29.6313L32.4063 28.5795V28.8395C32.4183 29.3233 32.3291 29.8041 32.145 30.2527C31.9606 30.7013 31.6849 31.1081 31.3347 31.448C30.9847 31.7879 30.5674 32.0535 30.109 32.2289C29.6503 32.4043 29.1602 32.4856 28.6684 32.4676Z" fill="#8755CE"/>
        <path d="M47.3573 19.7165C46.4407 19.6601 45.5297 19.8933 44.7576 20.3824C43.9858 20.8714 43.393 21.5907 43.0666 22.4347V20.0711H38.6797V39.9965H43.0666V33.4256C43.4045 34.2574 44.0019 34.9627 44.7725 35.4404C45.5434 35.9181 46.4482 36.1436 47.3573 36.0847C50.963 36.0847 53.3667 33.3193 53.3667 27.9065C53.3667 22.4938 50.999 19.7165 47.3573 19.7165ZM46.1554 32.0902C44.1483 32.0902 42.9464 30.7429 42.9464 27.9065C42.9464 25.0702 44.1483 23.7111 46.1314 23.7111C48.1145 23.7111 49.1 25.0702 49.1 27.9065C49.1 30.7429 48.0905 32.0902 46.1314 32.0902H46.1554Z" fill="#8755CE"/>
        <path d="M14.354 20.094L11.3373 29.6667L8.40468 20.094H3.56107L1.03711 35.7295H5.06343L6.58983 26.0031L9.55849 35.7295H13.0079L16.0847 25.8258L17.551 35.7295H21.6374L19.1255 20.094H14.354Z" fill="#8755CE"/>
        <path d="M76.8887 32.2436C76.4099 32.2637 75.9318 32.1857 75.4852 32.0146C75.0385 31.8435 74.6328 31.583 74.2939 31.2497C73.9549 30.9164 73.69 30.5175 73.516 30.0783C73.342 29.6391 73.2626 29.169 73.2831 28.6982H84.1001C84.1001 28.6982 84.1722 27.8945 84.1722 27.0673C84.1722 22.34 81.3357 19.74 76.8767 19.74C72.1773 19.74 68.9082 23.1082 68.9082 27.9064C68.9082 32.7045 72.1293 36.1791 76.8286 36.1791C81.1915 36.1791 84.1241 33.6973 84.2202 30.0573H79.9175C79.791 30.7326 79.4072 31.3348 78.8442 31.7411C78.2812 32.1474 77.582 32.3273 76.8887 32.2436ZM76.8887 23.3327C77.2507 23.2847 77.6185 23.3081 77.9712 23.4013C78.3238 23.4946 78.6541 23.6558 78.9428 23.8759C79.2312 24.0959 79.4726 24.3701 79.6521 24.6826C79.8319 24.9951 79.9466 25.3397 79.9896 25.6964H73.5235C73.7388 24.9821 74.1929 24.3602 74.8124 23.9312C75.4318 23.5022 76.1803 23.2914 76.9368 23.3327H76.8887Z" fill="#8755CE"/>
    </g>
    <defs>
        <clipPath id="clip0_485_658">
            <rect width="98" height="40" fill="white" transform="translate(0.833984)"/>
        </clipPath>
    </defs>
</svg>
