<svg width="130" height="28" viewBox="0 0 130 28" fill="none" xmlns="http://www.w3.org/2000/svg">
    <g clip-path="url(#clip0_485_669)">
        <path fill-rule="evenodd" clip-rule="evenodd"
              d="M16.2614 0.0762922C13.3762 -0.226629 10.4678 0.36857 7.93583 1.78008C5.40385 3.19158 3.37263 5.3501 2.12136 7.95895C0.870084 10.5678 0.460184 13.4989 0.948 16.3494C1.43582 19.1998 2.7974 21.8297 4.8456 23.8776C6.8938 25.9255 9.52807 27.2907 12.3863 27.7858C15.2446 28.2808 18.1865 27.8813 20.8077 26.6422C23.4289 25.4031 25.6008 23.3851 27.0247 20.8658C28.4487 18.3464 29.0548 15.4493 28.7598 12.5727C28.4352 9.37507 27.0151 6.38663 24.7386 4.11054C22.4622 1.83445 19.4684 0.409733 16.2614 0.0762922ZM15.8063 21.4028C14.2546 21.6103 12.6767 21.328 11.2943 20.5954C9.91193 19.8629 8.79458 18.717 8.09931 17.3188C7.40404 15.9206 7.16579 14.3404 7.41806 12.8003C7.67033 11.2602 8.40043 9.83758 9.50574 8.73241C10.6111 7.62724 12.036 6.89507 13.5804 6.63881C15.1247 6.38255 16.7108 6.61507 18.1157 7.3037C19.5207 7.99233 20.6738 9.10245 21.413 10.478C22.1523 11.8536 22.4405 13.4255 22.2372 14.9728C22.0238 16.6003 21.2782 18.1123 20.1156 19.2747C18.953 20.4371 17.4385 21.1851 15.8063 21.4028ZM36.2704 0.630012C35.7834 0.631174 35.3028 0.740547 34.8635 0.950171C34.4242 1.1598 34.0373 1.4644 33.731 1.84181C33.4247 2.21923 33.2066 2.65997 33.0927 3.13195C32.9788 3.60394 32.9719 4.0953 33.0725 4.57028C33.3806 6.10907 34.8226 7.16047 36.3935 7.16047H45.5094L31.3229 25.8733C31.218 26.0115 31.1538 26.176 31.1374 26.3485C31.121 26.521 31.1532 26.6946 31.2303 26.8499C31.3074 27.0052 31.4264 27.136 31.5739 27.2277C31.7214 27.3194 31.8916 27.3683 32.0654 27.369H54.3183C55.8881 27.369 57.3312 26.3179 57.6393 24.7788C57.7399 24.3039 57.7331 23.8126 57.6193 23.3407C57.5054 22.8688 57.2875 22.428 56.9814 22.0506C56.6752 21.6732 56.2885 21.3685 55.8493 21.1587C55.4102 20.949 54.9297 20.8394 54.4427 20.838H43.3356L57.5112 2.13973C57.6172 2.00024 57.682 1.83408 57.6985 1.6599C57.715 1.48572 57.6825 1.3104 57.6046 1.15363C57.5267 0.996846 57.4065 0.864805 57.2575 0.772316C57.1085 0.679827 56.9366 0.63055 56.7611 0.630012H36.2704ZM125.192 0.705339C124.455 0.879955 123.8 1.29995 123.335 1.89589C122.871 2.49183 122.624 3.22801 122.636 3.98273V14.8557L104.96 0.835378C104.821 0.725704 104.654 0.657262 104.479 0.637925C104.303 0.618587 104.125 0.64914 103.966 0.726068C103.806 0.802997 103.672 0.923175 103.578 1.07278C103.485 1.22238 103.435 1.39533 103.436 1.57173V24.0221C103.423 24.7768 103.67 25.5131 104.135 26.109C104.6 26.7049 105.255 27.1249 105.991 27.2995C106.47 27.4044 106.966 27.401 107.443 27.2894C107.92 27.1778 108.365 26.9609 108.747 26.6547C109.128 26.3485 109.436 25.9608 109.647 25.5203C109.859 25.0798 109.968 24.5976 109.967 24.1093V13.1422L127.643 27.1629C127.782 27.2725 127.949 27.3409 128.124 27.3602C128.3 27.3795 128.478 27.349 128.637 27.2721C128.796 27.1952 128.931 27.075 129.024 26.9255C129.118 26.776 129.168 26.6031 129.167 26.4268V3.89445C129.168 3.40631 129.058 2.92428 128.847 2.4839C128.636 2.04351 128.328 1.65601 127.947 1.34995C127.565 1.04389 127.119 0.827092 126.643 0.715527C126.166 0.603962 125.67 0.600481 125.192 0.705339ZM79.1686 6.53539C86.645 6.53539 92.2313 10.4735 92.2313 13.9962C92.2313 17.5189 86.645 21.457 79.1686 21.457C71.6922 21.457 66.1059 17.5189 66.1059 13.9962C66.1059 10.4735 71.6922 6.53539 79.1686 6.53539ZM79.1686 0.00519396C68.3468 0.00519396 59.5742 6.26924 59.5742 13.9962C59.5742 21.7232 68.3468 27.9872 79.1686 27.9872C89.9904 27.9872 98.7627 21.7232 98.7627 13.9962C98.7627 6.26924 89.9901 0.00519396 79.1686 0.00519396Z"
              fill="#0069FF"/>
    </g>
    <defs>
        <clipPath id="clip0_485_669">
            <rect width="128.333" height="28" fill="white" transform="translate(0.833984)"/>
        </clipPath>
    </defs>
</svg>
